CooperHewittInterpol1-Semibold.ufo
<glyph name="exclam" format="1">
  <advance width="250"/>
  <unicode hex="0021"/>
  <outline>
    <contour>
      <point x="196" y="141" type="line" smooth="yes"/>
      <point x="54" y="141" type="line" smooth="yes"/>
      <point x="54" y="0" type="line" smooth="yes"/>
      <point x="196" y="0" type="line" smooth="yes"/>
    </contour>
    <contour>
      <point x="44" y="780" type="line" smooth="yes"/>
      <point x="80" y="216" type="line" smooth="yes"/>
      <point x="170" y="216" type="line" smooth="yes"/>
      <point x="206" y="780" type="line" smooth="yes"/>
    </contour>
  </outline>
</glyph>
<glyph name="dollar" format="1">
  <advance width="600"/>
  <unicode hex="0024"/>
  <outline>
    <contour>
      <point x="188" y="535" type="line" smooth="yes"/>
      <point x="188" y="540" type="line" smooth="yes"/>
      <point x="220" y="600" type="line" smooth="yes"/>
      <point x="296" y="621" type="line" smooth="yes"/>
      <point x="305" y="621" type="line" smooth="yes"/>
      <point x="265" y="454" type="line" smooth="yes"/>
      <point x="205" y="484" type="line" smooth="yes"/>
    </contour>
    <contour>
      <point x="306" y="160" type="line" smooth="yes"/>
      <point x="297" y="160" type="line" smooth="yes"/>
      <point x="338" y="334" type="line" smooth="yes"/>
      <point x="399" y="303" type="line" smooth="yes"/>
      <point x="417" y="251" type="line" smooth="yes"/>
      <point x="417" y="246" type="line" smooth="yes"/>
      <point x="386" y="183" type="line" smooth="yes"/>
    </contour>
    <contour>
      <point x="459" y="840" type="line" smooth="yes"/>
      <point x="357" y="840" type="line" smooth="yes"/>
      <point x="330" y="729" type="line" smooth="yes"/>
      <point x="315" y="730" type="line" smooth="yes"/>
      <point x="300" y="730" type="line" smooth="yes"/>
      <point x="123" y="679" type="line" smooth="yes"/>
      <point x="56" y="534" type="line" smooth="yes"/>
      <point x="56" y="525" type="line" smooth="yes"/>
      <point x="100" y="408" type="line" smooth="yes"/>
      <point x="240" y="350" type="line" smooth="yes"/>
      <point x="204" y="199" type="line" smooth="yes"/>
      <point x="187" y="234" type="line" smooth="yes"/>
      <point x="181" y="279" type="line" smooth="yes"/>
      <point x="49" y="279" type="line" smooth="yes"/>
      <point x="49" y="273" type="line" smooth="yes"/>
      <point x="80" y="149" type="line" smooth="yes"/>
      <point x="174" y="73" type="line" smooth="yes"/>
      <point x="142" y="-60" type="line" smooth="yes"/>
      <point x="244" y="-60" type="line" smooth="yes"/>
      <point x="271" y="52" type="line" smooth="yes"/>
      <point x="287" y="51" type="line" smooth="yes"/>
      <point x="304" y="51" type="line" smooth="yes"/>
      <point x="488" y="105" type="line" smooth="yes"/>
      <point x="551" y="252" type="line" smooth="yes"/>
      <point x="551" y="261" type="line" smooth="yes"/>
      <point x="503" y="383" type="line" smooth="yes"/>
      <point x="363" y="438" type="line" smooth="yes"/>
      <point x="396" y="576" type="line" smooth="yes"/>
      <point x="410" y="539" type="line" smooth="yes"/>
      <point x="414" y="493" type="line" smooth="yes"/>
      <point x="545" y="493" type="line" smooth="yes"/>
      <point x="545" y="507" type="line" smooth="yes"/>
      <point x="516" y="634" type="line" smooth="yes"/>
      <point x="427" y="709" type="line" smooth="yes"/>
    </contour>
  </outline>
</glyph>
<glyph name="percent" format="1">
  <advance width="963"/>
  <unicode hex="0025"/>
  <outline>
    <contour>
      <point x="297" y="611" type="line" smooth="yes"/>
      <point x="297" y="597" type="line" smooth="yes"/>
      <point x="274" y="536" type="line" smooth="yes"/>
      <point x="216" y="514" type="line" smooth="yes"/>
      <point x="210" y="514" type="line" smooth="yes"/>
      <point x="152" y="536" type="line" smooth="yes"/>
      <point x="130" y="597" type="line" smooth="yes"/>
      <point x="130" y="611" type="line" smooth="yes"/>
      <point x="152" y="671" type="line" smooth="yes"/>
      <point x="210" y="693" type="line" smooth="yes"/>
      <point x="216" y="693" type="line" smooth="yes"/>
      <point x="274" y="671" type="line" smooth="yes"/>
    </contour>
    <contour>
      <point x="666" y="169" type="line" smooth="yes"/>
      <point x="666" y="183" type="line" smooth="yes"/>
      <point x="688" y="244" type="line" smooth="yes"/>
      <point x="746" y="266" type="line" smooth="yes"/>
      <point x="752" y="266" type="line" smooth="yes"/>
      <point x="810" y="244" type="line" smooth="yes"/>
      <point x="833" y="183" type="line" smooth="yes"/>
      <point x="833" y="169" type="line" smooth="yes"/>
      <point x="810" y="109" type="line" smooth="yes"/>
      <point x="752" y="87" type="line" smooth="yes"/>
      <point x="746" y="87" type="line" smooth="yes"/>
      <point x="688" y="109" type="line" smooth="yes"/>
    </contour>
    <contour>
      <point x="567" y="182" type="line" smooth="yes"/>
      <point x="567" y="171" type="line" smooth="yes"/>
      <point x="619" y="34" type="line" smooth="yes"/>
      <point x="749" y="-13" type="line" smooth="yes"/>
      <point x="880" y="34" type="line" smooth="yes"/>
      <point x="932" y="171" type="line" smooth="yes"/>
      <point x="932" y="182" type="line" smooth="yes"/>
      <point x="880" y="318" type="line" smooth="yes"/>
      <point x="749" y="365" type="line" smooth="yes"/>
      <point x="619" y="318" type="line" smooth="yes"/>
    </contour>
    <contour>
      <point x="377" y="0" type="line" smooth="yes"/>
      <point x="675" y="716" type="line" smooth="yes"/>
      <point x="675" y="783" type="line" smooth="yes"/>
      <point x="593" y="763" type="line" smooth="yes"/>
      <point x="471" y="751" type="line" smooth="yes"/>
      <point x="378" y="756" type="line" smooth="yes"/>
      <point x="299" y="776" type="line" smooth="yes"/>
      <point x="258" y="789" type="line" smooth="yes"/>
      <point x="213" y="793" type="line" smooth="yes"/>
      <point x="83" y="746" type="line" smooth="yes"/>
      <point x="31" y="609" type="line" smooth="yes"/>
      <point x="31" y="598" type="line" smooth="yes"/>
      <point x="83" y="462" type="line" smooth="yes"/>
      <point x="213" y="415" type="line" smooth="yes"/>
      <point x="344" y="462" type="line" smooth="yes"/>
      <point x="396" y="598" type="line" smooth="yes"/>
      <point x="396" y="609" type="line" smooth="yes"/>
      <point x="395" y="629" type="line" smooth="yes"/>
      <point x="393" y="649" type="line" smooth="yes"/>
      <point x="420" y="646" type="line" smooth="yes"/>
      <point x="449" y="645" type="line" smooth="yes"/>
      <point x="503" y="649" type="line" smooth="yes"/>
      <point x="533" y="655" type="line" smooth="yes"/>
      <point x="261" y="0" type="line" smooth="yes"/>
    </contour>
  </outline>
</glyph>
<glyph name="ampersand" format="1">
  <advance width="681"/>
  <unicode hex="0026"/>
  <outline>
    <contour>
      <point x="198" y="614" type="line" smooth="yes"/>
      <point x="216" y="663" type="line" smooth="yes"/>
      <point x="269" y="683" type="line" smooth="yes"/>
      <point x="276" y="683" type="line" smooth="yes"/>
      <point x="329" y="663" type="line" smooth="yes"/>
      <point x="347" y="614" type="line" smooth="yes"/>
      <point x="347" y="607" type="line" smooth="yes"/>
      <point x="317" y="541" type="line" smooth="yes"/>
      <point x="245" y="489" type="line" smooth="yes"/>
      <point x="211" y="545" type="line" smooth="yes"/>
      <point x="198" y="607" type="line" smooth="yes"/>
    </contour>
    <contour>
      <point x="274" y="101" type="line" smooth="yes"/>
      <point x="188" y="133" type="line" smooth="yes"/>
      <point x="160" y="219" type="line" smooth="yes"/>
      <point x="160" y="226" type="line" smooth="yes"/>
      <point x="176" y="289" type="line" smooth="yes"/>
      <point x="218" y="337" type="line" smooth="yes"/>
      <point x="393" y="135" type="line" smooth="yes"/>
      <point x="340" y="110" type="line" smooth="yes"/>
      <point x="279" y="101" type="line" smooth="yes"/>
    </contour>
    <contour>
      <point x="255" y="-13" type="line" smooth="yes"/>
      <point x="372" y="3" type="line" smooth="yes"/>
      <point x="469" y="47" type="line" smooth="yes"/>
      <point x="511" y="0" type="line" smooth="yes"/>
      <point x="670" y="0" type="line" smooth="yes"/>
      <point x="557" y="130" type="line" smooth="yes"/>
      <point x="620" y="252" type="line" smooth="yes"/>
      <point x="641" y="392" type="line" smooth="yes"/>
      <point x="641" y="395" type="line" smooth="yes"/>
      <point x="504" y="395" type="line" smooth="yes"/>
      <point x="504" y="392" type="line" smooth="yes"/>
      <point x="495" y="304" type="line" smooth="yes"/>
      <point x="471" y="230" type="line" smooth="yes"/>
      <point x="320" y="403" type="line" smooth="yes"/>
      <point x="430" y="483" type="line" smooth="yes"/>
      <point x="479" y="608" type="line" smooth="yes"/>
      <point x="479" y="619" type="line" smooth="yes"/>
      <point x="430" y="742" type="line" smooth="yes"/>
      <point x="273" y="793" type="line" smooth="yes"/>
      <point x="116" y="742" type="line" smooth="yes"/>
      <point x="66" y="619" type="line" smooth="yes"/>
      <point x="66" y="608" type="line" smooth="yes"/>
      <point x="86" y="510" type="line" smooth="yes"/>
      <point x="141" y="426" type="line" smooth="yes"/>
      <point x="60" y="344" type="line" smooth="yes"/>
      <point x="26" y="219" type="line" smooth="yes"/>
      <point x="26" y="208" type="line" smooth="yes"/>
      <point x="87" y="47" type="line" smooth="yes"/>
    </contour>
  </outline>
</glyph>
<glyph name="parenleft" format="1">
  <advance width="350"/>
  <unicode hex="0028"/>
  <outline>
    <contour>
      <point x="42" y="350" type="line" smooth="yes"/>
      <point x="85" y="72" type="line" smooth="yes"/>
      <point x="190" y="-120" type="line" smooth="yes"/>
      <point x="326" y="-120" type="line" smooth="yes"/>
      <point x="218" y="85" type="line" smooth="yes"/>
      <point x="173" y="350" type="line" smooth="yes"/>
      <point x="173" y="370" type="line" smooth="yes"/>
      <point x="218" y="635" type="line" smooth="yes"/>
      <point x="326" y="840" type="line" smooth="yes"/>
      <point x="190" y="840" type="line" smooth="yes"/>
      <point x="85" y="648" type="line" smooth="yes"/>
      <point x="42" y="370" type="line" smooth="yes"/>
    </contour>
  </outline>
</glyph>
<glyph name="zero" format="1">
  <advance width="600"/>
  <unicode hex="0030"/>
  <outline>
    <contour>
      <point x="417" y="554" type="line" smooth="yes"/>
      <point x="417" y="226" type="line" smooth="yes"/>
      <point x="391" y="138" type="line" smooth="yes"/>
      <point x="302" y="104" type="line" smooth="yes"/>
      <point x="298" y="104" type="line" smooth="yes"/>
      <point x="209" y="138" type="line" smooth="yes"/>
      <point x="183" y="226" type="line" smooth="yes"/>
      <point x="183" y="554" type="line" smooth="yes"/>
      <point x="209" y="642" type="line" smooth="yes"/>
      <point x="298" y="676" type="line" smooth="yes"/>
      <point x="302" y="676" type="line" smooth="yes"/>
      <point x="391" y="642" type="line" smooth="yes"/>
    </contour>
    <contour>
      <point x="550" y="222" type="line" smooth="yes"/>
      <point x="550" y="558" type="line" smooth="yes"/>
      <point x="489" y="726" type="line" smooth="yes"/>
      <point x="300" y="793" type="line" smooth="yes"/>
      <point x="111" y="726" type="line" smooth="yes"/>
      <point x="50" y="558" type="line" smooth="yes"/>
      <point x="50" y="222" type="line" smooth="yes"/>
      <point x="111" y="54" type="line" smooth="yes"/>
      <point x="300" y="-13" type="line" smooth="yes"/>
      <point x="489" y="54" type="line" smooth="yes"/>
    </contour>
  </outline>
</glyph>
<glyph name="two" format="1">
  <advance width="600"/>
  <unicode hex="0032"/>
  <outline>
    <contour>
      <point x="309" y="117" type="line" smooth="yes"/>
      <point x="239" y="116" type="line" smooth="yes"/>
      <point x="464" y="361" type="line" smooth="yes"/>
      <point x="532" y="454" type="line" smooth="yes"/>
      <point x="553" y="562" type="line" smooth="yes"/>
      <point x="553" y="579" type="line" smooth="yes"/>
      <point x="494" y="727" type="line" smooth="yes"/>
      <point x="300" y="793" type="line" smooth="yes"/>
      <point x="109" y="729" type="line" smooth="yes"/>
      <point x="47" y="541" type="line" smooth="yes"/>
      <point x="47" y="520" type="line" smooth="yes"/>
      <point x="179" y="520" type="line" smooth="yes"/>
      <point x="210" y="641" type="line" smooth="yes"/>
      <point x="296" y="676" type="line" smooth="yes"/>
      <point x="304" y="676" type="line" smooth="yes"/>
      <point x="388" y="645" type="line" smooth="yes"/>
      <point x="420" y="555" type="line" smooth="yes"/>
      <point x="420" y="545" type="line" smooth="yes"/>
      <point x="406" y="483" type="line" smooth="yes"/>
      <point x="360" y="423" type="line" smooth="yes"/>
      <point x="47" y="83" type="line" smooth="yes"/>
      <point x="47" y="0" type="line" smooth="yes"/>
      <point x="553" y="0" type="line" smooth="yes"/>
      <point x="553" y="117" type="line" smooth="yes"/>
    </contour>
  </outline>
</glyph>
<glyph name="three" format="1">
  <advance width="600"/>
  <unicode hex="0033"/>
  <outline>
    <contour>
      <point x="174" y="250" type="line" smooth="yes"/>
      <point x="42" y="250" type="line" smooth="yes"/>
      <point x="42" y="237" type="line" smooth="yes"/>
      <point x="106" y="53" type="line" smooth="yes"/>
      <point x="300" y="-13" type="line" smooth="yes"/>
      <point x="495" y="56" type="line" smooth="yes"/>
      <point x="558" y="206" type="line" smooth="yes"/>
      <point x="558" y="224" type="line" smooth="yes"/>
      <point x="528" y="334" type="line" smooth="yes"/>
      <point x="454" y="398" type="line" smooth="yes"/>
      <point x="525" y="461" type="line" smooth="yes"/>
      <point x="553" y="567" type="line" smooth="yes"/>
      <point x="553" y="585" type="line" smooth="yes"/>
      <point x="494" y="727" type="line" smooth="yes"/>
      <point x="300" y="793" type="line" smooth="yes"/>
      <point x="109" y="729" type="line" smooth="yes"/>
      <point x="47" y="541" type="line" smooth="yes"/>
      <point x="47" y="520" type="line" smooth="yes"/>
      <point x="179" y="520" type="line" smooth="yes"/>
      <point x="209" y="641" type="line" smooth="yes"/>
      <point x="295" y="676" type="line" smooth="yes"/>
      <point x="305" y="676" type="line" smooth="yes"/>
      <point x="388" y="647" type="line" smooth="yes"/>
      <point x="420" y="569" type="line" smooth="yes"/>
      <point x="420" y="560" type="line" smooth="yes"/>
      <point x="389" y="481" type="line" smooth="yes"/>
      <point x="306" y="456" type="line" smooth="yes"/>
      <point x="200" y="456" type="line" smooth="yes"/>
      <point x="200" y="340" type="line" smooth="yes"/>
      <point x="309" y="340" type="line" smooth="yes"/>
      <point x="393" y="313" type="line" smooth="yes"/>
      <point x="425" y="231" type="line" smooth="yes"/>
      <point x="425" y="219" type="line" smooth="yes"/>
      <point x="389" y="132" type="line" smooth="yes"/>
      <point x="305" y="104" type="line" smooth="yes"/>
      <point x="295" y="104" type="line" smooth="yes"/>
      <point x="208" y="137" type="line" smooth="yes"/>
    </contour>
  </outline>
</glyph>
<glyph name="five" format="1">
  <advance width="600"/>
  <unicode hex="0035"/>
  <outline>
    <contour>
      <point x="42" y="250" type="line" smooth="yes"/>
      <point x="42" y="237" type="line" smooth="yes"/>
      <point x="106" y="53" type="line" smooth="yes"/>
      <point x="300" y="-13" type="line" smooth="yes"/>
      <point x="490" y="54" type="line" smooth="yes"/>
      <point x="558" y="237" type="line" smooth="yes"/>
      <point x="558" y="253" type="line" smooth="yes"/>
      <point x="491" y="437" type="line" smooth="yes"/>
      <point x="306" y="503" type="line" smooth="yes"/>
      <point x="233" y="494" type="line" smooth="yes"/>
      <point x="170" y="469" type="line" smooth="yes"/>
      <point x="179" y="663" type="line" smooth="yes"/>
      <point x="548" y="663" type="line" smooth="yes"/>
      <point x="548" y="780" type="line" smooth="yes"/>
      <point x="67" y="780" type="line" smooth="yes"/>
      <point x="48" y="349" type="line" smooth="yes"/>
      <point x="161" y="311" type="line" smooth="yes"/>
      <point x="216" y="368" type="line" smooth="yes"/>
      <point x="292" y="386" type="line" smooth="yes"/>
      <point x="299" y="386" type="line" smooth="yes"/>
      <point x="388" y="355" type="line" smooth="yes"/>
      <point x="425" y="252" type="line" smooth="yes"/>
      <point x="425" y="238" type="line" smooth="yes"/>
      <point x="389" y="135" type="line" smooth="yes"/>
      <point x="305" y="104" type="line" smooth="yes"/>
      <point x="295" y="104" type="line" smooth="yes"/>
      <point x="208" y="137" type="line" smooth="yes"/>
      <point x="174" y="250" type="line" smooth="yes"/>
    </contour>
  </outline>
</glyph>
<glyph name="six" format="1">
  <advance width="600"/>
  <unicode hex="0036"/>
  <outline>
    <contour>
      <point x="304" y="375" type="line" smooth="yes"/>
      <point x="309" y="375" type="line" smooth="yes"/>
      <point x="394" y="344" type="line" smooth="yes"/>
      <point x="427" y="250" type="line" smooth="yes"/>
      <point x="427" y="231" type="line" smooth="yes"/>
      <point x="392" y="137" type="line" smooth="yes"/>
      <point x="305" y="104" type="line" smooth="yes"/>
      <point x="299" y="104" type="line" smooth="yes"/>
      <point x="212" y="144" type="line" smooth="yes"/>
      <point x="176" y="260" type="line" smooth="yes"/>
      <point x="176" y="299" type="line" smooth="yes"/>
      <point x="231" y="355" type="line" smooth="yes"/>
    </contour>
    <contour>
      <point x="521" y="793" type="line" smooth="yes"/>
      <point x="315" y="760" type="line" smooth="yes"/>
      <point x="154" y="641" type="line" smooth="yes"/>
      <point x="68" y="467" type="line" smooth="yes"/>
      <point x="44" y="283" type="line" smooth="yes"/>
      <point x="44" y="270" type="line" smooth="yes"/>
      <point x="113" y="64" type="line" smooth="yes"/>
      <point x="302" y="-13" type="line" smooth="yes"/>
      <point x="492" y="52" type="line" smooth="yes"/>
      <point x="559" y="236" type="line" smooth="yes"/>
      <point x="559" y="246" type="line" smooth="yes"/>
      <point x="497" y="427" type="line" smooth="yes"/>
      <point x="336" y="491" type="line" smooth="yes"/>
      <point x="258" y="478" type="line" smooth="yes"/>
      <point x="196" y="444" type="line" smooth="yes"/>
      <point x="221" y="509" type="line" smooth="yes"/>
      <point x="257" y="567" type="line" smooth="yes"/>
      <point x="370" y="649" type="line" smooth="yes"/>
      <point x="521" y="674" type="line" smooth="yes"/>
    </contour>
  </outline>
</glyph>
<glyph name="eight" format="1">
  <advance width="600"/>
  <unicode hex="0038"/>
  <outline>
    <contour>
      <point x="305" y="676" type="line" smooth="yes"/>
      <point x="388" y="647" type="line" smooth="yes"/>
      <point x="420" y="570" type="line" smooth="yes"/>
      <point x="420" y="562" type="line" smooth="yes"/>
      <point x="389" y="482" type="line" smooth="yes"/>
      <point x="306" y="456" type="line" smooth="yes"/>
      <point x="294" y="456" type="line" smooth="yes"/>
      <point x="212" y="482" type="line" smooth="yes"/>
      <point x="180" y="562" type="line" smooth="yes"/>
      <point x="180" y="570" type="line" smooth="yes"/>
      <point x="212" y="647" type="line" smooth="yes"/>
      <point x="295" y="676" type="line" smooth="yes"/>
    </contour>
    <contour>
      <point x="291" y="340" type="line" smooth="yes"/>
      <point x="309" y="340" type="line" smooth="yes"/>
      <point x="393" y="312" type="line" smooth="yes"/>
      <point x="425" y="230" type="line" smooth="yes"/>
      <point x="425" y="218" type="line" smooth="yes"/>
      <point x="389" y="131" type="line" smooth="yes"/>
      <point x="305" y="104" type="line" smooth="yes"/>
      <point x="295" y="104" type="line" smooth="yes"/>
      <point x="211" y="131" type="line" smooth="yes"/>
      <point x="175" y="218" type="line" smooth="yes"/>
      <point x="175" y="230" type="line" smooth="yes"/>
      <point x="207" y="312" type="line" smooth="yes"/>
    </contour>
    <contour>
      <point x="300" y="-13" type="line" smooth="yes"/>
      <point x="495" y="56" type="line" smooth="yes"/>
      <point x="558" y="205" type="line" smooth="yes"/>
      <point x="558" y="223" type="line" smooth="yes"/>
      <point x="528" y="333" type="line" smooth="yes"/>
      <point x="454" y="398" type="line" smooth="yes"/>
      <point x="525" y="462" type="line" smooth="yes"/>
      <point x="553" y="568" type="line" smooth="yes"/>
      <point x="553" y="586" type="line" smooth="yes"/>
      <point x="494" y="728" type="line" smooth="yes"/>
      <point x="300" y="793" type="line" smooth="yes"/>
      <point x="106" y="728" type="line" smooth="yes"/>
      <point x="47" y="586" type="line" smooth="yes"/>
      <point x="47" y="568" type="line" smooth="yes"/>
      <point x="75" y="462" type="line" smooth="yes"/>
      <point x="146" y="398" type="line" smooth="yes"/>
      <point x="72" y="333" type="line" smooth="yes"/>
      <point x="42" y="223" type="line" smooth="yes"/>
      <point x="42" y="205" type="line" smooth="yes"/>
      <point x="105" y="56" type="line" smooth="yes"/>
    </contour>
  </outline>
</glyph>
<glyph name="nine" format="1">
  <advance width="600"/>
  <unicode hex="0039"/>
  <outline>
    <contour>
      <point x="296" y="405" type="line" smooth="yes"/>
      <point x="291" y="405" type="line" smooth="yes"/>
      <point x="206" y="436" type="line" smooth="yes"/>
      <point x="173" y="530" type="line" smooth="yes"/>
      <point x="173" y="549" type="line" smooth="yes"/>
      <point x="208" y="643" type="line" smooth="yes"/>
      <point x="295" y="676" type="line" smooth="yes"/>
      <point x="301" y="676" type="line" smooth="yes"/>
      <point x="388" y="636" type="line" smooth="yes"/>
      <point x="424" y="520" type="line" smooth="yes"/>
      <point x="424" y="510" type="line" smooth="yes"/>
      <point x="424" y="495" type="line" smooth="yes"/>
      <point x="423" y="480" type="line" smooth="yes"/>
      <point x="369" y="425" type="line" smooth="yes"/>
    </contour>
    <contour>
      <point x="79" y="-13" type="line" smooth="yes"/>
      <point x="285" y="20" type="line" smooth="yes"/>
      <point x="446" y="139" type="line" smooth="yes"/>
      <point x="532" y="313" type="line" smooth="yes"/>
      <point x="556" y="497" type="line" smooth="yes"/>
      <point x="556" y="510" type="line" smooth="yes"/>
      <point x="487" y="716" type="line" smooth="yes"/>
      <point x="298" y="793" type="line" smooth="yes"/>
      <point x="108" y="728" type="line" smooth="yes"/>
      <point x="41" y="544" type="line" smooth="yes"/>
      <point x="41" y="534" type="line" smooth="yes"/>
      <point x="103" y="353" type="line" smooth="yes"/>
      <point x="264" y="289" type="line" smooth="yes"/>
      <point x="342" y="302" type="line" smooth="yes"/>
      <point x="403" y="336" type="line" smooth="yes"/>
      <point x="379" y="270" type="line" smooth="yes"/>
      <point x="343" y="213" type="line" smooth="yes"/>
      <point x="230" y="131" type="line" smooth="yes"/>
      <point x="79" y="106" type="line" smooth="yes"/>
    </contour>
  </outline>
</glyph>
<glyph name="question" format="1">
  <advance width="484"/>
  <unicode hex="003F"/>
  <outline>
    <contour>
      <point x="310" y="141" type="line" smooth="yes"/>
      <point x="168" y="141" type="line" smooth="yes"/>
      <point x="168" y="0" type="line" smooth="yes"/>
      <point x="310" y="0" type="line" smooth="yes"/>
    </contour>
    <contour>
      <point x="246" y="677" type="line" smooth="yes"/>
      <point x="312" y="650" type="line" smooth="yes"/>
      <point x="330" y="578" type="line" smooth="yes"/>
      <point x="257" y="430" type="line" smooth="yes"/>
      <point x="194" y="216" type="line" smooth="yes"/>
      <point x="284" y="216" type="line" smooth="yes"/>
      <point x="378" y="400" type="line" smooth="yes"/>
      <point x="463" y="589" type="line" smooth="yes"/>
      <point x="416" y="732" type="line" smooth="yes"/>
      <point x="246" y="793" type="line" smooth="yes"/>
      <point x="71" y="722" type="line" smooth="yes"/>
      <point x="23" y="528" type="line" smooth="yes"/>
      <point x="23" y="513" type="line" smooth="yes"/>
      <point x="154" y="513" type="line" smooth="yes"/>
      <point x="174" y="636" type="line" smooth="yes"/>
    </contour>
  </outline>
</glyph>
<glyph name="at" format="1">
  <advance width="981"/>
  <unicode hex="0040"/>
  <outline>
    <contour>
      <point x="574" y="208" type="line" smooth="yes"/>
      <point x="538" y="170" type="line" smooth="yes"/>
      <point x="474" y="150" type="line" smooth="yes"/>
      <point x="397" y="186" type="line" smooth="yes"/>
      <point x="373" y="280" type="line" smooth="yes"/>
      <point x="373" y="310" type="line" smooth="yes"/>
      <point x="397" y="404" type="line" smooth="yes"/>
      <point x="474" y="440" type="line" smooth="yes"/>
      <point x="538" y="420" type="line" smooth="yes"/>
      <point x="574" y="382" type="line" smooth="yes"/>
    </contour>
    <contour>
      <point x="510" y="-124" type="line" smooth="yes"/>
      <point x="228" y="-25" type="line" smooth="yes"/>
      <point x="119" y="270" type="line" smooth="yes"/>
      <point x="119" y="310" type="line" smooth="yes"/>
      <point x="227" y="604" type="line" smooth="yes"/>
      <point x="505" y="704" type="line" smooth="yes"/>
      <point x="511" y="704" type="line" smooth="yes"/>
      <point x="751" y="639" type="line" smooth="yes"/>
      <point x="860" y="395" type="line" smooth="yes"/>
      <point x="860" y="365" type="line" smooth="yes"/>
      <point x="819" y="194" type="line" smooth="yes"/>
      <point x="689" y="147" type="line" smooth="yes"/>
      <point x="689" y="390" type="line" smooth="yes"/>
      <point x="697" y="530" type="line" smooth="yes"/>
      <point x="595" y="530" type="line" smooth="yes"/>
      <point x="584" y="466" type="line" smooth="yes"/>
      <point x="529" y="521" type="line" smooth="yes"/>
      <point x="441" y="543" type="line" smooth="yes"/>
      <point x="298" y="476" type="line" smooth="yes"/>
      <point x="252" y="310" type="line" smooth="yes"/>
      <point x="252" y="280" type="line" smooth="yes"/>
      <point x="298" y="114" type="line" smooth="yes"/>
      <point x="441" y="47" type="line" smooth="yes"/>
      <point x="529" y="69" type="line" smooth="yes"/>
      <point x="584" y="123" type="line" smooth="yes"/>
      <point x="595" y="60" type="line" smooth="yes"/>
      <point x="681" y="60" type="line" smooth="yes"/>
      <point x="875" y="123" type="line" smooth="yes"/>
      <point x="953" y="365" type="line" smooth="yes"/>
      <point x="953" y="395" type="line" smooth="yes"/>
      <point x="820" y="699" type="line" smooth="yes"/>
      <point x="508" y="793" type="line" smooth="yes"/>
      <point x="164" y="667" type="line" smooth="yes"/>
      <point x="29" y="310" type="line" smooth="yes"/>
      <point x="29" y="270" type="line" smooth="yes"/>
      <point x="165" y="-87" type="line" smooth="yes"/>
      <point x="513" y="-213" type="line" smooth="yes"/>
      <point x="699" y="-189" type="line" smooth="yes"/>
      <point x="896" y="-86" type="line" smooth="yes"/>
      <point x="845" y="-17" type="line" smooth="yes"/>
      <point x="689" y="-98" type="line" smooth="yes"/>
      <point x="516" y="-124" type="line" smooth="yes"/>
    </contour>
  </outline>
</glyph>
<glyph name="B" format="1">
  <advance width="617"/>
  <unicode hex="0042"/>
  <outline>
    <contour>
      <point x="300" y="663" type="line" smooth="yes"/>
      <point x="376" y="643" type="line" smooth="yes"/>
      <point x="410" y="567" type="line" smooth="yes"/>
      <point x="410" y="554" type="line" smooth="yes"/>
      <point x="376" y="478" type="line" smooth="yes"/>
      <point x="300" y="458" type="line" smooth="yes"/>
      <point x="195" y="458" type="line" smooth="yes"/>
      <point x="195" y="663" type="line" smooth="yes"/>
    </contour>
    <contour>
      <point x="315" y="341" type="line" smooth="yes"/>
      <point x="394" y="318" type="line" smooth="yes"/>
      <point x="430" y="234" type="line" smooth="yes"/>
      <point x="430" y="223" type="line" smooth="yes"/>
      <point x="394" y="140" type="line" smooth="yes"/>
      <point x="315" y="117" type="line" smooth="yes"/>
      <point x="195" y="117" type="line" smooth="yes"/>
      <point x="195" y="341" type="line" smooth="yes"/>
    </contour>
    <contour>
      <point x="61" y="780" type="line" smooth="yes"/>
      <point x="61" y="0" type="line" smooth="yes"/>
      <point x="310" y="0" type="line" smooth="yes"/>
      <point x="486" y="43" type="line" smooth="yes"/>
      <point x="566" y="219" type="line" smooth="yes"/>
      <point x="566" y="239" type="line" smooth="yes"/>
      <point x="535" y="344" type="line" smooth="yes"/>
      <point x="459" y="402" type="line" smooth="yes"/>
      <point x="522" y="457" type="line" smooth="yes"/>
      <point x="546" y="550" type="line" smooth="yes"/>
      <point x="546" y="570" type="line" smooth="yes"/>
      <point x="470" y="739" type="line" smooth="yes"/>
      <point x="300" y="780" type="line" smooth="yes"/>
    </contour>
  </outline>
</glyph>
<glyph name="C" format="1">
  <advance width="640"/>
  <unicode hex="0043"/>
  <outline>
    <contour>
      <point x="181" y="370" type="line" smooth="yes"/>
      <point x="181" y="410" type="line" smooth="yes"/>
      <point x="213" y="609" type="line" smooth="yes"/>
      <point x="328" y="676" type="line" smooth="yes"/>
      <point x="337" y="676" type="line" smooth="yes"/>
      <point x="436" y="628" type="line" smooth="yes"/>
      <point x="463" y="487" type="line" smooth="yes"/>
      <point x="598" y="487" type="line" smooth="yes"/>
      <point x="598" y="521" type="line" smooth="yes"/>
      <point x="531" y="728" type="line" smooth="yes"/>
      <point x="329" y="793" type="line" smooth="yes"/>
      <point x="113" y="703" type="line" smooth="yes"/>
      <point x="44" y="410" type="line" smooth="yes"/>
      <point x="44" y="370" type="line" smooth="yes"/>
      <point x="113" y="77" type="line" smooth="yes"/>
      <point x="329" y="-13" type="line" smooth="yes"/>
      <point x="531" y="51" type="line" smooth="yes"/>
      <point x="598" y="253" type="line" smooth="yes"/>
      <point x="598" y="263" type="line" smooth="yes"/>
      <point x="463" y="263" type="line" smooth="yes"/>
      <point x="434" y="147" type="line" smooth="yes"/>
      <point x="337" y="104" type="line" smooth="yes"/>
      <point x="328" y="104" type="line" smooth="yes"/>
      <point x="213" y="171" type="line" smooth="yes"/>
    </contour>
  </outline>
</glyph>
<glyph name="H" format="1">
  <advance width="655"/>
  <unicode hex="0048"/>
  <outline>
    <contour>
      <point x="460" y="780" type="line" smooth="yes"/>
      <point x="460" y="456" type="line" smooth="yes"/>
      <point x="195" y="456" type="line" smooth="yes"/>
      <point x="195" y="780" type="line" smooth="yes"/>
      <point x="61" y="780" type="line" smooth="yes"/>
      <point x="61" y="0" type="line" smooth="yes"/>
      <point x="195" y="0" type="line" smooth="yes"/>
      <point x="195" y="340" type="line" smooth="yes"/>
      <point x="460" y="340" type="line" smooth="yes"/>
      <point x="460" y="0" type="line" smooth="yes"/>
      <point x="594" y="0" type="line" smooth="yes"/>
      <point x="594" y="780" type="line" smooth="yes"/>
    </contour>
  </outline>
</glyph>
<glyph name="O" format="1">
  <advance width="665"/>
  <unicode hex="004F"/>
  <outline>
    <contour>
      <point x="328" y="104" type="line" smooth="yes"/>
      <point x="214" y="171" type="line" smooth="yes"/>
      <point x="181" y="370" type="line" smooth="yes"/>
      <point x="181" y="410" type="line" smooth="yes"/>
      <point x="214" y="609" type="line" smooth="yes"/>
      <point x="328" y="676" type="line" smooth="yes"/>
      <point x="337" y="676" type="line" smooth="yes"/>
      <point x="451" y="609" type="line" smooth="yes"/>
      <point x="484" y="410" type="line" smooth="yes"/>
      <point x="484" y="370" type="line" smooth="yes"/>
      <point x="451" y="171" type="line" smooth="yes"/>
      <point x="337" y="104" type="line" smooth="yes"/>
    </contour>
    <contour>
      <point x="333" y="-13" type="line" smooth="yes"/>
      <point x="550" y="77" type="line" smooth="yes"/>
      <point x="621" y="370" type="line" smooth="yes"/>
      <point x="621" y="410" type="line" smooth="yes"/>
      <point x="550" y="703" type="line" smooth="yes"/>
      <point x="333" y="793" type="line" smooth="yes"/>
      <point x="115" y="703" type="line" smooth="yes"/>
      <point x="44" y="410" type="line" smooth="yes"/>
      <point x="44" y="370" type="line" smooth="yes"/>
      <point x="115" y="77" type="line" smooth="yes"/>
    </contour>
  </outline>
</glyph>
<glyph name="Q" format="1">
  <advance width="665"/>
  <unicode hex="0051"/>
  <outline>
    <contour>
      <point x="378" y="251" type="line" smooth="yes"/>
      <point x="275" y="251" type="line" smooth="yes"/>
      <point x="331" y="104" type="line" smooth="yes"/>
      <point x="328" y="104" type="line" smooth="yes"/>
      <point x="214" y="171" type="line" smooth="yes"/>
      <point x="181" y="370" type="line" smooth="yes"/>
      <point x="181" y="410" type="line" smooth="yes"/>
      <point x="214" y="609" type="line" smooth="yes"/>
      <point x="328" y="676" type="line" smooth="yes"/>
      <point x="337" y="676" type="line" smooth="yes"/>
      <point x="451" y="609" type="line" smooth="yes"/>
      <point x="484" y="410" type="line" smooth="yes"/>
      <point x="484" y="370" type="line" smooth="yes"/>
      <point x="470" y="223" type="line" smooth="yes"/>
      <point x="424" y="134" type="line" smooth="yes"/>
    </contour>
    <contour>
      <point x="333" y="-13" type="line" smooth="yes"/>
      <point x="354" y="-12" type="line" smooth="yes"/>
      <point x="375" y="-11" type="line" smooth="yes"/>
      <point x="409" y="-100" type="line" smooth="yes"/>
      <point x="516" y="-100" type="line" smooth="yes"/>
      <point x="471" y="13" type="line" smooth="yes"/>
      <point x="584" y="136" type="line" smooth="yes"/>
      <point x="621" y="370" type="line" smooth="yes"/>
      <point x="621" y="410" type="line" smooth="yes"/>
      <point x="550" y="703" type="line" smooth="yes"/>
      <point x="333" y="793" type="line" smooth="yes"/>
      <point x="115" y="703" type="line" smooth="yes"/>
      <point x="44" y="410" type="line" smooth="yes"/>
      <point x="44" y="370" type="line" smooth="yes"/>
      <point x="115" y="77" type="line" smooth="yes"/>
    </contour>
  </outline>
</glyph>
<glyph name="R" format="1">
  <advance width="611"/>
  <unicode hex="0052"/>
  <outline>
    <contour>
      <point x="195" y="408" type="line" smooth="yes"/>
      <point x="195" y="663" type="line" smooth="yes"/>
      <point x="310" y="663" type="line" smooth="yes"/>
      <point x="390" y="641" type="line" smooth="yes"/>
      <point x="430" y="541" type="line" smooth="yes"/>
      <point x="430" y="530" type="line" smooth="yes"/>
      <point x="390" y="430" type="line" smooth="yes"/>
      <point x="310" y="408" type="line" smooth="yes"/>
    </contour>
    <contour>
      <point x="195" y="291" type="line" smooth="yes"/>
      <point x="309" y="291" type="line" smooth="yes"/>
      <point x="421" y="0" type="line" smooth="yes"/>
      <point x="566" y="0" type="line" smooth="yes"/>
      <point x="439" y="312" type="line" smooth="yes"/>
      <point x="529" y="383" type="line" smooth="yes"/>
      <point x="566" y="526" type="line" smooth="yes"/>
      <point x="566" y="546" type="line" smooth="yes"/>
      <point x="481" y="737" type="line" smooth="yes"/>
      <point x="305" y="780" type="line" smooth="yes"/>
      <point x="61" y="780" type="line" smooth="yes"/>
      <point x="61" y="0" type="line" smooth="yes"/>
      <point x="195" y="0" type="line" smooth="yes"/>
    </contour>
  </outline>
</glyph>
<glyph name="T" format="1">
  <advance width="544"/>
  <unicode hex="0054"/>
  <outline>
    <contour>
      <point x="339" y="663" type="line" smooth="yes"/>
      <point x="525" y="663" type="line" smooth="yes"/>
      <point x="525" y="780" type="line" smooth="yes"/>
      <point x="19" y="780" type="line" smooth="yes"/>
      <point x="19" y="663" type="line" smooth="yes"/>
      <point x="205" y="663" type="line" smooth="yes"/>
      <point x="205" y="0" type="line" smooth="yes"/>
      <point x="339" y="0" type="line" smooth="yes"/>
    </contour>
  </outline>
</glyph>
<glyph name="underscore" format="1">
  <advance width="320"/>
  <unicode hex="005F"/>
  <outline>
    <contour>
      <point x="44" y="-169" type="line" smooth="yes"/>
      <point x="276" y="-169" type="line" smooth="yes"/>
      <point x="276" y="-55" type="line" smooth="yes"/>
      <point x="44" y="-55" type="line" smooth="yes"/>
    </contour>
  </outline>
</glyph>
<glyph name="b" format="1">
  <advance width="563"/>
  <unicode hex="0062"/>
  <outline>
    <contour>
      <point x="187" y="369" type="line" smooth="yes"/>
      <point x="224" y="409" type="line" smooth="yes"/>
      <point x="291" y="430" type="line" smooth="yes"/>
      <point x="371" y="390" type="line" smooth="yes"/>
      <point x="396" y="281" type="line" smooth="yes"/>
      <point x="396" y="249" type="line" smooth="yes"/>
      <point x="371" y="140" type="line" smooth="yes"/>
      <point x="291" y="101" type="line" smooth="yes"/>
      <point x="224" y="122" type="line" smooth="yes"/>
      <point x="187" y="161" type="line" smooth="yes"/>
    </contour>
    <contour>
      <point x="187" y="800" type="line" smooth="yes"/>
      <point x="57" y="800" type="line" smooth="yes"/>
      <point x="57" y="150" type="line" smooth="yes"/>
      <point x="49" y="0" type="line" smooth="yes"/>
      <point x="164" y="0" type="line" smooth="yes"/>
      <point x="175" y="66" type="line" smooth="yes"/>
      <point x="234" y="10" type="line" smooth="yes"/>
      <point x="328" y="-13" type="line" smooth="yes"/>
      <point x="481" y="61" type="line" smooth="yes"/>
      <point x="526" y="249" type="line" smooth="yes"/>
      <point x="526" y="281" type="line" smooth="yes"/>
      <point x="481" y="469" type="line" smooth="yes"/>
      <point x="328" y="543" type="line" smooth="yes"/>
      <point x="244" y="526" type="line" smooth="yes"/>
      <point x="187" y="481" type="line" smooth="yes"/>
    </contour>
  </outline>
</glyph>
<glyph name="j" format="1">
  <advance width="252"/>
  <unicode hex="006A"/>
  <outline>
    <contour>
      <point x="196" y="763" type="line" smooth="yes"/>
      <point x="54" y="763" type="line" smooth="yes"/>
      <point x="54" y="622" type="line" smooth="yes"/>
      <point x="196" y="622" type="line" smooth="yes"/>
    </contour>
    <contour>
      <point x="60" y="-13" type="line" smooth="yes"/>
      <point x="37" y="-83" type="line" smooth="yes"/>
      <point x="-26" y="-100" type="line" smooth="yes"/>
      <point x="-56" y="-97" type="line" smooth="yes"/>
      <point x="-77" y="-92" type="line" smooth="yes"/>
      <point x="-77" y="-200" type="line" smooth="yes"/>
      <point x="-50" y="-208" type="line" smooth="yes"/>
      <point x="5" y="-213" type="line" smooth="yes"/>
      <point x="138" y="-172" type="line" smooth="yes"/>
      <point x="190" y="-28" type="line" smooth="yes"/>
      <point x="190" y="530" type="line" smooth="yes"/>
      <point x="60" y="530" type="line" smooth="yes"/>
    </contour>
  </outline>
</glyph>
<glyph name="n" format="1">
  <advance width="563"/>
  <unicode hex="006E"/>
  <outline>
    <contour>
      <point x="511" y="0" type="line" smooth="yes"/>
      <point x="511" y="363" type="line" smooth="yes"/>
      <point x="473" y="489" type="line" smooth="yes"/>
      <point x="348" y="543" type="line" smooth="yes"/>
      <point x="243" y="520" type="line" smooth="yes"/>
      <point x="176" y="460" type="line" smooth="yes"/>
      <point x="164" y="530" type="line" smooth="yes"/>
      <point x="49" y="530" type="line" smooth="yes"/>
      <point x="58" y="380" type="line" smooth="yes"/>
      <point x="58" y="0" type="line" smooth="yes"/>
      <point x="188" y="0" type="line" smooth="yes"/>
      <point x="188" y="369" type="line" smooth="yes"/>
      <point x="226" y="409" type="line" smooth="yes"/>
      <point x="298" y="430" type="line" smooth="yes"/>
      <point x="362" y="405" type="line" smooth="yes"/>
      <point x="382" y="342" type="line" smooth="yes"/>
      <point x="382" y="0" type="line" smooth="yes"/>
    </contour>
  </outline>
</glyph>
<glyph name="q" format="1">
  <advance width="568"/>
  <unicode hex="0071"/>
  <outline>
    <contour>
      <point x="378" y="161" type="line" smooth="yes"/>
      <point x="341" y="122" type="line" smooth="yes"/>
      <point x="273" y="101" type="line" smooth="yes"/>
      <point x="193" y="140" type="line" smooth="yes"/>
      <point x="168" y="249" type="line" smooth="yes"/>
      <point x="168" y="281" type="line" smooth="yes"/>
      <point x="193" y="390" type="line" smooth="yes"/>
      <point x="273" y="430" type="line" smooth="yes"/>
      <point x="341" y="409" type="line" smooth="yes"/>
      <point x="378" y="369" type="line" smooth="yes"/>
    </contour>
    <contour>
      <point x="378" y="-200" type="line" smooth="yes"/>
      <point x="508" y="-200" type="line" smooth="yes"/>
      <point x="508" y="380" type="line" smooth="yes"/>
      <point x="516" y="530" type="line" smooth="yes"/>
      <point x="401" y="530" type="line" smooth="yes"/>
      <point x="390" y="463" type="line" smooth="yes"/>
      <point x="331" y="520" type="line" smooth="yes"/>
      <point x="237" y="543" type="line" smooth="yes"/>
      <point x="83" y="469" type="line" smooth="yes"/>
      <point x="38" y="281" type="line" smooth="yes"/>
      <point x="38" y="249" type="line" smooth="yes"/>
      <point x="83" y="61" type="line" smooth="yes"/>
      <point x="237" y="-13" type="line" smooth="yes"/>
      <point x="321" y="5" type="line" smooth="yes"/>
      <point x="378" y="50" type="line" smooth="yes"/>
    </contour>
  </outline>
</glyph>
<glyph name="s" format="1">
  <advance width="526"/>
  <unicode hex="0073"/>
  <outline>
    <contour>
      <point x="263" y="88" type="line" smooth="yes"/>
      <point x="191" y="111" type="line" smooth="yes"/>
      <point x="171" y="166" type="line" smooth="yes"/>
      <point x="42" y="166" type="line" smooth="yes"/>
      <point x="42" y="162" type="line" smooth="yes"/>
      <point x="95" y="39" type="line" smooth="yes"/>
      <point x="263" y="-13" type="line" smooth="yes"/>
      <point x="428" y="34" type="line" smooth="yes"/>
      <point x="484" y="159" type="line" smooth="yes"/>
      <point x="484" y="166" type="line" smooth="yes"/>
      <point x="429" y="277" type="line" smooth="yes"/>
      <point x="274" y="315" type="line" smooth="yes"/>
      <point x="196" y="335" type="line" smooth="yes"/>
      <point x="177" y="379" type="line" smooth="yes"/>
      <point x="199" y="425" type="line" smooth="yes"/>
      <point x="263" y="442" type="line" smooth="yes"/>
      <point x="331" y="419" type="line" smooth="yes"/>
      <point x="351" y="357" type="line" smooth="yes"/>
      <point x="478" y="357" type="line" smooth="yes"/>
      <point x="478" y="362" type="line" smooth="yes"/>
      <point x="428" y="494" type="line" smooth="yes"/>
      <point x="263" y="543" type="line" smooth="yes"/>
      <point x="109" y="502" type="line" smooth="yes"/>
      <point x="49" y="376" type="line" smooth="yes"/>
      <point x="49" y="368" type="line" smooth="yes"/>
      <point x="96" y="265" type="line" smooth="yes"/>
      <point x="253" y="222" type="line" smooth="yes"/>
      <point x="332" y="203" type="line" smooth="yes"/>
      <point x="354" y="154" type="line" smooth="yes"/>
      <point x="332" y="106" type="line" smooth="yes"/>
    </contour>
  </outline>
</glyph>
<glyph name="x" format="1">
  <advance width="535"/>
  <unicode hex="0078"/>
  <outline>
    <contour>
      <point x="19" y="530" type="line" smooth="yes"/>
      <point x="163" y="271" type="line" smooth="yes"/>
      <point x="19" y="0" type="line" smooth="yes"/>
      <point x="167" y="0" type="line" smooth="yes"/>
      <point x="267" y="204" type="line" smooth="yes"/>
      <point x="368" y="0" type="line" smooth="yes"/>
      <point x="516" y="0" type="line" smooth="yes"/>
      <point x="372" y="271" type="line" smooth="yes"/>
      <point x="516" y="530" type="line" smooth="yes"/>
      <point x="365" y="530" type="line" smooth="yes"/>
      <point x="268" y="339" type="line" smooth="yes"/>
      <point x="170" y="530" type="line" smooth="yes"/>
    </contour>
  </outline>
</glyph>
<glyph name="braceleft" format="1">
  <advance width="350"/>
  <unicode hex="007B"/>
  <outline>
    <contour>
      <point x="315" y="840" type="line" smooth="yes"/>
      <point x="290" y="840" type="line" smooth="yes"/>
      <point x="156" y="804" type="line" smooth="yes"/>
      <point x="102" y="674" type="line" smooth="yes"/>
      <point x="102" y="501" type="line" smooth="yes"/>
      <point x="83" y="436" type="line" smooth="yes"/>
      <point x="24" y="418" type="line" smooth="yes"/>
      <point x="24" y="302" type="line" smooth="yes"/>
      <point x="81" y="285" type="line" smooth="yes"/>
      <point x="102" y="226" type="line" smooth="yes"/>
      <point x="102" y="46" type="line" smooth="yes"/>
      <point x="156" y="-84" type="line" smooth="yes"/>
      <point x="290" y="-120" type="line" smooth="yes"/>
      <point x="315" y="-120" type="line" smooth="yes"/>
      <point x="315" y="-5" type="line" smooth="yes"/>
      <point x="254" y="15" type="line" smooth="yes"/>
      <point x="233" y="86" type="line" smooth="yes"/>
      <point x="233" y="248" type="line" smooth="yes"/>
      <point x="217" y="317" type="line" smooth="yes"/>
      <point x="174" y="360" type="line" smooth="yes"/>
      <point x="217" y="402" type="line" smooth="yes"/>
      <point x="233" y="472" type="line" smooth="yes"/>
      <point x="233" y="634" type="line" smooth="yes"/>
      <point x="254" y="705" type="line" smooth="yes"/>
      <point x="315" y="725" type="line" smooth="yes"/>
    </contour>
  </outline>
</glyph>
<glyph name="braceright" format="1">
  <advance width="350"/>
  <unicode hex="007D"/>
  <outline>
    <contour>
      <point x="36" y="-120" type="line" smooth="yes"/>
      <point x="60" y="-120" type="line" smooth="yes"/>
      <point x="195" y="-84" type="line" smooth="yes"/>
      <point x="248" y="46" type="line" smooth="yes"/>
      <point x="248" y="226" type="line" smooth="yes"/>
      <point x="269" y="285" type="line" smooth="yes"/>
      <point x="326" y="302" type="line" smooth="yes"/>
      <point x="326" y="418" type="line" smooth="yes"/>
      <point x="269" y="434" type="line" smooth="yes"/>
      <point x="248" y="494" type="line" smooth="yes"/>
      <point x="248" y="674" type="line" smooth="yes"/>
      <point x="195" y="804" type="line" smooth="yes"/>
      <point x="60" y="840" type="line" smooth="yes"/>
      <point x="36" y="840" type="line" smooth="yes"/>
      <point x="36" y="725" type="line" smooth="yes"/>
      <point x="96" y="705" type="line" smooth="yes"/>
      <point x="117" y="634" type="line" smooth="yes"/>
      <point x="117" y="472" type="line" smooth="yes"/>
      <point x="132" y="402" type="line" smooth="yes"/>
      <point x="175" y="360" type="line" smooth="yes"/>
      <point x="132" y="317" type="line" smooth="yes"/>
      <point x="117" y="248" type="line" smooth="yes"/>
      <point x="117" y="86" type="line" smooth="yes"/>
      <point x="96" y="15" type="line" smooth="yes"/>
      <point x="36" y="-5" type="line" smooth="yes"/>
    </contour>
  </outline>
</glyph>
<glyph name="asciitilde" format="1">
  <advance width="600"/>
  <unicode hex="007E"/>
  <outline>
    <contour>
      <point x="182" y="473" type="line" smooth="yes"/>
      <point x="91" y="445" type="line" smooth="yes"/>
      <point x="31" y="384" type="line" smooth="yes"/>
      <point x="94" y="320" type="line" smooth="yes"/>
      <point x="131" y="353" type="line" smooth="yes"/>
      <point x="186" y="371" type="line" smooth="yes"/>
      <point x="292" y="337" type="line" smooth="yes"/>
      <point x="418" y="303" type="line" smooth="yes"/>
      <point x="509" y="331" type="line" smooth="yes"/>
      <point x="569" y="392" type="line" smooth="yes"/>
      <point x="506" y="456" type="line" smooth="yes"/>
      <point x="469" y="423" type="line" smooth="yes"/>
      <point x="414" y="405" type="line" smooth="yes"/>
      <point x="308" y="439" type="line" smooth="yes"/>
    </contour>
  </outline>
</glyph>
<glyph name="cent" format="1">
  <advance width="600"/>
  <unicode hex="00A2"/>
  <outline>
    <contour>
      <point x="180" y="373" type="line" smooth="yes"/>
      <point x="180" y="407" type="line" smooth="yes"/>
      <point x="207" y="556" type="line" smooth="yes"/>
      <point x="298" y="613" type="line" smooth="yes"/>
      <point x="205" y="227" type="line" smooth="yes"/>
      <point x="186" y="289" type="line" smooth="yes"/>
    </contour>
    <contour>
      <point x="454" y="840" type="line" smooth="yes"/>
      <point x="352" y="840" type="line" smooth="yes"/>
      <point x="325" y="730" type="line" smooth="yes"/>
      <point x="309" y="730" type="line" smooth="yes"/>
      <point x="110" y="648" type="line" smooth="yes"/>
      <point x="46" y="407" type="line" smooth="yes"/>
      <point x="46" y="373" type="line" smooth="yes"/>
      <point x="77" y="191" type="line" smooth="yes"/>
      <point x="171" y="83" type="line" smooth="yes"/>
      <point x="137" y="-60" type="line" smooth="yes"/>
      <point x="239" y="-60" type="line" smooth="yes"/>
      <point x="266" y="54" type="line" smooth="yes"/>
      <point x="287" y="53" type="line" smooth="yes"/>
      <point x="309" y="52" type="line" smooth="yes"/>
      <point x="493" y="110" type="line" smooth="yes"/>
      <point x="554" y="275" type="line" smooth="yes"/>
      <point x="554" y="291" type="line" smooth="yes"/>
      <point x="424" y="291" type="line" smooth="yes"/>
      <point x="399" y="201" type="line" smooth="yes"/>
      <point x="314" y="167" type="line" smooth="yes"/>
      <point x="293" y="167" type="line" smooth="yes"/>
      <point x="393" y="584" type="line" smooth="yes"/>
      <point x="417" y="537" type="line" smooth="yes"/>
      <point x="424" y="470" type="line" smooth="yes"/>
      <point x="554" y="470" type="line" smooth="yes"/>
      <point x="554" y="497" type="line" smooth="yes"/>
      <point x="522" y="633" type="line" smooth="yes"/>
      <point x="423" y="712" type="line" smooth="yes"/>
    </contour>
  </outline>
</glyph>
<glyph name="sterling" format="1">
  <advance width="600"/>
  <unicode hex="00A3"/>
  <outline>
    <contour>
      <point x="324" y="677" type="line" smooth="yes"/>
      <point x="400" y="630" type="line" smooth="yes"/>
      <point x="423" y="500" type="line" smooth="yes"/>
      <point x="554" y="500" type="line" smooth="yes"/>
      <point x="554" y="516" type="line" smooth="yes"/>
      <point x="502" y="721" type="line" smooth="yes"/>
      <point x="324" y="793" type="line" smooth="yes"/>
      <point x="150" y="728" type="line" smooth="yes"/>
      <point x="100" y="581" type="line" smooth="yes"/>
      <point x="106" y="502" type="line" smooth="yes"/>
      <point x="120" y="429" type="line" smooth="yes"/>
      <point x="47" y="429" type="line" smooth="yes"/>
      <point x="47" y="314" type="line" smooth="yes"/>
      <point x="155" y="314" type="line" smooth="yes"/>
      <point x="184" y="219" type="line" smooth="yes"/>
      <point x="204" y="116" type="line" smooth="yes"/>
      <point x="47" y="116" type="line" smooth="yes"/>
      <point x="47" y="0" type="line" smooth="yes"/>
      <point x="553" y="0" type="line" smooth="yes"/>
      <point x="553" y="116" type="line" smooth="yes"/>
      <point x="319" y="116" type="line" smooth="yes"/>
      <point x="307" y="220" type="line" smooth="yes"/>
      <point x="286" y="314" type="line" smooth="yes"/>
      <point x="438" y="314" type="line" smooth="yes"/>
      <point x="438" y="429" type="line" smooth="yes"/>
      <point x="255" y="429" type="line" smooth="yes"/>
      <point x="239" y="502" type="line" smooth="yes"/>
      <point x="232" y="570" type="line" smooth="yes"/>
      <point x="254" y="648" type="line" smooth="yes"/>
    </contour>
  </outline>
</glyph>
<glyph name="section" format="1">
  <advance width="538"/>
  <unicode hex="00A7"/>
  <outline>
    <contour>
      <point x="372" y="390" type="line" smooth="yes"/>
      <point x="348" y="335" type="line" smooth="yes"/>
      <point x="273" y="314" type="line" smooth="yes"/>
      <point x="271" y="314" type="line" smooth="yes"/>
      <point x="190" y="334" type="line" smooth="yes"/>
      <point x="165" y="390" type="line" smooth="yes"/>
      <point x="190" y="445" type="line" smooth="yes"/>
      <point x="265" y="466" type="line" smooth="yes"/>
      <point x="267" y="466" type="line" smooth="yes"/>
      <point x="348" y="446" type="line" smooth="yes"/>
    </contour>
    <contour>
      <point x="503" y="392" type="line" smooth="yes"/>
      <point x="503" y="400" type="line" smooth="yes"/>
      <point x="448" y="518" type="line" smooth="yes"/>
      <point x="293" y="559" type="line" smooth="yes"/>
      <point x="215" y="582" type="line" smooth="yes"/>
      <point x="196" y="629" type="line" smooth="yes"/>
      <point x="218" y="675" type="line" smooth="yes"/>
      <point x="282" y="692" type="line" smooth="yes"/>
      <point x="350" y="669" type="line" smooth="yes"/>
      <point x="369" y="607" type="line" smooth="yes"/>
      <point x="497" y="607" type="line" smooth="yes"/>
      <point x="497" y="611" type="line" smooth="yes"/>
      <point x="447" y="744" type="line" smooth="yes"/>
      <point x="282" y="793" type="line" smooth="yes"/>
      <point x="128" y="752" type="line" smooth="yes"/>
      <point x="67" y="626" type="line" smooth="yes"/>
      <point x="67" y="618" type="line" smooth="yes"/>
      <point x="77" y="559" type="line" smooth="yes"/>
      <point x="109" y="514" type="line" smooth="yes"/>
      <point x="53" y="464" type="line" smooth="yes"/>
      <point x="34" y="388" type="line" smooth="yes"/>
      <point x="34" y="380" type="line" smooth="yes"/>
      <point x="90" y="262" type="line" smooth="yes"/>
      <point x="245" y="221" type="line" smooth="yes"/>
      <point x="323" y="198" type="line" smooth="yes"/>
      <point x="342" y="151" type="line" smooth="yes"/>
      <point x="320" y="105" type="line" smooth="yes"/>
      <point x="256" y="88" type="line" smooth="yes"/>
      <point x="188" y="111" type="line" smooth="yes"/>
      <point x="168" y="173" type="line" smooth="yes"/>
      <point x="41" y="173" type="line" smooth="yes"/>
      <point x="41" y="169" type="line" smooth="yes"/>
      <point x="91" y="36" type="line" smooth="yes"/>
      <point x="256" y="-13" type="line" smooth="yes"/>
      <point x="410" y="28" type="line" smooth="yes"/>
      <point x="470" y="154" type="line" smooth="yes"/>
      <point x="470" y="162" type="line" smooth="yes"/>
      <point x="460" y="220" type="line" smooth="yes"/>
      <point x="428" y="265" type="line" smooth="yes"/>
      <point x="484" y="315" type="line" smooth="yes"/>
    </contour>
  </outline>
</glyph>
<glyph name="ordfeminine" format="1">
  <advance width="416"/>
  <unicode hex="00AA"/>
  <outline>
    <contour>
      <point x="193" y="470" type="line" smooth="yes"/>
      <point x="156" y="483" type="line" smooth="yes"/>
      <point x="145" y="512" type="line" smooth="yes"/>
      <point x="145" y="517" type="line" smooth="yes"/>
      <point x="158" y="549" type="line" smooth="yes"/>
      <point x="195" y="566" type="line" smooth="yes"/>
      <point x="266" y="577" type="line" smooth="yes"/>
      <point x="266" y="502" type="line" smooth="yes"/>
      <point x="238" y="481" type="line" smooth="yes"/>
    </contour>
    <contour>
      <point x="385" y="191" type="line" smooth="yes"/>
      <point x="385" y="290" type="line" smooth="yes"/>
      <point x="42" y="290" type="line" smooth="yes"/>
      <point x="42" y="191" type="line" smooth="yes"/>
    </contour>
    <contour>
      <point x="285" y="387" type="line" smooth="yes"/>
      <point x="387" y="387" type="line" smooth="yes"/>
      <point x="380" y="499" type="line" smooth="yes"/>
      <point x="380" y="642" type="line" smooth="yes"/>
      <point x="345" y="753" type="line" smooth="yes"/>
      <point x="213" y="793" type="line" smooth="yes"/>
      <point x="81" y="752" type="line" smooth="yes"/>
      <point x="46" y="659" type="line" smooth="yes"/>
      <point x="46" y="652" type="line" smooth="yes"/>
      <point x="154" y="652" type="line" smooth="yes"/>
      <point x="165" y="690" type="line" smooth="yes"/>
      <point x="210" y="706" type="line" smooth="yes"/>
      <point x="253" y="691" type="line" smooth="yes"/>
      <point x="266" y="644" type="line" smooth="yes"/>
      <point x="173" y="630" type="line" smooth="yes"/>
      <point x="71" y="594" type="line" smooth="yes"/>
      <point x="31" y="503" type="line" smooth="yes"/>
      <point x="31" y="496" type="line" smooth="yes"/>
      <point x="59" y="413" type="line" smooth="yes"/>
      <point x="153" y="378" type="line" smooth="yes"/>
      <point x="226" y="393" type="line" smooth="yes"/>
      <point x="277" y="431" type="line" smooth="yes"/>
    </contour>
  </outline>
</glyph>
<glyph name="degree" format="1">
  <advance width="400"/>
  <unicode hex="00B0"/>
  <outline>
    <contour>
      <point x="359" y="634" type="line" smooth="yes"/>
      <point x="314" y="750" type="line" smooth="yes"/>
      <point x="200" y="793" type="line" smooth="yes"/>
      <point x="86" y="750" type="line" smooth="yes"/>
      <point x="41" y="634" type="line" smooth="yes"/>
      <point x="41" y="630" type="line" smooth="yes"/>
      <point x="86" y="514" type="line" smooth="yes"/>
      <point x="200" y="472" type="line" smooth="yes"/>
      <point x="314" y="514" type="line" smooth="yes"/>
      <point x="359" y="630" type="line" smooth="yes"/>
    </contour>
    <contour>
      <point x="277" y="629" type="line" smooth="yes"/>
      <point x="255" y="575" type="line" smooth="yes"/>
      <point x="202" y="555" type="line" smooth="yes"/>
      <point x="198" y="555" type="line" smooth="yes"/>
      <point x="145" y="575" type="line" smooth="yes"/>
      <point x="123" y="629" type="line" smooth="yes"/>
      <point x="123" y="635" type="line" smooth="yes"/>
      <point x="145" y="689" type="line" smooth="yes"/>
      <point x="198" y="709" type="line" smooth="yes"/>
      <point x="202" y="709" type="line" smooth="yes"/>
      <point x="255" y="689" type="line" smooth="yes"/>
      <point x="277" y="635" type="line" smooth="yes"/>
    </contour>
  </outline>
</glyph>
<glyph name="twosuperior" format="1">
  <advance width="300"/>
  <unicode hex="00B2"/>
  <outline>
    <contour>
      <point x="281" y="476" type="line" smooth="yes"/>
      <point x="157" y="476" type="line" smooth="yes"/>
      <point x="238" y="565" type="line" smooth="yes"/>
      <point x="269" y="609" type="line" smooth="yes"/>
      <point x="281" y="666" type="line" smooth="yes"/>
      <point x="281" y="677" type="line" smooth="yes"/>
      <point x="254" y="749" type="line" smooth="yes"/>
      <point x="150" y="787" type="line" smooth="yes"/>
      <point x="51" y="755" type="line" smooth="yes"/>
      <point x="19" y="659" type="line" smooth="yes"/>
      <point x="19" y="650" type="line" smooth="yes"/>
      <point x="119" y="650" type="line" smooth="yes"/>
      <point x="127" y="689" type="line" smooth="yes"/>
      <point x="147" y="700" type="line" smooth="yes"/>
      <point x="152" y="700" type="line" smooth="yes"/>
      <point x="173" y="690" type="line" smooth="yes"/>
      <point x="181" y="658" type="line" smooth="yes"/>
      <point x="181" y="653" type="line" smooth="yes"/>
      <point x="176" y="630" type="line" smooth="yes"/>
      <point x="161" y="612" type="line" smooth="yes"/>
      <point x="19" y="453" type="line" smooth="yes"/>
      <point x="19" y="390" type="line" smooth="yes"/>
      <point x="281" y="390" type="line" smooth="yes"/>
    </contour>
  </outline>
</glyph>
<glyph name="threesuperior" format="1">
  <advance width="300"/>
  <unicode hex="00B3"/>
  <outline>
    <contour>
      <point x="116" y="515" type="line" smooth="yes"/>
      <point x="16" y="515" type="line" smooth="yes"/>
      <point x="16" y="507" type="line" smooth="yes"/>
      <point x="50" y="415" type="line" smooth="yes"/>
      <point x="150" y="382" type="line" smooth="yes"/>
      <point x="255" y="423" type="line" smooth="yes"/>
      <point x="283" y="496" type="line" smooth="yes"/>
      <point x="283" y="506" type="line" smooth="yes"/>
      <point x="271" y="557" type="line" smooth="yes"/>
      <point x="240" y="589" type="line" smooth="yes"/>
      <point x="269" y="622" type="line" smooth="yes"/>
      <point x="281" y="672" type="line" smooth="yes"/>
      <point x="281" y="682" type="line" smooth="yes"/>
      <point x="254" y="750" type="line" smooth="yes"/>
      <point x="150" y="787" type="line" smooth="yes"/>
      <point x="51" y="755" type="line" smooth="yes"/>
      <point x="19" y="659" type="line" smooth="yes"/>
      <point x="19" y="650" type="line" smooth="yes"/>
      <point x="119" y="650" type="line" smooth="yes"/>
      <point x="127" y="689" type="line" smooth="yes"/>
      <point x="147" y="700" type="line" smooth="yes"/>
      <point x="152" y="700" type="line" smooth="yes"/>
      <point x="173" y="692" type="line" smooth="yes"/>
      <point x="181" y="671" type="line" smooth="yes"/>
      <point x="181" y="665" type="line" smooth="yes"/>
      <point x="174" y="641" type="line" smooth="yes"/>
      <point x="151" y="633" type="line" smooth="yes"/>
      <point x="100" y="633" type="line" smooth="yes"/>
      <point x="100" y="545" type="line" smooth="yes"/>
      <point x="152" y="545" type="line" smooth="yes"/>
      <point x="176" y="537" type="line" smooth="yes"/>
      <point x="184" y="513" type="line" smooth="yes"/>
      <point x="184" y="508" type="line" smooth="yes"/>
      <point x="174" y="478" type="line" smooth="yes"/>
      <point x="152" y="469" type="line" smooth="yes"/>
      <point x="147" y="469" type="line" smooth="yes"/>
      <point x="126" y="478" type="line" smooth="yes"/>
    </contour>
  </outline>
</glyph>
<glyph name="acute" format="1">
  <advance width="500"/>
  <unicode hex="00B4"/>
  <outline>
    <contour>
      <point x="276" y="780" type="line" smooth="yes"/>
      <point x="185" y="601" type="line" smooth="yes"/>
      <point x="315" y="601" type="line" smooth="yes"/>
      <point x="418" y="780" type="line" smooth="yes"/>
    </contour>
  </outline>
</glyph>
<glyph name="paragraph" format="1">
  <advance width="538"/>
  <unicode hex="00B6"/>
  <outline>
    <contour>
      <point x="163" y="530" type="line" smooth="yes"/>
      <point x="163" y="541" type="line" smooth="yes"/>
      <point x="185" y="622" type="line" smooth="yes"/>
      <point x="236" y="656" type="line" smooth="yes"/>
      <point x="236" y="414" type="line" smooth="yes"/>
      <point x="185" y="448" type="line" smooth="yes"/>
    </contour>
    <contour>
      <point x="236" y="0" type="line" smooth="yes"/>
      <point x="300" y="0" type="line" smooth="yes"/>
      <point x="300" y="663" type="line" smooth="yes"/>
      <point x="346" y="663" type="line" smooth="yes"/>
      <point x="346" y="0" type="line" smooth="yes"/>
      <point x="480" y="0" type="line" smooth="yes"/>
      <point x="480" y="780" type="line" smooth="yes"/>
      <point x="288" y="780" type="line" smooth="yes"/>
      <point x="112" y="737" type="line" smooth="yes"/>
      <point x="27" y="546" type="line" smooth="yes"/>
      <point x="27" y="526" type="line" smooth="yes"/>
      <point x="91" y="350" type="line" smooth="yes"/>
      <point x="236" y="293" type="line" smooth="yes"/>
    </contour>
  </outline>
</glyph>
<glyph name="cedilla" format="1">
  <advance width="602"/>
  <unicode hex="00B8"/>
  <outline>
    <contour>
      <point x="150" y="-190" type="line" smooth="yes"/>
      <point x="191" y="-207" type="line" smooth="yes"/>
      <point x="252" y="-214" type="line" smooth="yes"/>
      <point x="337" y="-193" type="line" smooth="yes"/>
      <point x="366" y="-129" type="line" smooth="yes"/>
      <point x="336" y="-67" type="line" smooth="yes"/>
      <point x="266" y="-45" type="line" smooth="yes"/>
      <point x="283" y="0" type="line" smooth="yes"/>
      <point x="217" y="0" type="line" smooth="yes"/>
      <point x="188" y="-75" type="line" smooth="yes"/>
      <point x="205" y="-101" type="line" smooth="yes"/>
      <point x="216" y="-99" type="line" smooth="yes"/>
      <point x="239" y="-97" type="line" smooth="yes"/>
      <point x="279" y="-103" type="line" smooth="yes"/>
      <point x="292" y="-122" type="line" smooth="yes"/>
      <point x="280" y="-141" type="line" smooth="yes"/>
      <point x="241" y="-147" type="line" smooth="yes"/>
      <point x="202" y="-143" type="line" smooth="yes"/>
      <point x="170" y="-131" type="line" smooth="yes"/>
    </contour>
  </outline>
</glyph>
<glyph name="ordmasculine" format="1">
  <advance width="435"/>
  <unicode hex="00BA"/>
  <outline>
    <contour>
      <point x="148" y="572" type="line" smooth="yes"/>
      <point x="148" y="599" type="line" smooth="yes"/>
      <point x="165" y="669" type="line" smooth="yes"/>
      <point x="218" y="694" type="line" smooth="yes"/>
      <point x="271" y="669" type="line" smooth="yes"/>
      <point x="287" y="599" type="line" smooth="yes"/>
      <point x="287" y="572" type="line" smooth="yes"/>
      <point x="271" y="502" type="line" smooth="yes"/>
      <point x="218" y="476" type="line" smooth="yes"/>
      <point x="165" y="502" type="line" smooth="yes"/>
    </contour>
    <contour>
      <point x="43" y="191" type="line" smooth="yes"/>
      <point x="393" y="191" type="line" smooth="yes"/>
      <point x="393" y="290" type="line" smooth="yes"/>
      <point x="43" y="290" type="line" smooth="yes"/>
    </contour>
    <contour>
      <point x="401" y="572" type="line" smooth="yes"/>
      <point x="401" y="599" type="line" smooth="yes"/>
      <point x="357" y="739" type="line" smooth="yes"/>
      <point x="218" y="793" type="line" smooth="yes"/>
      <point x="78" y="739" type="line" smooth="yes"/>
      <point x="34" y="599" type="line" smooth="yes"/>
      <point x="34" y="572" type="line" smooth="yes"/>
      <point x="78" y="432" type="line" smooth="yes"/>
      <point x="218" y="378" type="line" smooth="yes"/>
      <point x="357" y="432" type="line" smooth="yes"/>
    </contour>
  </outline>
</glyph>
<glyph name="onequarter" format="1">
  <advance width="800"/>
  <unicode hex="00BC"/>
  <outline>
    <contour>
      <point x="656" y="232" type="line" smooth="yes"/>
      <point x="655" y="214" type="line" smooth="yes"/>
      <point x="655" y="164" type="line" smooth="yes"/>
      <point x="631" y="164" type="line" smooth="yes"/>
      <point x="613" y="162" type="line" smooth="yes"/>
    </contour>
    <contour>
      <point x="287" y="390" type="line" smooth="yes"/>
      <point x="287" y="476" type="line" smooth="yes"/>
      <point x="209" y="476" type="line" smooth="yes"/>
      <point x="209" y="779" type="line" smooth="yes"/>
      <point x="133" y="779" type="line" smooth="yes"/>
      <point x="11" y="697" type="line" smooth="yes"/>
      <point x="61" y="626" type="line" smooth="yes"/>
      <point x="109" y="658" type="line" smooth="yes"/>
      <point x="109" y="476" type="line" smooth="yes"/>
      <point x="30" y="476" type="line" smooth="yes"/>
      <point x="30" y="390" type="line" smooth="yes"/>
    </contour>
    <contour>
      <point x="755" y="0" type="line" smooth="yes"/>
      <point x="755" y="76" type="line" smooth="yes"/>
      <point x="787" y="76" type="line" smooth="yes"/>
      <point x="787" y="164" type="line" smooth="yes"/>
      <point x="755" y="164" type="line" smooth="yes"/>
      <point x="755" y="390" type="line" smooth="yes"/>
      <point x="661" y="390" type="line" smooth="yes"/>
      <point x="512" y="147" type="line" smooth="yes"/>
      <point x="512" y="76" type="line" smooth="yes"/>
      <point x="655" y="76" type="line" smooth="yes"/>
      <point x="655" y="0" type="line" smooth="yes"/>
    </contour>
    <contour>
      <point x="164" y="0" type="line" smooth="yes"/>
      <point x="740" y="780" type="line" smooth="yes"/>
      <point x="636" y="780" type="line" smooth="yes"/>
      <point x="60" y="0" type="line" smooth="yes"/>
    </contour>
  </outline>
</glyph>
<glyph name="onehalf" format="1">
  <advance width="800"/>
  <unicode hex="00BD"/>
  <outline>
    <contour>
      <point x="287" y="390" type="line" smooth="yes"/>
      <point x="287" y="476" type="line" smooth="yes"/>
      <point x="209" y="476" type="line" smooth="yes"/>
      <point x="209" y="779" type="line" smooth="yes"/>
      <point x="133" y="779" type="line" smooth="yes"/>
      <point x="11" y="697" type="line" smooth="yes"/>
      <point x="61" y="626" type="line" smooth="yes"/>
      <point x="109" y="658" type="line" smooth="yes"/>
      <point x="109" y="476" type="line" smooth="yes"/>
      <point x="30" y="476" type="line" smooth="yes"/>
      <point x="30" y="390" type="line" smooth="yes"/>
    </contour>
    <contour>
      <point x="781" y="86" type="line" smooth="yes"/>
      <point x="657" y="86" type="line" smooth="yes"/>
      <point x="738" y="175" type="line" smooth="yes"/>
      <point x="769" y="219" type="line" smooth="yes"/>
      <point x="781" y="276" type="line" smooth="yes"/>
      <point x="781" y="287" type="line" smooth="yes"/>
      <point x="754" y="359" type="line" smooth="yes"/>
      <point x="650" y="397" type="line" smooth="yes"/>
      <point x="551" y="365" type="line" smooth="yes"/>
      <point x="519" y="269" type="line" smooth="yes"/>
      <point x="519" y="260" type="line" smooth="yes"/>
      <point x="619" y="260" type="line" smooth="yes"/>
      <point x="627" y="299" type="line" smooth="yes"/>
      <point x="647" y="310" type="line" smooth="yes"/>
      <point x="652" y="310" type="line" smooth="yes"/>
      <point x="673" y="300" type="line" smooth="yes"/>
      <point x="681" y="268" type="line" smooth="yes"/>
      <point x="681" y="263" type="line" smooth="yes"/>
      <point x="676" y="240" type="line" smooth="yes"/>
      <point x="661" y="222" type="line" smooth="yes"/>
      <point x="519" y="63" type="line" smooth="yes"/>
      <point x="519" y="0" type="line" smooth="yes"/>
      <point x="781" y="0" type="line" smooth="yes"/>
    </contour>
    <contour>
      <point x="164" y="0" type="line" smooth="yes"/>
      <point x="740" y="780" type="line" smooth="yes"/>
      <point x="636" y="780" type="line" smooth="yes"/>
      <point x="60" y="0" type="line" smooth="yes"/>
    </contour>
  </outline>
</glyph>
<glyph name="threequarters" format="1">
  <advance width="800"/>
  <unicode hex="00BE"/>
  <outline>
    <contour>
      <point x="656" y="232" type="line" smooth="yes"/>
      <point x="655" y="214" type="line" smooth="yes"/>
      <point x="655" y="164" type="line" smooth="yes"/>
      <point x="631" y="164" type="line" smooth="yes"/>
      <point x="613" y="162" type="line" smooth="yes"/>
    </contour>
    <contour>
      <point x="755" y="0" type="line" smooth="yes"/>
      <point x="755" y="76" type="line" smooth="yes"/>
      <point x="787" y="76" type="line" smooth="yes"/>
      <point x="787" y="164" type="line" smooth="yes"/>
      <point x="755" y="164" type="line" smooth="yes"/>
      <point x="755" y="390" type="line" smooth="yes"/>
      <point x="661" y="390" type="line" smooth="yes"/>
      <point x="512" y="147" type="line" smooth="yes"/>
      <point x="512" y="76" type="line" smooth="yes"/>
      <point x="655" y="76" type="line" smooth="yes"/>
      <point x="655" y="0" type="line" smooth="yes"/>
    </contour>
    <contour>
      <point x="116" y="515" type="line" smooth="yes"/>
      <point x="16" y="515" type="line" smooth="yes"/>
      <point x="16" y="507" type="line" smooth="yes"/>
      <point x="50" y="415" type="line" smooth="yes"/>
      <point x="150" y="382" type="line" smooth="yes"/>
      <point x="255" y="423" type="line" smooth="yes"/>
      <point x="283" y="496" type="line" smooth="yes"/>
      <point x="283" y="506" type="line" smooth="yes"/>
      <point x="271" y="557" type="line" smooth="yes"/>
      <point x="240" y="589" type="line" smooth="yes"/>
      <point x="269" y="622" type="line" smooth="yes"/>
      <point x="281" y="672" type="line" smooth="yes"/>
      <point x="281" y="682" type="line" smooth="yes"/>
      <point x="254" y="750" type="line" smooth="yes"/>
      <point x="150" y="787" type="line" smooth="yes"/>
      <point x="51" y="755" type="line" smooth="yes"/>
      <point x="19" y="659" type="line" smooth="yes"/>
      <point x="19" y="650" type="line" smooth="yes"/>
      <point x="119" y="650" type="line" smooth="yes"/>
      <point x="127" y="689" type="line" smooth="yes"/>
      <point x="147" y="700" type="line" smooth="yes"/>
      <point x="152" y="700" type="line" smooth="yes"/>
      <point x="173" y="692" type="line" smooth="yes"/>
      <point x="181" y="671" type="line" smooth="yes"/>
      <point x="181" y="665" type="line" smooth="yes"/>
      <point x="174" y="641" type="line" smooth="yes"/>
      <point x="151" y="633" type="line" smooth="yes"/>
      <point x="100" y="633" type="line" smooth="yes"/>
      <point x="100" y="545" type="line" smooth="yes"/>
      <point x="152" y="545" type="line" smooth="yes"/>
      <point x="176" y="537" type="line" smooth="yes"/>
      <point x="184" y="513" type="line" smooth="yes"/>
      <point x="184" y="508" type="line" smooth="yes"/>
      <point x="174" y="478" type="line" smooth="yes"/>
      <point x="152" y="469" type="line" smooth="yes"/>
      <point x="147" y="469" type="line" smooth="yes"/>
      <point x="126" y="478" type="line" smooth="yes"/>
    </contour>
    <contour>
      <point x="164" y="0" type="line" smooth="yes"/>
      <point x="740" y="780" type="line" smooth="yes"/>
      <point x="636" y="780" type="line" smooth="yes"/>
      <point x="60" y="0" type="line" smooth="yes"/>
    </contour>
  </outline>
</glyph>
<glyph name="questiondown" format="1">
  <advance width="484"/>
  <unicode hex="00BF"/>
  <outline>
    <contour>
      <point x="174" y="389" type="line" smooth="yes"/>
      <point x="316" y="389" type="line" smooth="yes"/>
      <point x="316" y="530" type="line" smooth="yes"/>
      <point x="174" y="530" type="line" smooth="yes"/>
    </contour>
    <contour>
      <point x="238" y="-97" type="line" smooth="yes"/>
      <point x="173" y="-75" type="line" smooth="yes"/>
      <point x="154" y="-16" type="line" smooth="yes"/>
      <point x="227" y="126" type="line" smooth="yes"/>
      <point x="290" y="314" type="line" smooth="yes"/>
      <point x="200" y="314" type="line" smooth="yes"/>
      <point x="106" y="157" type="line" smooth="yes"/>
      <point x="21" y="-27" type="line" smooth="yes"/>
      <point x="69" y="-156" type="line" smooth="yes"/>
      <point x="238" y="-213" type="line" smooth="yes"/>
      <point x="413" y="-144" type="line" smooth="yes"/>
      <point x="461" y="44" type="line" smooth="yes"/>
      <point x="461" y="60" type="line" smooth="yes"/>
      <point x="329" y="60" type="line" smooth="yes"/>
      <point x="310" y="-58" type="line" smooth="yes"/>
    </contour>
  </outline>
</glyph>
<glyph name="Aring" format="1">
  <advance width="631"/>
  <unicode hex="00C5"/>
  <outline>
    <contour>
      <point x="264" y="861" type="line" smooth="yes"/>
      <point x="279" y="898" type="line" smooth="yes"/>
      <point x="316" y="913" type="line" smooth="yes"/>
      <point x="353" y="898" type="line" smooth="yes"/>
      <point x="368" y="861" type="line" smooth="yes"/>
      <point x="353" y="824" type="line" smooth="yes"/>
      <point x="316" y="808" type="line" smooth="yes"/>
      <point x="279" y="824" type="line" smooth="yes"/>
    </contour>
    <contour>
      <point x="316" y="631" type="line" smooth="yes"/>
      <point x="397" y="295" type="line" smooth="yes"/>
      <point x="234" y="295" type="line" smooth="yes"/>
    </contour>
    <contour>
      <point x="214" y="861" type="line" smooth="yes"/>
      <point x="224" y="818" type="line" smooth="yes"/>
      <point x="249" y="784" type="line" smooth="yes"/>
      <point x="223" y="784" type="line" smooth="yes"/>
      <point x="18" y="0" type="line" smooth="yes"/>
      <point x="163" y="0" type="line" smooth="yes"/>
      <point x="206" y="178" type="line" smooth="yes"/>
      <point x="426" y="178" type="line" smooth="yes"/>
      <point x="469" y="0" type="line" smooth="yes"/>
      <point x="613" y="0" type="line" smooth="yes"/>
      <point x="408" y="784" type="line" smooth="yes"/>
      <point x="382" y="784" type="line" smooth="yes"/>
      <point x="408" y="818" type="line" smooth="yes"/>
      <point x="418" y="861" type="line" smooth="yes"/>
      <point x="388" y="933" type="line" smooth="yes"/>
      <point x="316" y="963" type="line" smooth="yes"/>
      <point x="244" y="933" type="line" smooth="yes"/>
    </contour>
  </outline>
</glyph>
<glyph name="Ccedilla" format="1">
  <advance width="640"/>
  <unicode hex="00C7"/>
  <outline>
    <contour>
      <point x="237" y="-190" type="line" smooth="yes"/>
      <point x="278" y="-207" type="line" smooth="yes"/>
      <point x="339" y="-214" type="line" smooth="yes"/>
      <point x="424" y="-193" type="line" smooth="yes"/>
      <point x="453" y="-129" type="line" smooth="yes"/>
      <point x="423" y="-67" type="line" smooth="yes"/>
      <point x="353" y="-45" type="line" smooth="yes"/>
      <point x="365" y="-11" type="line" smooth="yes"/>
      <point x="540" y="61" type="line" smooth="yes"/>
      <point x="598" y="253" type="line" smooth="yes"/>
      <point x="598" y="263" type="line" smooth="yes"/>
      <point x="463" y="263" type="line" smooth="yes"/>
      <point x="434" y="147" type="line" smooth="yes"/>
      <point x="337" y="104" type="line" smooth="yes"/>
      <point x="328" y="104" type="line" smooth="yes"/>
      <point x="213" y="171" type="line" smooth="yes"/>
      <point x="181" y="370" type="line" smooth="yes"/>
      <point x="181" y="410" type="line" smooth="yes"/>
      <point x="213" y="609" type="line" smooth="yes"/>
      <point x="328" y="676" type="line" smooth="yes"/>
      <point x="337" y="676" type="line" smooth="yes"/>
      <point x="436" y="628" type="line" smooth="yes"/>
      <point x="463" y="487" type="line" smooth="yes"/>
      <point x="598" y="487" type="line" smooth="yes"/>
      <point x="598" y="521" type="line" smooth="yes"/>
      <point x="531" y="728" type="line" smooth="yes"/>
      <point x="329" y="793" type="line" smooth="yes"/>
      <point x="113" y="703" type="line" smooth="yes"/>
      <point x="44" y="410" type="line" smooth="yes"/>
      <point x="44" y="370" type="line" smooth="yes"/>
      <point x="106" y="87" type="line" smooth="yes"/>
      <point x="299" y="-12" type="line" smooth="yes"/>
      <point x="275" y="-75" type="line" smooth="yes"/>
      <point x="292" y="-101" type="line" smooth="yes"/>
      <point x="303" y="-99" type="line" smooth="yes"/>
      <point x="326" y="-97" type="line" smooth="yes"/>
      <point x="366" y="-103" type="line" smooth="yes"/>
      <point x="379" y="-122" type="line" smooth="yes"/>
      <point x="367" y="-141" type="line" smooth="yes"/>
      <point x="328" y="-147" type="line" smooth="yes"/>
      <point x="289" y="-143" type="line" smooth="yes"/>
      <point x="257" y="-131" type="line" smooth="yes"/>
    </contour>
  </outline>
</glyph>
<glyph name="Eth" format="1">
  <advance width="715"/>
  <unicode hex="00D0"/>
  <outline>
    <contour>
      <point x="255" y="663" type="line" smooth="yes"/>
      <point x="343" y="663" type="line" smooth="yes"/>
      <point x="491" y="603" type="line" smooth="yes"/>
      <point x="534" y="410" type="line" smooth="yes"/>
      <point x="534" y="370" type="line" smooth="yes"/>
      <point x="491" y="178" type="line" smooth="yes"/>
      <point x="343" y="117" type="line" smooth="yes"/>
      <point x="255" y="117" type="line" smooth="yes"/>
      <point x="255" y="348" type="line" smooth="yes"/>
      <point x="435" y="348" type="line" smooth="yes"/>
      <point x="435" y="450" type="line" smooth="yes"/>
      <point x="255" y="450" type="line" smooth="yes"/>
    </contour>
    <contour>
      <point x="14" y="348" type="line" smooth="yes"/>
      <point x="121" y="348" type="line" smooth="yes"/>
      <point x="121" y="0" type="line" smooth="yes"/>
      <point x="351" y="0" type="line" smooth="yes"/>
      <point x="593" y="84" type="line" smooth="yes"/>
      <point x="671" y="370" type="line" smooth="yes"/>
      <point x="671" y="410" type="line" smooth="yes"/>
      <point x="593" y="696" type="line" smooth="yes"/>
      <point x="351" y="780" type="line" smooth="yes"/>
      <point x="121" y="780" type="line" smooth="yes"/>
      <point x="121" y="450" type="line" smooth="yes"/>
      <point x="14" y="450" type="line" smooth="yes"/>
    </contour>
  </outline>
</glyph>
<glyph name="Otilde" format="1">
  <advance width="665"/>
  <unicode hex="00D5"/>
  <outline>
    <contour>
      <point x="434" y="943" type="line" smooth="yes"/>
      <point x="424" y="915" type="line" smooth="yes"/>
      <point x="399" y="907" type="line" smooth="yes"/>
      <point x="336" y="932" type="line" smooth="yes"/>
      <point x="254" y="957" type="line" smooth="yes"/>
      <point x="187" y="932" type="line" smooth="yes"/>
      <point x="159" y="847" type="line" smooth="yes"/>
      <point x="232" y="847" type="line" smooth="yes"/>
      <point x="242" y="875" type="line" smooth="yes"/>
      <point x="267" y="883" type="line" smooth="yes"/>
      <point x="330" y="858" type="line" smooth="yes"/>
      <point x="412" y="833" type="line" smooth="yes"/>
      <point x="479" y="858" type="line" smooth="yes"/>
      <point x="507" y="943" type="line" smooth="yes"/>
    </contour>
    <contour>
      <point x="328" y="104" type="line" smooth="yes"/>
      <point x="214" y="171" type="line" smooth="yes"/>
      <point x="181" y="370" type="line" smooth="yes"/>
      <point x="181" y="410" type="line" smooth="yes"/>
      <point x="214" y="609" type="line" smooth="yes"/>
      <point x="328" y="676" type="line" smooth="yes"/>
      <point x="337" y="676" type="line" smooth="yes"/>
      <point x="451" y="609" type="line" smooth="yes"/>
      <point x="484" y="410" type="line" smooth="yes"/>
      <point x="484" y="370" type="line" smooth="yes"/>
      <point x="451" y="171" type="line" smooth="yes"/>
      <point x="337" y="104" type="line" smooth="yes"/>
    </contour>
    <contour>
      <point x="333" y="-13" type="line" smooth="yes"/>
      <point x="550" y="77" type="line" smooth="yes"/>
      <point x="621" y="370" type="line" smooth="yes"/>
      <point x="621" y="410" type="line" smooth="yes"/>
      <point x="550" y="703" type="line" smooth="yes"/>
      <point x="333" y="793" type="line" smooth="yes"/>
      <point x="115" y="703" type="line" smooth="yes"/>
      <point x="44" y="410" type="line" smooth="yes"/>
      <point x="44" y="370" type="line" smooth="yes"/>
      <point x="115" y="77" type="line" smooth="yes"/>
    </contour>
  </outline>
</glyph>
<glyph name="Odieresis" format="1">
  <advance width="665"/>
  <unicode hex="00D6"/>
  <outline>
    <contour>
      <point x="476" y="941" type="line" smooth="yes"/>
      <point x="359" y="941" type="line" smooth="yes"/>
      <point x="359" y="849" type="line" smooth="yes"/>
      <point x="476" y="849" type="line" smooth="yes"/>
    </contour>
    <contour>
      <point x="307" y="941" type="line" smooth="yes"/>
      <point x="190" y="941" type="line" smooth="yes"/>
      <point x="190" y="849" type="line" smooth="yes"/>
      <point x="307" y="849" type="line" smooth="yes"/>
    </contour>
    <contour>
      <point x="328" y="104" type="line" smooth="yes"/>
      <point x="214" y="171" type="line" smooth="yes"/>
      <point x="181" y="370" type="line" smooth="yes"/>
      <point x="181" y="410" type="line" smooth="yes"/>
      <point x="214" y="609" type="line" smooth="yes"/>
      <point x="328" y="676" type="line" smooth="yes"/>
      <point x="337" y="676" type="line" smooth="yes"/>
      <point x="451" y="609" type="line" smooth="yes"/>
      <point x="484" y="410" type="line" smooth="yes"/>
      <point x="484" y="370" type="line" smooth="yes"/>
      <point x="451" y="171" type="line" smooth="yes"/>
      <point x="337" y="104" type="line" smooth="yes"/>
    </contour>
    <contour>
      <point x="333" y="-13" type="line" smooth="yes"/>
      <point x="550" y="77" type="line" smooth="yes"/>
      <point x="621" y="370" type="line" smooth="yes"/>
      <point x="621" y="410" type="line" smooth="yes"/>
      <point x="550" y="703" type="line" smooth="yes"/>
      <point x="333" y="793" type="line" smooth="yes"/>
      <point x="115" y="703" type="line" smooth="yes"/>
      <point x="44" y="410" type="line" smooth="yes"/>
      <point x="44" y="370" type="line" smooth="yes"/>
      <point x="115" y="77" type="line" smooth="yes"/>
    </contour>
  </outline>
</glyph>
<glyph name="Oslash" format="1">
  <advance width="660"/>
  <unicode hex="00D8"/>
  <outline>
    <contour>
      <point x="181" y="370" type="line" smooth="yes"/>
      <point x="181" y="410" type="line" smooth="yes"/>
      <point x="214" y="609" type="line" smooth="yes"/>
      <point x="328" y="676" type="line" smooth="yes"/>
      <point x="337" y="676" type="line" smooth="yes"/>
      <point x="396" y="664" type="line" smooth="yes"/>
      <point x="438" y="629" type="line" smooth="yes"/>
      <point x="191" y="237" type="line" smooth="yes"/>
      <point x="183" y="298" type="line" smooth="yes"/>
    </contour>
    <contour>
      <point x="484" y="410" type="line" smooth="yes"/>
      <point x="484" y="370" type="line" smooth="yes"/>
      <point x="451" y="171" type="line" smooth="yes"/>
      <point x="337" y="104" type="line" smooth="yes"/>
      <point x="328" y="104" type="line" smooth="yes"/>
      <point x="267" y="116" type="line" smooth="yes"/>
      <point x="224" y="153" type="line" smooth="yes"/>
      <point x="472" y="548" type="line" smooth="yes"/>
      <point x="481" y="485" type="line" smooth="yes"/>
    </contour>
    <contour>
      <point x="44" y="410" type="line" smooth="yes"/>
      <point x="44" y="370" type="line" smooth="yes"/>
      <point x="58" y="210" type="line" smooth="yes"/>
      <point x="102" y="95" type="line" smooth="yes"/>
      <point x="43" y="0" type="line" smooth="yes"/>
      <point x="128" y="0" type="line" smooth="yes"/>
      <point x="152" y="39" type="line" smooth="yes"/>
      <point x="232" y="-1" type="line" smooth="yes"/>
      <point x="333" y="-13" type="line" smooth="yes"/>
      <point x="550" y="77" type="line" smooth="yes"/>
      <point x="621" y="370" type="line" smooth="yes"/>
      <point x="621" y="410" type="line" smooth="yes"/>
      <point x="606" y="573" type="line" smooth="yes"/>
      <point x="560" y="688" type="line" smooth="yes"/>
      <point x="618" y="780" type="line" smooth="yes"/>
      <point x="533" y="780" type="line" smooth="yes"/>
      <point x="510" y="743" type="line" smooth="yes"/>
      <point x="432" y="781" type="line" smooth="yes"/>
      <point x="333" y="793" type="line" smooth="yes"/>
      <point x="115" y="703" type="line" smooth="yes"/>
    </contour>
  </outline>
</glyph>
<glyph name="Uacute" format="1">
  <advance width="655"/>
  <unicode hex="00DA"/>
  <outline>
    <contour>
      <point x="319" y="950" type="line" smooth="yes"/>
      <point x="263" y="840" type="line" smooth="yes"/>
      <point x="393" y="840" type="line" smooth="yes"/>
      <point x="456" y="950" type="line" smooth="yes"/>
    </contour>
    <contour>
      <point x="328" y="-13" type="line" smooth="yes"/>
      <point x="537" y="50" type="line" smooth="yes"/>
      <point x="599" y="245" type="line" smooth="yes"/>
      <point x="599" y="780" type="line" smooth="yes"/>
      <point x="465" y="780" type="line" smooth="yes"/>
      <point x="465" y="250" type="line" smooth="yes"/>
      <point x="434" y="138" type="line" smooth="yes"/>
      <point x="328" y="104" type="line" smooth="yes"/>
      <point x="221" y="138" type="line" smooth="yes"/>
      <point x="190" y="250" type="line" smooth="yes"/>
      <point x="190" y="780" type="line" smooth="yes"/>
      <point x="56" y="780" type="line" smooth="yes"/>
      <point x="56" y="245" type="line" smooth="yes"/>
      <point x="118" y="50" type="line" smooth="yes"/>
    </contour>
  </outline>
</glyph>
<glyph name="Thorn" format="1">
  <advance width="598"/>
  <unicode hex="00DE"/>
  <outline>
    <contour>
      <point x="195" y="263" type="line" smooth="yes"/>
      <point x="195" y="517" type="line" smooth="yes"/>
      <point x="310" y="517" type="line" smooth="yes"/>
      <point x="390" y="495" type="line" smooth="yes"/>
      <point x="430" y="395" type="line" smooth="yes"/>
      <point x="430" y="385" type="line" smooth="yes"/>
      <point x="390" y="285" type="line" smooth="yes"/>
      <point x="310" y="263" type="line" smooth="yes"/>
    </contour>
    <contour>
      <point x="195" y="780" type="line" smooth="yes"/>
      <point x="61" y="780" type="line" smooth="yes"/>
      <point x="61" y="0" type="line" smooth="yes"/>
      <point x="195" y="0" type="line" smooth="yes"/>
      <point x="195" y="146" type="line" smooth="yes"/>
      <point x="305" y="146" type="line" smooth="yes"/>
      <point x="481" y="188" type="line" smooth="yes"/>
      <point x="566" y="380" type="line" smooth="yes"/>
      <point x="566" y="400" type="line" smooth="yes"/>
      <point x="481" y="592" type="line" smooth="yes"/>
      <point x="305" y="634" type="line" smooth="yes"/>
      <point x="195" y="634" type="line" smooth="yes"/>
    </contour>
  </outline>
</glyph>
<glyph name="germandbls" format="1">
  <advance width="613"/>
  <unicode hex="00DF"/>
  <outline>
    <contour>
      <point x="278" y="346" type="line" smooth="yes"/>
      <point x="365" y="286" type="line" smooth="yes"/>
      <point x="438" y="223" type="line" smooth="yes"/>
      <point x="460" y="162" type="line" smooth="yes"/>
      <point x="450" y="111" type="line" smooth="yes"/>
      <point x="398" y="88" type="line" smooth="yes"/>
      <point x="354" y="111" type="line" smooth="yes"/>
      <point x="343" y="166" type="line" smooth="yes"/>
      <point x="229" y="166" type="line" smooth="yes"/>
      <point x="229" y="159" type="line" smooth="yes"/>
      <point x="262" y="36" type="line" smooth="yes"/>
      <point x="395" y="-13" type="line" smooth="yes"/>
      <point x="550" y="42" type="line" smooth="yes"/>
      <point x="590" y="163" type="line" smooth="yes"/>
      <point x="590" y="170" type="line" smooth="yes"/>
      <point x="553" y="281" type="line" smooth="yes"/>
      <point x="446" y="376" type="line" smooth="yes"/>
      <point x="414" y="397" type="line" smooth="yes"/>
      <point x="496" y="480" type="line" smooth="yes"/>
      <point x="524" y="590" type="line" smooth="yes"/>
      <point x="524" y="599" type="line" smooth="yes"/>
      <point x="467" y="750" type="line" smooth="yes"/>
      <point x="289" y="813" type="line" smooth="yes"/>
      <point x="108" y="751" type="line" smooth="yes"/>
      <point x="54" y="598" type="line" smooth="yes"/>
      <point x="54" y="0" type="line" smooth="yes"/>
      <point x="184" y="0" type="line" smooth="yes"/>
      <point x="184" y="591" type="line" smooth="yes"/>
      <point x="208" y="667" type="line" smooth="yes"/>
      <point x="289" y="699" type="line" smooth="yes"/>
      <point x="370" y="668" type="line" smooth="yes"/>
      <point x="394" y="585" type="line" smooth="yes"/>
      <point x="364" y="496" type="line" smooth="yes"/>
      <point x="278" y="428" type="line" smooth="yes"/>
    </contour>
  </outline>
</glyph>
<glyph name="atilde" format="1">
  <advance width="538"/>
  <unicode hex="00E3"/>
  <outline>
    <contour>
      <point x="239" y="94" type="line" smooth="yes"/>
      <point x="182" y="114" type="line" smooth="yes"/>
      <point x="164" y="159" type="line" smooth="yes"/>
      <point x="164" y="167" type="line" smooth="yes"/>
      <point x="183" y="217" type="line" smooth="yes"/>
      <point x="243" y="243" type="line" smooth="yes"/>
      <point x="354" y="261" type="line" smooth="yes"/>
      <point x="354" y="149" type="line" smooth="yes"/>
      <point x="313" y="113" type="line" smooth="yes"/>
    </contour>
    <contour>
      <point x="367" y="764" type="line" smooth="yes"/>
      <point x="358" y="734" type="line" smooth="yes"/>
      <point x="334" y="725" type="line" smooth="yes"/>
      <point x="268" y="752" type="line" smooth="yes"/>
      <point x="183" y="778" type="line" smooth="yes"/>
      <point x="111" y="745" type="line" smooth="yes"/>
      <point x="82" y="636" type="line" smooth="yes"/>
      <point x="171" y="636" type="line" smooth="yes"/>
      <point x="180" y="666" type="line" smooth="yes"/>
      <point x="204" y="675" type="line" smooth="yes"/>
      <point x="271" y="649" type="line" smooth="yes"/>
      <point x="355" y="622" type="line" smooth="yes"/>
      <point x="427" y="656" type="line" smooth="yes"/>
      <point x="456" y="764" type="line" smooth="yes"/>
    </contour>
    <contour>
      <point x="377" y="0" type="line" smooth="yes"/>
      <point x="492" y="0" type="line" smooth="yes"/>
      <point x="484" y="150" type="line" smooth="yes"/>
      <point x="484" y="342" type="line" smooth="yes"/>
      <point x="438" y="489" type="line" smooth="yes"/>
      <point x="269" y="543" type="line" smooth="yes"/>
      <point x="98" y="487" type="line" smooth="yes"/>
      <point x="54" y="364" type="line" smooth="yes"/>
      <point x="54" y="355" type="line" smooth="yes"/>
      <point x="178" y="355" type="line" smooth="yes"/>
      <point x="195" y="416" type="line" smooth="yes"/>
      <point x="266" y="442" type="line" smooth="yes"/>
      <point x="335" y="417" type="line" smooth="yes"/>
      <point x="354" y="342" type="line" smooth="yes"/>
      <point x="354" y="340" type="line" smooth="yes"/>
      <point x="219" y="319" type="line" smooth="yes"/>
      <point x="88" y="274" type="line" smooth="yes"/>
      <point x="34" y="153" type="line" smooth="yes"/>
      <point x="34" y="143" type="line" smooth="yes"/>
      <point x="72" y="33" type="line" smooth="yes"/>
      <point x="194" y="-13" type="line" smooth="yes"/>
      <point x="296" y="8" type="line" smooth="yes"/>
      <point x="367" y="61" type="line" smooth="yes"/>
    </contour>
  </outline>
</glyph>
<glyph name="aring" format="1">
  <advance width="538"/>
  <unicode hex="00E5"/>
  <outline>
    <contour>
      <point x="217" y="691" type="line" smooth="yes"/>
      <point x="232" y="728" type="line" smooth="yes"/>
      <point x="269" y="743" type="line" smooth="yes"/>
      <point x="306" y="728" type="line" smooth="yes"/>
      <point x="321" y="691" type="line" smooth="yes"/>
      <point x="306" y="654" type="line" smooth="yes"/>
      <point x="269" y="638" type="line" smooth="yes"/>
      <point x="232" y="654" type="line" smooth="yes"/>
    </contour>
    <contour>
      <point x="239" y="94" type="line" smooth="yes"/>
      <point x="182" y="114" type="line" smooth="yes"/>
      <point x="164" y="159" type="line" smooth="yes"/>
      <point x="164" y="167" type="line" smooth="yes"/>
      <point x="183" y="217" type="line" smooth="yes"/>
      <point x="243" y="243" type="line" smooth="yes"/>
      <point x="354" y="261" type="line" smooth="yes"/>
      <point x="354" y="149" type="line" smooth="yes"/>
      <point x="313" y="113" type="line" smooth="yes"/>
    </contour>
    <contour>
      <point x="167" y="691" type="line" smooth="yes"/>
      <point x="197" y="619" type="line" smooth="yes"/>
      <point x="269" y="589" type="line" smooth="yes"/>
      <point x="341" y="619" type="line" smooth="yes"/>
      <point x="371" y="691" type="line" smooth="yes"/>
      <point x="341" y="763" type="line" smooth="yes"/>
      <point x="269" y="793" type="line" smooth="yes"/>
      <point x="197" y="763" type="line" smooth="yes"/>
    </contour>
    <contour>
      <point x="377" y="0" type="line" smooth="yes"/>
      <point x="492" y="0" type="line" smooth="yes"/>
      <point x="484" y="150" type="line" smooth="yes"/>
      <point x="484" y="342" type="line" smooth="yes"/>
      <point x="438" y="489" type="line" smooth="yes"/>
      <point x="269" y="543" type="line" smooth="yes"/>
      <point x="98" y="487" type="line" smooth="yes"/>
      <point x="54" y="364" type="line" smooth="yes"/>
      <point x="54" y="355" type="line" smooth="yes"/>
      <point x="178" y="355" type="line" smooth="yes"/>
      <point x="195" y="416" type="line" smooth="yes"/>
      <point x="266" y="442" type="line" smooth="yes"/>
      <point x="335" y="417" type="line" smooth="yes"/>
      <point x="354" y="342" type="line" smooth="yes"/>
      <point x="354" y="340" type="line" smooth="yes"/>
      <point x="219" y="319" type="line" smooth="yes"/>
      <point x="88" y="274" type="line" smooth="yes"/>
      <point x="34" y="153" type="line" smooth="yes"/>
      <point x="34" y="143" type="line" smooth="yes"/>
      <point x="72" y="33" type="line" smooth="yes"/>
      <point x="194" y="-13" type="line" smooth="yes"/>
      <point x="296" y="8" type="line" smooth="yes"/>
      <point x="367" y="61" type="line" smooth="yes"/>
    </contour>
  </outline>
</glyph>
<glyph name="ae" format="1">
  <advance width="863"/>
  <unicode hex="00E6"/>
  <outline>
    <contour>
      <point x="594" y="442" type="line" smooth="yes"/>
      <point x="673" y="409" type="line" smooth="yes"/>
      <point x="703" y="313" type="line" smooth="yes"/>
      <point x="484" y="313" type="line" smooth="yes"/>
      <point x="515" y="409" type="line" smooth="yes"/>
    </contour>
    <contour>
      <point x="360" y="155" type="line" smooth="yes"/>
      <point x="321" y="115" type="line" smooth="yes"/>
      <point x="239" y="91" type="line" smooth="yes"/>
      <point x="182" y="111" type="line" smooth="yes"/>
      <point x="164" y="156" type="line" smooth="yes"/>
      <point x="164" y="164" type="line" smooth="yes"/>
      <point x="183" y="214" type="line" smooth="yes"/>
      <point x="244" y="240" type="line" smooth="yes"/>
      <point x="354" y="258" type="line" smooth="yes"/>
      <point x="354" y="252" type="line" smooth="yes"/>
      <point x="357" y="204" type="line" smooth="yes"/>
      <point x="365" y="159" type="line" smooth="yes"/>
    </contour>
    <contour>
      <point x="834" y="217" type="line" smooth="yes"/>
      <point x="834" y="278" type="line" smooth="yes"/>
      <point x="777" y="467" type="line" smooth="yes"/>
      <point x="596" y="543" type="line" smooth="yes"/>
      <point x="500" y="524" type="line" smooth="yes"/>
      <point x="434" y="474" type="line" smooth="yes"/>
      <point x="375" y="525" type="line" smooth="yes"/>
      <point x="269" y="543" type="line" smooth="yes"/>
      <point x="98" y="487" type="line" smooth="yes"/>
      <point x="54" y="364" type="line" smooth="yes"/>
      <point x="54" y="355" type="line" smooth="yes"/>
      <point x="178" y="355" type="line" smooth="yes"/>
      <point x="195" y="416" type="line" smooth="yes"/>
      <point x="266" y="442" type="line" smooth="yes"/>
      <point x="335" y="417" type="line" smooth="yes"/>
      <point x="354" y="342" type="line" smooth="yes"/>
      <point x="354" y="340" type="line" smooth="yes"/>
      <point x="221" y="319" type="line" smooth="yes"/>
      <point x="89" y="274" type="line" smooth="yes"/>
      <point x="34" y="153" type="line" smooth="yes"/>
      <point x="34" y="143" type="line" smooth="yes"/>
      <point x="74" y="33" type="line" smooth="yes"/>
      <point x="203" y="-13" type="line" smooth="yes"/>
      <point x="320" y="10" type="line" smooth="yes"/>
      <point x="409" y="69" type="line" smooth="yes"/>
      <point x="487" y="9" type="line" smooth="yes"/>
      <point x="602" y="-13" type="line" smooth="yes"/>
      <point x="775" y="41" type="line" smooth="yes"/>
      <point x="834" y="166" type="line" smooth="yes"/>
      <point x="834" y="170" type="line" smooth="yes"/>
      <point x="711" y="170" type="line" smooth="yes"/>
      <point x="684" y="114" type="line" smooth="yes"/>
      <point x="603" y="88" type="line" smooth="yes"/>
      <point x="517" y="120" type="line" smooth="yes"/>
      <point x="484" y="217" type="line" smooth="yes"/>
    </contour>
  </outline>
</glyph>
<glyph name="ccedilla" format="1">
  <advance width="525"/>
  <unicode hex="00E7"/>
  <outline>
    <contour>
      <point x="173" y="-190" type="line" smooth="yes"/>
      <point x="214" y="-207" type="line" smooth="yes"/>
      <point x="275" y="-214" type="line" smooth="yes"/>
      <point x="360" y="-193" type="line" smooth="yes"/>
      <point x="389" y="-129" type="line" smooth="yes"/>
      <point x="359" y="-67" type="line" smooth="yes"/>
      <point x="289" y="-45" type="line" smooth="yes"/>
      <point x="301" y="-11" type="line" smooth="yes"/>
      <point x="444" y="49" type="line" smooth="yes"/>
      <point x="490" y="172" type="line" smooth="yes"/>
      <point x="490" y="193" type="line" smooth="yes"/>
      <point x="367" y="193" type="line" smooth="yes"/>
      <point x="345" y="128" type="line" smooth="yes"/>
      <point x="273" y="101" type="line" smooth="yes"/>
      <point x="191" y="141" type="line" smooth="yes"/>
      <point x="166" y="249" type="line" smooth="yes"/>
      <point x="166" y="281" type="line" smooth="yes"/>
      <point x="191" y="390" type="line" smooth="yes"/>
      <point x="273" y="430" type="line" smooth="yes"/>
      <point x="344" y="402" type="line" smooth="yes"/>
      <point x="367" y="328" type="line" smooth="yes"/>
      <point x="490" y="328" type="line" smooth="yes"/>
      <point x="490" y="350" type="line" smooth="yes"/>
      <point x="436" y="487" type="line" smooth="yes"/>
      <point x="270" y="543" type="line" smooth="yes"/>
      <point x="92" y="469" type="line" smooth="yes"/>
      <point x="36" y="281" type="line" smooth="yes"/>
      <point x="36" y="249" type="line" smooth="yes"/>
      <point x="84" y="72" type="line" smooth="yes"/>
      <point x="235" y="-11" type="line" smooth="yes"/>
      <point x="211" y="-75" type="line" smooth="yes"/>
      <point x="228" y="-101" type="line" smooth="yes"/>
      <point x="239" y="-99" type="line" smooth="yes"/>
      <point x="262" y="-97" type="line" smooth="yes"/>
      <point x="302" y="-103" type="line" smooth="yes"/>
      <point x="315" y="-122" type="line" smooth="yes"/>
      <point x="303" y="-141" type="line" smooth="yes"/>
      <point x="264" y="-147" type="line" smooth="yes"/>
      <point x="225" y="-143" type="line" smooth="yes"/>
      <point x="193" y="-131" type="line" smooth="yes"/>
    </contour>
  </outline>
</glyph>
<glyph name="egrave" format="1">
  <advance width="553"/>
  <unicode hex="00E8"/>
  <outline>
    <contour>
      <point x="276" y="442" type="line" smooth="yes"/>
      <point x="356" y="409" type="line" smooth="yes"/>
      <point x="385" y="313" type="line" smooth="yes"/>
      <point x="166" y="313" type="line" smooth="yes"/>
      <point x="197" y="409" type="line" smooth="yes"/>
    </contour>
    <contour>
      <point x="111" y="780" type="line" smooth="yes"/>
      <point x="214" y="601" type="line" smooth="yes"/>
      <point x="344" y="601" type="line" smooth="yes"/>
      <point x="253" y="780" type="line" smooth="yes"/>
    </contour>
    <contour>
      <point x="516" y="217" type="line" smooth="yes"/>
      <point x="516" y="278" type="line" smooth="yes"/>
      <point x="459" y="467" type="line" smooth="yes"/>
      <point x="279" y="543" type="line" smooth="yes"/>
      <point x="96" y="467" type="line" smooth="yes"/>
      <point x="36" y="278" type="line" smooth="yes"/>
      <point x="36" y="252" type="line" smooth="yes"/>
      <point x="96" y="63" type="line" smooth="yes"/>
      <point x="284" y="-13" type="line" smooth="yes"/>
      <point x="457" y="41" type="line" smooth="yes"/>
      <point x="516" y="166" type="line" smooth="yes"/>
      <point x="516" y="170" type="line" smooth="yes"/>
      <point x="393" y="170" type="line" smooth="yes"/>
      <point x="366" y="114" type="line" smooth="yes"/>
      <point x="285" y="88" type="line" smooth="yes"/>
      <point x="200" y="120" type="line" smooth="yes"/>
      <point x="166" y="217" type="line" smooth="yes"/>
    </contour>
  </outline>
</glyph>
<glyph name="edieresis" format="1">
  <advance width="553"/>
  <unicode hex="00EB"/>
  <outline>
    <contour>
      <point x="250" y="763" type="line" smooth="yes"/>
      <point x="108" y="763" type="line" smooth="yes"/>
      <point x="108" y="622" type="line" smooth="yes"/>
      <point x="250" y="622" type="line" smooth="yes"/>
    </contour>
    <contour>
      <point x="450" y="763" type="line" smooth="yes"/>
      <point x="308" y="763" type="line" smooth="yes"/>
      <point x="308" y="622" type="line" smooth="yes"/>
      <point x="450" y="622" type="line" smooth="yes"/>
    </contour>
    <contour>
      <point x="276" y="442" type="line" smooth="yes"/>
      <point x="356" y="409" type="line" smooth="yes"/>
      <point x="385" y="313" type="line" smooth="yes"/>
      <point x="166" y="313" type="line" smooth="yes"/>
      <point x="197" y="409" type="line" smooth="yes"/>
    </contour>
    <contour>
      <point x="516" y="217" type="line" smooth="yes"/>
      <point x="516" y="278" type="line" smooth="yes"/>
      <point x="459" y="467" type="line" smooth="yes"/>
      <point x="279" y="543" type="line" smooth="yes"/>
      <point x="96" y="467" type="line" smooth="yes"/>
      <point x="36" y="278" type="line" smooth="yes"/>
      <point x="36" y="252" type="line" smooth="yes"/>
      <point x="96" y="63" type="line" smooth="yes"/>
      <point x="284" y="-13" type="line" smooth="yes"/>
      <point x="457" y="41" type="line" smooth="yes"/>
      <point x="516" y="166" type="line" smooth="yes"/>
      <point x="516" y="170" type="line" smooth="yes"/>
      <point x="393" y="170" type="line" smooth="yes"/>
      <point x="366" y="114" type="line" smooth="yes"/>
      <point x="285" y="88" type="line" smooth="yes"/>
      <point x="200" y="120" type="line" smooth="yes"/>
      <point x="166" y="217" type="line" smooth="yes"/>
    </contour>
  </outline>
</glyph>
<glyph name="icircumflex" format="1">
  <advance width="250"/>
  <unicode hex="00EE"/>
  <outline>
    <contour>
      <point x="47" y="601" type="line" smooth="yes"/>
      <point x="125" y="693" type="line" smooth="yes"/>
      <point x="203" y="601" type="line" smooth="yes"/>
      <point x="320" y="601" type="line" smooth="yes"/>
      <point x="187" y="780" type="line" smooth="yes"/>
      <point x="63" y="780" type="line" smooth="yes"/>
      <point x="-70" y="601" type="line" smooth="yes"/>
    </contour>
    <contour>
      <point x="60" y="0" type="line" smooth="yes"/>
      <point x="190" y="0" type="line" smooth="yes"/>
      <point x="190" y="530" type="line" smooth="yes"/>
      <point x="60" y="530" type="line" smooth="yes"/>
    </contour>
  </outline>
</glyph>
<glyph name="eth" format="1">
  <advance width="553"/>
  <unicode hex="00F0"/>
  <outline>
    <contour>
      <point x="276" y="101" type="line" smooth="yes"/>
      <point x="193" y="141" type="line" smooth="yes"/>
      <point x="166" y="249" type="line" smooth="yes"/>
      <point x="166" y="281" type="line" smooth="yes"/>
      <point x="193" y="390" type="line" smooth="yes"/>
      <point x="276" y="430" type="line" smooth="yes"/>
      <point x="360" y="390" type="line" smooth="yes"/>
      <point x="386" y="281" type="line" smooth="yes"/>
      <point x="386" y="249" type="line" smooth="yes"/>
      <point x="360" y="141" type="line" smooth="yes"/>
    </contour>
    <contour>
      <point x="36" y="696" type="line" smooth="yes"/>
      <point x="103" y="686" type="line" smooth="yes"/>
      <point x="165" y="670" type="line" smooth="yes"/>
      <point x="68" y="615" type="line" smooth="yes"/>
      <point x="68" y="536" type="line" smooth="yes"/>
      <point x="243" y="634" type="line" smooth="yes"/>
      <point x="276" y="611" type="line" smooth="yes"/>
      <point x="306" y="583" type="line" smooth="yes"/>
      <point x="328" y="556" type="line" smooth="yes"/>
      <point x="346" y="526" type="line" smooth="yes"/>
      <point x="305" y="539" type="line" smooth="yes"/>
      <point x="258" y="543" type="line" smooth="yes"/>
      <point x="92" y="469" type="line" smooth="yes"/>
      <point x="36" y="281" type="line" smooth="yes"/>
      <point x="36" y="249" type="line" smooth="yes"/>
      <point x="94" y="61" type="line" smooth="yes"/>
      <point x="276" y="-13" type="line" smooth="yes"/>
      <point x="458" y="61" type="line" smooth="yes"/>
      <point x="516" y="249" type="line" smooth="yes"/>
      <point x="516" y="281" type="line" smooth="yes"/>
      <point x="495" y="474" type="line" smooth="yes"/>
      <point x="407" y="657" type="line" smooth="yes"/>
      <point x="386" y="680" type="line" smooth="yes"/>
      <point x="363" y="702" type="line" smooth="yes"/>
      <point x="420" y="734" type="line" smooth="yes"/>
      <point x="420" y="813" type="line" smooth="yes"/>
      <point x="300" y="746" type="line" smooth="yes"/>
      <point x="176" y="793" type="line" smooth="yes"/>
      <point x="36" y="813" type="line" smooth="yes"/>
    </contour>
  </outline>
</glyph>
<glyph name="ntilde" format="1">
  <advance width="563"/>
  <unicode hex="00F1"/>
  <outline>
    <contour>
      <point x="383" y="764" type="line" smooth="yes"/>
      <point x="374" y="734" type="line" smooth="yes"/>
      <point x="350" y="725" type="line" smooth="yes"/>
      <point x="284" y="752" type="line" smooth="yes"/>
      <point x="199" y="778" type="line" smooth="yes"/>
      <point x="127" y="745" type="line" smooth="yes"/>
      <point x="98" y="636" type="line" smooth="yes"/>
      <point x="187" y="636" type="line" smooth="yes"/>
      <point x="196" y="666" type="line" smooth="yes"/>
      <point x="220" y="675" type="line" smooth="yes"/>
      <point x="287" y="649" type="line" smooth="yes"/>
      <point x="371" y="622" type="line" smooth="yes"/>
      <point x="443" y="656" type="line" smooth="yes"/>
      <point x="472" y="764" type="line" smooth="yes"/>
    </contour>
    <contour>
      <point x="511" y="0" type="line" smooth="yes"/>
      <point x="511" y="363" type="line" smooth="yes"/>
      <point x="473" y="489" type="line" smooth="yes"/>
      <point x="348" y="543" type="line" smooth="yes"/>
      <point x="243" y="520" type="line" smooth="yes"/>
      <point x="176" y="460" type="line" smooth="yes"/>
      <point x="164" y="530" type="line" smooth="yes"/>
      <point x="49" y="530" type="line" smooth="yes"/>
      <point x="58" y="380" type="line" smooth="yes"/>
      <point x="58" y="0" type="line" smooth="yes"/>
      <point x="188" y="0" type="line" smooth="yes"/>
      <point x="188" y="369" type="line" smooth="yes"/>
      <point x="226" y="409" type="line" smooth="yes"/>
      <point x="298" y="430" type="line" smooth="yes"/>
      <point x="362" y="405" type="line" smooth="yes"/>
      <point x="382" y="342" type="line" smooth="yes"/>
      <point x="382" y="0" type="line" smooth="yes"/>
    </contour>
  </outline>
</glyph>
<glyph name="ocircumflex" format="1">
  <advance width="553"/>
  <unicode hex="00F4"/>
  <outline>
    <contour>
      <point x="198" y="601" type="line" smooth="yes"/>
      <point x="276" y="693" type="line" smooth="yes"/>
      <point x="354" y="601" type="line" smooth="yes"/>
      <point x="471" y="601" type="line" smooth="yes"/>
      <point x="338" y="780" type="line" smooth="yes"/>
      <point x="214" y="780" type="line" smooth="yes"/>
      <point x="81" y="601" type="line" smooth="yes"/>
    </contour>
    <contour>
      <point x="276" y="101" type="line" smooth="yes"/>
      <point x="193" y="141" type="line" smooth="yes"/>
      <point x="166" y="249" type="line" smooth="yes"/>
      <point x="166" y="281" type="line" smooth="yes"/>
      <point x="193" y="390" type="line" smooth="yes"/>
      <point x="276" y="430" type="line" smooth="yes"/>
      <point x="360" y="390" type="line" smooth="yes"/>
      <point x="386" y="281" type="line" smooth="yes"/>
      <point x="386" y="249" type="line" smooth="yes"/>
      <point x="360" y="141" type="line" smooth="yes"/>
    </contour>
    <contour>
      <point x="276" y="-13" type="line" smooth="yes"/>
      <point x="458" y="61" type="line" smooth="yes"/>
      <point x="516" y="249" type="line" smooth="yes"/>
      <point x="516" y="281" type="line" smooth="yes"/>
      <point x="458" y="469" type="line" smooth="yes"/>
      <point x="276" y="543" type="line" smooth="yes"/>
      <point x="94" y="469" type="line" smooth="yes"/>
      <point x="36" y="281" type="line" smooth="yes"/>
      <point x="36" y="249" type="line" smooth="yes"/>
      <point x="94" y="61" type="line" smooth="yes"/>
    </contour>
  </outline>
</glyph>
<glyph name="otilde" format="1">
  <advance width="553"/>
  <unicode hex="00F5"/>
  <outline>
    <contour>
      <point x="374" y="764" type="line" smooth="yes"/>
      <point x="365" y="734" type="line" smooth="yes"/>
      <point x="341" y="725" type="line" smooth="yes"/>
      <point x="275" y="752" type="line" smooth="yes"/>
      <point x="190" y="778" type="line" smooth="yes"/>
      <point x="118" y="745" type="line" smooth="yes"/>
      <point x="89" y="636" type="line" smooth="yes"/>
      <point x="178" y="636" type="line" smooth="yes"/>
      <point x="187" y="666" type="line" smooth="yes"/>
      <point x="211" y="675" type="line" smooth="yes"/>
      <point x="278" y="649" type="line" smooth="yes"/>
      <point x="362" y="622" type="line" smooth="yes"/>
      <point x="434" y="656" type="line" smooth="yes"/>
      <point x="463" y="764" type="line" smooth="yes"/>
    </contour>
    <contour>
      <point x="276" y="101" type="line" smooth="yes"/>
      <point x="193" y="141" type="line" smooth="yes"/>
      <point x="166" y="249" type="line" smooth="yes"/>
      <point x="166" y="281" type="line" smooth="yes"/>
      <point x="193" y="390" type="line" smooth="yes"/>
      <point x="276" y="430" type="line" smooth="yes"/>
      <point x="360" y="390" type="line" smooth="yes"/>
      <point x="386" y="281" type="line" smooth="yes"/>
      <point x="386" y="249" type="line" smooth="yes"/>
      <point x="360" y="141" type="line" smooth="yes"/>
    </contour>
    <contour>
      <point x="276" y="-13" type="line" smooth="yes"/>
      <point x="458" y="61" type="line" smooth="yes"/>
      <point x="516" y="249" type="line" smooth="yes"/>
      <point x="516" y="281" type="line" smooth="yes"/>
      <point x="458" y="469" type="line" smooth="yes"/>
      <point x="276" y="543" type="line" smooth="yes"/>
      <point x="94" y="469" type="line" smooth="yes"/>
      <point x="36" y="281" type="line" smooth="yes"/>
      <point x="36" y="249" type="line" smooth="yes"/>
      <point x="94" y="61" type="line" smooth="yes"/>
    </contour>
  </outline>
</glyph>
<glyph name="ucircumflex" format="1">
  <advance width="563"/>
  <unicode hex="00FB"/>
  <outline>
    <contour>
      <point x="200" y="601" type="line" smooth="yes"/>
      <point x="278" y="693" type="line" smooth="yes"/>
      <point x="356" y="601" type="line" smooth="yes"/>
      <point x="473" y="601" type="line" smooth="yes"/>
      <point x="340" y="780" type="line" smooth="yes"/>
      <point x="216" y="780" type="line" smooth="yes"/>
      <point x="83" y="601" type="line" smooth="yes"/>
    </contour>
    <contour>
      <point x="52" y="530" type="line" smooth="yes"/>
      <point x="52" y="168" type="line" smooth="yes"/>
      <point x="90" y="41" type="line" smooth="yes"/>
      <point x="215" y="-13" type="line" smooth="yes"/>
      <point x="320" y="11" type="line" smooth="yes"/>
      <point x="387" y="70" type="line" smooth="yes"/>
      <point x="399" y="0" type="line" smooth="yes"/>
      <point x="514" y="0" type="line" smooth="yes"/>
      <point x="506" y="150" type="line" smooth="yes"/>
      <point x="506" y="530" type="line" smooth="yes"/>
      <point x="376" y="530" type="line" smooth="yes"/>
      <point x="376" y="161" type="line" smooth="yes"/>
      <point x="338" y="122" type="line" smooth="yes"/>
      <point x="266" y="101" type="line" smooth="yes"/>
      <point x="201" y="125" type="line" smooth="yes"/>
      <point x="181" y="188" type="line" smooth="yes"/>
      <point x="181" y="530" type="line" smooth="yes"/>
    </contour>
  </outline>
</glyph>
<glyph name="thorn" format="1">
  <advance width="563"/>
  <unicode hex="00FE"/>
  <outline>
    <contour>
      <point x="187" y="161" type="line" smooth="yes"/>
      <point x="187" y="369" type="line" smooth="yes"/>
      <point x="224" y="409" type="line" smooth="yes"/>
      <point x="291" y="430" type="line" smooth="yes"/>
      <point x="371" y="390" type="line" smooth="yes"/>
      <point x="396" y="281" type="line" smooth="yes"/>
      <point x="396" y="249" type="line" smooth="yes"/>
      <point x="371" y="140" type="line" smooth="yes"/>
      <point x="291" y="101" type="line" smooth="yes"/>
      <point x="224" y="122" type="line" smooth="yes"/>
    </contour>
    <contour>
      <point x="56" y="800" type="line" smooth="yes"/>
      <point x="56" y="-200" type="line" smooth="yes"/>
      <point x="186" y="-200" type="line" smooth="yes"/>
      <point x="186" y="50" type="line" smooth="yes"/>
      <point x="243" y="5" type="line" smooth="yes"/>
      <point x="328" y="-13" type="line" smooth="yes"/>
      <point x="481" y="61" type="line" smooth="yes"/>
      <point x="526" y="249" type="line" smooth="yes"/>
      <point x="526" y="281" type="line" smooth="yes"/>
      <point x="481" y="469" type="line" smooth="yes"/>
      <point x="328" y="543" type="line" smooth="yes"/>
      <point x="243" y="525" type="line" smooth="yes"/>
      <point x="186" y="479" type="line" smooth="yes"/>
      <point x="186" y="800" type="line" smooth="yes"/>
    </contour>
  </outline>
</glyph>
<glyph name="Abreve" format="1">
  <advance width="631"/>
  <unicode hex="0102"/>
  <outline>
    <contour>
      <point x="316" y="631" type="line" smooth="yes"/>
      <point x="397" y="295" type="line" smooth="yes"/>
      <point x="234" y="295" type="line" smooth="yes"/>
    </contour>
    <contour>
      <point x="316" y="826" type="line" smooth="yes"/>
      <point x="452" y="863" type="line" smooth="yes"/>
      <point x="487" y="950" type="line" smooth="yes"/>
      <point x="395" y="950" type="line" smooth="yes"/>
      <point x="377" y="914" type="line" smooth="yes"/>
      <point x="316" y="901" type="line" smooth="yes"/>
      <point x="256" y="914" type="line" smooth="yes"/>
      <point x="237" y="950" type="line" smooth="yes"/>
      <point x="145" y="950" type="line" smooth="yes"/>
      <point x="180" y="863" type="line" smooth="yes"/>
    </contour>
    <contour>
      <point x="223" y="784" type="line" smooth="yes"/>
      <point x="18" y="0" type="line" smooth="yes"/>
      <point x="163" y="0" type="line" smooth="yes"/>
      <point x="206" y="178" type="line" smooth="yes"/>
      <point x="426" y="178" type="line" smooth="yes"/>
      <point x="469" y="0" type="line" smooth="yes"/>
      <point x="613" y="0" type="line" smooth="yes"/>
      <point x="408" y="784" type="line" smooth="yes"/>
    </contour>
  </outline>
</glyph>
<glyph name="aogonek" format="1">
  <advance width="538"/>
  <unicode hex="0105"/>
  <outline>
    <contour>
      <point x="424" y="-79" type="line" smooth="yes"/>
      <point x="443" y="-33" type="line" smooth="yes"/>
      <point x="492" y="0" type="line" smooth="yes"/>
      <point x="484" y="150" type="line" smooth="yes"/>
      <point x="484" y="342" type="line" smooth="yes"/>
      <point x="438" y="489" type="line" smooth="yes"/>
      <point x="269" y="543" type="line" smooth="yes"/>
      <point x="98" y="487" type="line" smooth="yes"/>
      <point x="54" y="364" type="line" smooth="yes"/>
      <point x="54" y="355" type="line" smooth="yes"/>
      <point x="178" y="355" type="line" smooth="yes"/>
      <point x="195" y="416" type="line" smooth="yes"/>
      <point x="266" y="442" type="line" smooth="yes"/>
      <point x="335" y="417" type="line" smooth="yes"/>
      <point x="354" y="342" type="line" smooth="yes"/>
      <point x="354" y="340" type="line" smooth="yes"/>
      <point x="219" y="319" type="line" smooth="yes"/>
      <point x="88" y="274" type="line" smooth="yes"/>
      <point x="34" y="153" type="line" smooth="yes"/>
      <point x="34" y="143" type="line" smooth="yes"/>
      <point x="72" y="33" type="line" smooth="yes"/>
      <point x="194" y="-13" type="line" smooth="yes"/>
      <point x="296" y="8" type="line" smooth="yes"/>
      <point x="367" y="61" type="line" smooth="yes"/>
      <point x="376" y="5" type="line" smooth="yes"/>
      <point x="338" y="-45" type="line" smooth="yes"/>
      <point x="324" y="-109" type="line" smooth="yes"/>
      <point x="359" y="-189" type="line" smooth="yes"/>
      <point x="451" y="-214" type="line" smooth="yes"/>
      <point x="507" y="-207" type="line" smooth="yes"/>
      <point x="550" y="-190" type="line" smooth="yes"/>
      <point x="519" y="-108" type="line" smooth="yes"/>
      <point x="499" y="-116" type="line" smooth="yes"/>
      <point x="471" y="-120" type="line" smooth="yes"/>
      <point x="436" y="-109" type="line" smooth="yes"/>
    </contour>
    <contour>
      <point x="239" y="94" type="line" smooth="yes"/>
      <point x="182" y="114" type="line" smooth="yes"/>
      <point x="164" y="159" type="line" smooth="yes"/>
      <point x="164" y="167" type="line" smooth="yes"/>
      <point x="183" y="217" type="line" smooth="yes"/>
      <point x="243" y="243" type="line" smooth="yes"/>
      <point x="354" y="261" type="line" smooth="yes"/>
      <point x="354" y="149" type="line" smooth="yes"/>
      <point x="313" y="113" type="line" smooth="yes"/>
    </contour>
  </outline>
</glyph>
<glyph name="Cacute" format="1">
  <advance width="640"/>
  <unicode hex="0106"/>
  <outline>
    <contour>
      <point x="320" y="950" type="line" smooth="yes"/>
      <point x="264" y="840" type="line" smooth="yes"/>
      <point x="394" y="840" type="line" smooth="yes"/>
      <point x="457" y="950" type="line" smooth="yes"/>
    </contour>
    <contour>
      <point x="181" y="370" type="line" smooth="yes"/>
      <point x="181" y="410" type="line" smooth="yes"/>
      <point x="213" y="609" type="line" smooth="yes"/>
      <point x="328" y="676" type="line" smooth="yes"/>
      <point x="337" y="676" type="line" smooth="yes"/>
      <point x="436" y="628" type="line" smooth="yes"/>
      <point x="463" y="487" type="line" smooth="yes"/>
      <point x="598" y="487" type="line" smooth="yes"/>
      <point x="598" y="521" type="line" smooth="yes"/>
      <point x="531" y="728" type="line" smooth="yes"/>
      <point x="329" y="793" type="line" smooth="yes"/>
      <point x="113" y="703" type="line" smooth="yes"/>
      <point x="44" y="410" type="line" smooth="yes"/>
      <point x="44" y="370" type="line" smooth="yes"/>
      <point x="113" y="77" type="line" smooth="yes"/>
      <point x="329" y="-13" type="line" smooth="yes"/>
      <point x="531" y="51" type="line" smooth="yes"/>
      <point x="598" y="253" type="line" smooth="yes"/>
      <point x="598" y="263" type="line" smooth="yes"/>
      <point x="463" y="263" type="line" smooth="yes"/>
      <point x="434" y="147" type="line" smooth="yes"/>
      <point x="337" y="104" type="line" smooth="yes"/>
      <point x="328" y="104" type="line" smooth="yes"/>
      <point x="213" y="171" type="line" smooth="yes"/>
    </contour>
  </outline>
</glyph>
<glyph name="cacute" format="1">
  <advance width="525"/>
  <unicode hex="0107"/>
  <outline>
    <contour>
      <point x="296" y="780" type="line" smooth="yes"/>
      <point x="205" y="601" type="line" smooth="yes"/>
      <point x="335" y="601" type="line" smooth="yes"/>
      <point x="438" y="780" type="line" smooth="yes"/>
    </contour>
    <contour>
      <point x="166" y="249" type="line" smooth="yes"/>
      <point x="166" y="281" type="line" smooth="yes"/>
      <point x="191" y="390" type="line" smooth="yes"/>
      <point x="273" y="430" type="line" smooth="yes"/>
      <point x="344" y="402" type="line" smooth="yes"/>
      <point x="367" y="328" type="line" smooth="yes"/>
      <point x="490" y="328" type="line" smooth="yes"/>
      <point x="490" y="350" type="line" smooth="yes"/>
      <point x="436" y="487" type="line" smooth="yes"/>
      <point x="270" y="543" type="line" smooth="yes"/>
      <point x="92" y="469" type="line" smooth="yes"/>
      <point x="36" y="281" type="line" smooth="yes"/>
      <point x="36" y="249" type="line" smooth="yes"/>
      <point x="92" y="61" type="line" smooth="yes"/>
      <point x="270" y="-13" type="line" smooth="yes"/>
      <point x="436" y="42" type="line" smooth="yes"/>
      <point x="490" y="172" type="line" smooth="yes"/>
      <point x="490" y="193" type="line" smooth="yes"/>
      <point x="367" y="193" type="line" smooth="yes"/>
      <point x="345" y="128" type="line" smooth="yes"/>
      <point x="273" y="101" type="line" smooth="yes"/>
      <point x="191" y="141" type="line" smooth="yes"/>
    </contour>
  </outline>
</glyph>
<glyph name="Cdotaccent" format="1">
  <advance width="640"/>
  <unicode hex="010A"/>
  <outline>
    <contour>
      <point x="387" y="941" type="line" smooth="yes"/>
      <point x="271" y="941" type="line" smooth="yes"/>
      <point x="271" y="849" type="line" smooth="yes"/>
      <point x="387" y="849" type="line" smooth="yes"/>
    </contour>
    <contour>
      <point x="181" y="370" type="line" smooth="yes"/>
      <point x="181" y="410" type="line" smooth="yes"/>
      <point x="213" y="609" type="line" smooth="yes"/>
      <point x="328" y="676" type="line" smooth="yes"/>
      <point x="337" y="676" type="line" smooth="yes"/>
      <point x="436" y="628" type="line" smooth="yes"/>
      <point x="463" y="487" type="line" smooth="yes"/>
      <point x="598" y="487" type="line" smooth="yes"/>
      <point x="598" y="521" type="line" smooth="yes"/>
      <point x="531" y="728" type="line" smooth="yes"/>
      <point x="329" y="793" type="line" smooth="yes"/>
      <point x="113" y="703" type="line" smooth="yes"/>
      <point x="44" y="410" type="line" smooth="yes"/>
      <point x="44" y="370" type="line" smooth="yes"/>
      <point x="113" y="77" type="line" smooth="yes"/>
      <point x="329" y="-13" type="line" smooth="yes"/>
      <point x="531" y="51" type="line" smooth="yes"/>
      <point x="598" y="253" type="line" smooth="yes"/>
      <point x="598" y="263" type="line" smooth="yes"/>
      <point x="463" y="263" type="line" smooth="yes"/>
      <point x="434" y="147" type="line" smooth="yes"/>
      <point x="337" y="104" type="line" smooth="yes"/>
      <point x="328" y="104" type="line" smooth="yes"/>
      <point x="213" y="171" type="line" smooth="yes"/>
    </contour>
  </outline>
</glyph>
<glyph name="ebreve" format="1">
  <advance width="553"/>
  <unicode hex="0115"/>
  <outline>
    <contour>
      <point x="276" y="442" type="line" smooth="yes"/>
      <point x="356" y="409" type="line" smooth="yes"/>
      <point x="385" y="313" type="line" smooth="yes"/>
      <point x="166" y="313" type="line" smooth="yes"/>
      <point x="197" y="409" type="line" smooth="yes"/>
    </contour>
    <contour>
      <point x="279" y="589" type="line" smooth="yes"/>
      <point x="419" y="643" type="line" smooth="yes"/>
      <point x="458" y="780" type="line" smooth="yes"/>
      <point x="362" y="780" type="line" smooth="yes"/>
      <point x="340" y="711" type="line" smooth="yes"/>
      <point x="279" y="689" type="line" smooth="yes"/>
      <point x="218" y="711" type="line" smooth="yes"/>
      <point x="196" y="780" type="line" smooth="yes"/>
      <point x="100" y="780" type="line" smooth="yes"/>
      <point x="139" y="643" type="line" smooth="yes"/>
    </contour>
    <contour>
      <point x="516" y="217" type="line" smooth="yes"/>
      <point x="516" y="278" type="line" smooth="yes"/>
      <point x="459" y="467" type="line" smooth="yes"/>
      <point x="279" y="543" type="line" smooth="yes"/>
      <point x="96" y="467" type="line" smooth="yes"/>
      <point x="36" y="278" type="line" smooth="yes"/>
      <point x="36" y="252" type="line" smooth="yes"/>
      <point x="96" y="63" type="line" smooth="yes"/>
      <point x="284" y="-13" type="line" smooth="yes"/>
      <point x="457" y="41" type="line" smooth="yes"/>
      <point x="516" y="166" type="line" smooth="yes"/>
      <point x="516" y="170" type="line" smooth="yes"/>
      <point x="393" y="170" type="line" smooth="yes"/>
      <point x="366" y="114" type="line" smooth="yes"/>
      <point x="285" y="88" type="line" smooth="yes"/>
      <point x="200" y="120" type="line" smooth="yes"/>
      <point x="166" y="217" type="line" smooth="yes"/>
    </contour>
  </outline>
</glyph>
<glyph name="Eogonek" format="1">
  <advance width="565"/>
  <unicode hex="0118"/>
  <outline>
    <contour>
      <point x="61" y="780" type="line" smooth="yes"/>
      <point x="61" y="0" type="line" smooth="yes"/>
      <point x="403" y="0" type="line" smooth="yes"/>
      <point x="370" y="-49" type="line" smooth="yes"/>
      <point x="357" y="-109" type="line" smooth="yes"/>
      <point x="392" y="-189" type="line" smooth="yes"/>
      <point x="484" y="-214" type="line" smooth="yes"/>
      <point x="540" y="-207" type="line" smooth="yes"/>
      <point x="583" y="-190" type="line" smooth="yes"/>
      <point x="552" y="-108" type="line" smooth="yes"/>
      <point x="532" y="-116" type="line" smooth="yes"/>
      <point x="504" y="-120" type="line" smooth="yes"/>
      <point x="469" y="-109" type="line" smooth="yes"/>
      <point x="457" y="-79" type="line" smooth="yes"/>
      <point x="476" y="-33" type="line" smooth="yes"/>
      <point x="525" y="0" type="line" smooth="yes"/>
      <point x="525" y="117" type="line" smooth="yes"/>
      <point x="195" y="117" type="line" smooth="yes"/>
      <point x="195" y="340" type="line" smooth="yes"/>
      <point x="475" y="340" type="line" smooth="yes"/>
      <point x="475" y="456" type="line" smooth="yes"/>
      <point x="195" y="456" type="line" smooth="yes"/>
      <point x="195" y="663" type="line" smooth="yes"/>
      <point x="525" y="663" type="line" smooth="yes"/>
      <point x="525" y="780" type="line" smooth="yes"/>
    </contour>
  </outline>
</glyph>
<glyph name="eogonek" format="1">
  <advance width="553"/>
  <unicode hex="0119"/>
  <outline>
    <contour>
      <point x="276" y="442" type="line" smooth="yes"/>
      <point x="356" y="409" type="line" smooth="yes"/>
      <point x="385" y="313" type="line" smooth="yes"/>
      <point x="166" y="313" type="line" smooth="yes"/>
      <point x="197" y="409" type="line" smooth="yes"/>
    </contour>
    <contour>
      <point x="516" y="217" type="line" smooth="yes"/>
      <point x="516" y="278" type="line" smooth="yes"/>
      <point x="459" y="467" type="line" smooth="yes"/>
      <point x="279" y="543" type="line" smooth="yes"/>
      <point x="96" y="467" type="line" smooth="yes"/>
      <point x="36" y="278" type="line" smooth="yes"/>
      <point x="36" y="252" type="line" smooth="yes"/>
      <point x="87" y="74" type="line" smooth="yes"/>
      <point x="246" y="-11" type="line" smooth="yes"/>
      <point x="220" y="-55" type="line" smooth="yes"/>
      <point x="210" y="-109" type="line" smooth="yes"/>
      <point x="245" y="-189" type="line" smooth="yes"/>
      <point x="337" y="-214" type="line" smooth="yes"/>
      <point x="393" y="-207" type="line" smooth="yes"/>
      <point x="436" y="-190" type="line" smooth="yes"/>
      <point x="405" y="-108" type="line" smooth="yes"/>
      <point x="385" y="-116" type="line" smooth="yes"/>
      <point x="357" y="-120" type="line" smooth="yes"/>
      <point x="322" y="-109" type="line" smooth="yes"/>
      <point x="310" y="-79" type="line" smooth="yes"/>
      <point x="329" y="-31" type="line" smooth="yes"/>
      <point x="379" y="0" type="line" smooth="yes"/>
      <point x="481" y="65" type="line" smooth="yes"/>
      <point x="516" y="166" type="line" smooth="yes"/>
      <point x="516" y="170" type="line" smooth="yes"/>
      <point x="393" y="170" type="line" smooth="yes"/>
      <point x="366" y="114" type="line" smooth="yes"/>
      <point x="285" y="88" type="line" smooth="yes"/>
      <point x="200" y="120" type="line" smooth="yes"/>
      <point x="166" y="217" type="line" smooth="yes"/>
    </contour>
  </outline>
</glyph>
<glyph name="Gcircumflex" format="1">
  <advance width="664"/>
  <unicode hex="011C"/>
  <outline>
    <contour>
      <point x="272" y="840" type="line" smooth="yes"/>
      <point x="336" y="890" type="line" smooth="yes"/>
      <point x="400" y="840" type="line" smooth="yes"/>
      <point x="520" y="840" type="line" smooth="yes"/>
      <point x="401" y="950" type="line" smooth="yes"/>
      <point x="271" y="950" type="line" smooth="yes"/>
      <point x="152" y="840" type="line" smooth="yes"/>
    </contour>
    <contour>
      <point x="346" y="-13" type="line" smooth="yes"/>
      <point x="507" y="15" type="line" smooth="yes"/>
      <point x="608" y="78" type="line" smooth="yes"/>
      <point x="608" y="410" type="line" smooth="yes"/>
      <point x="361" y="410" type="line" smooth="yes"/>
      <point x="361" y="294" type="line" smooth="yes"/>
      <point x="474" y="294" type="line" smooth="yes"/>
      <point x="474" y="143" type="line" smooth="yes"/>
      <point x="423" y="116" type="line" smooth="yes"/>
      <point x="351" y="104" type="line" smooth="yes"/>
      <point x="342" y="104" type="line" smooth="yes"/>
      <point x="215" y="171" type="line" smooth="yes"/>
      <point x="181" y="370" type="line" smooth="yes"/>
      <point x="181" y="410" type="line" smooth="yes"/>
      <point x="215" y="609" type="line" smooth="yes"/>
      <point x="335" y="676" type="line" smooth="yes"/>
      <point x="344" y="676" type="line" smooth="yes"/>
      <point x="446" y="628" type="line" smooth="yes"/>
      <point x="474" y="487" type="line" smooth="yes"/>
      <point x="608" y="487" type="line" smooth="yes"/>
      <point x="608" y="521" type="line" smooth="yes"/>
      <point x="539" y="728" type="line" smooth="yes"/>
      <point x="336" y="793" type="line" smooth="yes"/>
      <point x="117" y="703" type="line" smooth="yes"/>
      <point x="44" y="410" type="line" smooth="yes"/>
      <point x="44" y="370" type="line" smooth="yes"/>
      <point x="118" y="77" type="line" smooth="yes"/>
    </contour>
  </outline>
</glyph>
<glyph name="gcircumflex" format="1">
  <advance width="563"/>
  <unicode hex="011D"/>
  <outline>
    <contour>
      <point x="198" y="601" type="line" smooth="yes"/>
      <point x="276" y="693" type="line" smooth="yes"/>
      <point x="354" y="601" type="line" smooth="yes"/>
      <point x="471" y="601" type="line" smooth="yes"/>
      <point x="338" y="780" type="line" smooth="yes"/>
      <point x="214" y="780" type="line" smooth="yes"/>
      <point x="81" y="601" type="line" smooth="yes"/>
    </contour>
    <contour>
      <point x="376" y="194" type="line" smooth="yes"/>
      <point x="339" y="155" type="line" smooth="yes"/>
      <point x="271" y="134" type="line" smooth="yes"/>
      <point x="192" y="169" type="line" smooth="yes"/>
      <point x="166" y="269" type="line" smooth="yes"/>
      <point x="166" y="295" type="line" smooth="yes"/>
      <point x="192" y="393" type="line" smooth="yes"/>
      <point x="271" y="430" type="line" smooth="yes"/>
      <point x="339" y="409" type="line" smooth="yes"/>
      <point x="376" y="369" type="line" smooth="yes"/>
    </contour>
    <contour>
      <point x="376" y="8" type="line" smooth="yes"/>
      <point x="351" y="-79" type="line" smooth="yes"/>
      <point x="270" y="-106" type="line" smooth="yes"/>
      <point x="191" y="-78" type="line" smooth="yes"/>
      <point x="169" y="0" type="line" smooth="yes"/>
      <point x="46" y="0" type="line" smooth="yes"/>
      <point x="46" y="-19" type="line" smooth="yes"/>
      <point x="96" y="-156" type="line" smooth="yes"/>
      <point x="273" y="-213" type="line" smooth="yes"/>
      <point x="450" y="-156" type="line" smooth="yes"/>
      <point x="506" y="6" type="line" smooth="yes"/>
      <point x="506" y="380" type="line" smooth="yes"/>
      <point x="514" y="530" type="line" smooth="yes"/>
      <point x="399" y="530" type="line" smooth="yes"/>
      <point x="388" y="465" type="line" smooth="yes"/>
      <point x="329" y="521" type="line" smooth="yes"/>
      <point x="235" y="543" type="line" smooth="yes"/>
      <point x="82" y="471" type="line" smooth="yes"/>
      <point x="36" y="295" type="line" smooth="yes"/>
      <point x="36" y="269" type="line" smooth="yes"/>
      <point x="82" y="90" type="line" smooth="yes"/>
      <point x="235" y="21" type="line" smooth="yes"/>
      <point x="319" y="38" type="line" smooth="yes"/>
      <point x="376" y="82" type="line" smooth="yes"/>
    </contour>
  </outline>
</glyph>
<glyph name="Gbreve" format="1">
  <advance width="664"/>
  <unicode hex="011E"/>
  <outline>
    <contour>
      <point x="336" y="826" type="line" smooth="yes"/>
      <point x="472" y="863" type="line" smooth="yes"/>
      <point x="507" y="950" type="line" smooth="yes"/>
      <point x="415" y="950" type="line" smooth="yes"/>
      <point x="397" y="914" type="line" smooth="yes"/>
      <point x="336" y="901" type="line" smooth="yes"/>
      <point x="276" y="914" type="line" smooth="yes"/>
      <point x="257" y="950" type="line" smooth="yes"/>
      <point x="165" y="950" type="line" smooth="yes"/>
      <point x="200" y="863" type="line" smooth="yes"/>
    </contour>
    <contour>
      <point x="346" y="-13" type="line" smooth="yes"/>
      <point x="507" y="15" type="line" smooth="yes"/>
      <point x="608" y="78" type="line" smooth="yes"/>
      <point x="608" y="410" type="line" smooth="yes"/>
      <point x="361" y="410" type="line" smooth="yes"/>
      <point x="361" y="294" type="line" smooth="yes"/>
      <point x="474" y="294" type="line" smooth="yes"/>
      <point x="474" y="143" type="line" smooth="yes"/>
      <point x="423" y="116" type="line" smooth="yes"/>
      <point x="351" y="104" type="line" smooth="yes"/>
      <point x="342" y="104" type="line" smooth="yes"/>
      <point x="215" y="171" type="line" smooth="yes"/>
      <point x="181" y="370" type="line" smooth="yes"/>
      <point x="181" y="410" type="line" smooth="yes"/>
      <point x="215" y="609" type="line" smooth="yes"/>
      <point x="335" y="676" type="line" smooth="yes"/>
      <point x="344" y="676" type="line" smooth="yes"/>
      <point x="446" y="628" type="line" smooth="yes"/>
      <point x="474" y="487" type="line" smooth="yes"/>
      <point x="608" y="487" type="line" smooth="yes"/>
      <point x="608" y="521" type="line" smooth="yes"/>
      <point x="539" y="728" type="line" smooth="yes"/>
      <point x="336" y="793" type="line" smooth="yes"/>
      <point x="117" y="703" type="line" smooth="yes"/>
      <point x="44" y="410" type="line" smooth="yes"/>
      <point x="44" y="370" type="line" smooth="yes"/>
      <point x="118" y="77" type="line" smooth="yes"/>
    </contour>
  </outline>
</glyph>
<glyph name="Gcommaaccent" format="1">
  <advance width="664"/>
  <unicode hex="0122"/>
  <outline>
    <contour>
      <point x="407" y="-47" type="line" smooth="yes"/>
      <point x="285" y="-47" type="line" smooth="yes"/>
      <point x="285" y="-133" type="line" smooth="yes"/>
      <point x="354" y="-133" type="line" smooth="yes"/>
      <point x="325" y="-165" type="line" smooth="yes"/>
      <point x="273" y="-174" type="line" smooth="yes"/>
      <point x="273" y="-223" type="line" smooth="yes"/>
      <point x="374" y="-194" type="line" smooth="yes"/>
      <point x="407" y="-103" type="line" smooth="yes"/>
    </contour>
    <contour>
      <point x="346" y="-13" type="line" smooth="yes"/>
      <point x="507" y="15" type="line" smooth="yes"/>
      <point x="608" y="78" type="line" smooth="yes"/>
      <point x="608" y="410" type="line" smooth="yes"/>
      <point x="361" y="410" type="line" smooth="yes"/>
      <point x="361" y="294" type="line" smooth="yes"/>
      <point x="474" y="294" type="line" smooth="yes"/>
      <point x="474" y="143" type="line" smooth="yes"/>
      <point x="423" y="116" type="line" smooth="yes"/>
      <point x="351" y="104" type="line" smooth="yes"/>
      <point x="342" y="104" type="line" smooth="yes"/>
      <point x="215" y="171" type="line" smooth="yes"/>
      <point x="181" y="370" type="line" smooth="yes"/>
      <point x="181" y="410" type="line" smooth="yes"/>
      <point x="215" y="609" type="line" smooth="yes"/>
      <point x="335" y="676" type="line" smooth="yes"/>
      <point x="344" y="676" type="line" smooth="yes"/>
      <point x="446" y="628" type="line" smooth="yes"/>
      <point x="474" y="487" type="line" smooth="yes"/>
      <point x="608" y="487" type="line" smooth="yes"/>
      <point x="608" y="521" type="line" smooth="yes"/>
      <point x="539" y="728" type="line" smooth="yes"/>
      <point x="336" y="793" type="line" smooth="yes"/>
      <point x="117" y="703" type="line" smooth="yes"/>
      <point x="44" y="410" type="line" smooth="yes"/>
      <point x="44" y="370" type="line" smooth="yes"/>
      <point x="118" y="77" type="line" smooth="yes"/>
    </contour>
  </outline>
</glyph>
<glyph name="hbar" format="1">
  <advance width="563"/>
  <unicode hex="0127"/>
  <outline>
    <contour>
      <point x="188" y="800" type="line" smooth="yes"/>
      <point x="58" y="800" type="line" smooth="yes"/>
      <point x="58" y="713" type="line" smooth="yes"/>
      <point x="-18" y="713" type="line" smooth="yes"/>
      <point x="-18" y="617" type="line" smooth="yes"/>
      <point x="58" y="617" type="line" smooth="yes"/>
      <point x="58" y="0" type="line" smooth="yes"/>
      <point x="188" y="0" type="line" smooth="yes"/>
      <point x="188" y="369" type="line" smooth="yes"/>
      <point x="226" y="409" type="line" smooth="yes"/>
      <point x="298" y="430" type="line" smooth="yes"/>
      <point x="362" y="405" type="line" smooth="yes"/>
      <point x="382" y="342" type="line" smooth="yes"/>
      <point x="382" y="0" type="line" smooth="yes"/>
      <point x="511" y="0" type="line" smooth="yes"/>
      <point x="511" y="363" type="line" smooth="yes"/>
      <point x="473" y="489" type="line" smooth="yes"/>
      <point x="348" y="543" type="line" smooth="yes"/>
      <point x="252" y="524" type="line" smooth="yes"/>
      <point x="188" y="476" type="line" smooth="yes"/>
      <point x="188" y="617" type="line" smooth="yes"/>
      <point x="307" y="617" type="line" smooth="yes"/>
      <point x="307" y="713" type="line" smooth="yes"/>
      <point x="188" y="713" type="line" smooth="yes"/>
    </contour>
  </outline>
</glyph>
<glyph name="Itilde" format="1">
  <advance width="266"/>
  <unicode hex="0128"/>
  <outline>
    <contour>
      <point x="234" y="943" type="line" smooth="yes"/>
      <point x="224" y="915" type="line" smooth="yes"/>
      <point x="199" y="907" type="line" smooth="yes"/>
      <point x="136" y="932" type="line" smooth="yes"/>
      <point x="54" y="957" type="line" smooth="yes"/>
      <point x="-13" y="932" type="line" smooth="yes"/>
      <point x="-41" y="847" type="line" smooth="yes"/>
      <point x="32" y="847" type="line" smooth="yes"/>
      <point x="42" y="875" type="line" smooth="yes"/>
      <point x="67" y="883" type="line" smooth="yes"/>
      <point x="130" y="858" type="line" smooth="yes"/>
      <point x="212" y="833" type="line" smooth="yes"/>
      <point x="279" y="858" type="line" smooth="yes"/>
      <point x="307" y="943" type="line" smooth="yes"/>
    </contour>
    <contour>
      <point x="200" y="780" type="line" smooth="yes"/>
      <point x="66" y="780" type="line" smooth="yes"/>
      <point x="66" y="0" type="line" smooth="yes"/>
      <point x="200" y="0" type="line" smooth="yes"/>
    </contour>
  </outline>
</glyph>
<glyph name="itilde" format="1">
  <advance width="250"/>
  <unicode hex="0129"/>
  <outline>
    <contour>
      <point x="223" y="764" type="line" smooth="yes"/>
      <point x="214" y="734" type="line" smooth="yes"/>
      <point x="190" y="725" type="line" smooth="yes"/>
      <point x="124" y="752" type="line" smooth="yes"/>
      <point x="39" y="778" type="line" smooth="yes"/>
      <point x="-33" y="745" type="line" smooth="yes"/>
      <point x="-62" y="636" type="line" smooth="yes"/>
      <point x="27" y="636" type="line" smooth="yes"/>
      <point x="36" y="666" type="line" smooth="yes"/>
      <point x="60" y="675" type="line" smooth="yes"/>
      <point x="127" y="649" type="line" smooth="yes"/>
      <point x="211" y="622" type="line" smooth="yes"/>
      <point x="283" y="656" type="line" smooth="yes"/>
      <point x="312" y="764" type="line" smooth="yes"/>
    </contour>
    <contour>
      <point x="60" y="0" type="line" smooth="yes"/>
      <point x="190" y="0" type="line" smooth="yes"/>
      <point x="190" y="530" type="line" smooth="yes"/>
      <point x="60" y="530" type="line" smooth="yes"/>
    </contour>
  </outline>
</glyph>
<glyph name="Ibreve" format="1">
  <advance width="266"/>
  <unicode hex="012C"/>
  <outline>
    <contour>
      <point x="133" y="826" type="line" smooth="yes"/>
      <point x="269" y="863" type="line" smooth="yes"/>
      <point x="304" y="950" type="line" smooth="yes"/>
      <point x="212" y="950" type="line" smooth="yes"/>
      <point x="194" y="914" type="line" smooth="yes"/>
      <point x="133" y="901" type="line" smooth="yes"/>
      <point x="73" y="914" type="line" smooth="yes"/>
      <point x="54" y="950" type="line" smooth="yes"/>
      <point x="-38" y="950" type="line" smooth="yes"/>
      <point x="-3" y="863" type="line" smooth="yes"/>
    </contour>
    <contour>
      <point x="200" y="780" type="line" smooth="yes"/>
      <point x="66" y="780" type="line" smooth="yes"/>
      <point x="66" y="0" type="line" smooth="yes"/>
      <point x="200" y="0" type="line" smooth="yes"/>
    </contour>
  </outline>
</glyph>
<glyph name="ibreve" format="1">
  <advance width="250"/>
  <unicode hex="012D"/>
  <outline>
    <contour>
      <point x="125" y="589" type="line" smooth="yes"/>
      <point x="265" y="643" type="line" smooth="yes"/>
      <point x="304" y="780" type="line" smooth="yes"/>
      <point x="208" y="780" type="line" smooth="yes"/>
      <point x="186" y="711" type="line" smooth="yes"/>
      <point x="125" y="689" type="line" smooth="yes"/>
      <point x="64" y="711" type="line" smooth="yes"/>
      <point x="42" y="780" type="line" smooth="yes"/>
      <point x="-54" y="780" type="line" smooth="yes"/>
      <point x="-15" y="643" type="line" smooth="yes"/>
    </contour>
    <contour>
      <point x="60" y="0" type="line" smooth="yes"/>
      <point x="190" y="0" type="line" smooth="yes"/>
      <point x="190" y="530" type="line" smooth="yes"/>
      <point x="60" y="530" type="line" smooth="yes"/>
    </contour>
  </outline>
</glyph>
<glyph name="Iogonek" format="1">
  <advance width="266"/>
  <unicode hex="012E"/>
  <outline>
    <contour>
      <point x="132" y="-79" type="line" smooth="yes"/>
      <point x="151" y="-33" type="line" smooth="yes"/>
      <point x="200" y="0" type="line" smooth="yes"/>
      <point x="200" y="780" type="line" smooth="yes"/>
      <point x="66" y="780" type="line" smooth="yes"/>
      <point x="66" y="-13" type="line" smooth="yes"/>
      <point x="41" y="-57" type="line" smooth="yes"/>
      <point x="32" y="-109" type="line" smooth="yes"/>
      <point x="67" y="-189" type="line" smooth="yes"/>
      <point x="159" y="-214" type="line" smooth="yes"/>
      <point x="215" y="-207" type="line" smooth="yes"/>
      <point x="258" y="-190" type="line" smooth="yes"/>
      <point x="227" y="-108" type="line" smooth="yes"/>
      <point x="207" y="-116" type="line" smooth="yes"/>
      <point x="179" y="-120" type="line" smooth="yes"/>
      <point x="144" y="-109" type="line" smooth="yes"/>
    </contour>
  </outline>
</glyph>
<glyph name="iogonek" format="1">
  <advance width="250"/>
  <unicode hex="012F"/>
  <outline>
    <contour>
      <point x="196" y="763" type="line" smooth="yes"/>
      <point x="54" y="763" type="line" smooth="yes"/>
      <point x="54" y="622" type="line" smooth="yes"/>
      <point x="196" y="622" type="line" smooth="yes"/>
    </contour>
    <contour>
      <point x="22" y="-109" type="line" smooth="yes"/>
      <point x="57" y="-189" type="line" smooth="yes"/>
      <point x="149" y="-214" type="line" smooth="yes"/>
      <point x="205" y="-207" type="line" smooth="yes"/>
      <point x="248" y="-190" type="line" smooth="yes"/>
      <point x="217" y="-108" type="line" smooth="yes"/>
      <point x="197" y="-116" type="line" smooth="yes"/>
      <point x="169" y="-120" type="line" smooth="yes"/>
      <point x="134" y="-109" type="line" smooth="yes"/>
      <point x="122" y="-79" type="line" smooth="yes"/>
      <point x="141" y="-33" type="line" smooth="yes"/>
      <point x="190" y="0" type="line" smooth="yes"/>
      <point x="190" y="530" type="line" smooth="yes"/>
      <point x="60" y="530" type="line" smooth="yes"/>
      <point x="60" y="-8" type="line" smooth="yes"/>
      <point x="32" y="-54" type="line" smooth="yes"/>
    </contour>
  </outline>
</glyph>
<glyph name="Idotaccent" format="1">
  <advance width="266"/>
  <unicode hex="0130"/>
  <outline>
    <contour>
      <point x="191" y="941" type="line" smooth="yes"/>
      <point x="75" y="941" type="line" smooth="yes"/>
      <point x="75" y="849" type="line" smooth="yes"/>
      <point x="191" y="849" type="line" smooth="yes"/>
    </contour>
    <contour>
      <point x="200" y="780" type="line" smooth="yes"/>
      <point x="66" y="780" type="line" smooth="yes"/>
      <point x="66" y="0" type="line" smooth="yes"/>
      <point x="200" y="0" type="line" smooth="yes"/>
    </contour>
  </outline>
</glyph>
<glyph name="IJ" format="1">
  <advance width="573"/>
  <unicode hex="0132"/>
  <outline>
    <contour>
      <point x="200" y="780" type="line" smooth="yes"/>
      <point x="66" y="780" type="line" smooth="yes"/>
      <point x="66" y="0" type="line" smooth="yes"/>
      <point x="200" y="0" type="line" smooth="yes"/>
    </contour>
    <contour>
      <point x="383" y="196" type="line" smooth="yes"/>
      <point x="362" y="123" type="line" smooth="yes"/>
      <point x="301" y="104" type="line" smooth="yes"/>
      <point x="271" y="108" type="line" smooth="yes"/>
      <point x="248" y="114" type="line" smooth="yes"/>
      <point x="248" y="3" type="line" smooth="yes"/>
      <point x="277" y="-7" type="line" smooth="yes"/>
      <point x="336" y="-13" type="line" smooth="yes"/>
      <point x="466" y="31" type="line" smooth="yes"/>
      <point x="517" y="181" type="line" smooth="yes"/>
      <point x="517" y="780" type="line" smooth="yes"/>
      <point x="383" y="780" type="line" smooth="yes"/>
    </contour>
  </outline>
</glyph>
<glyph name="jcircumflex" format="1">
  <advance width="250"/>
  <unicode hex="0135"/>
  <outline>
    <contour>
      <point x="47" y="601" type="line" smooth="yes"/>
      <point x="125" y="693" type="line" smooth="yes"/>
      <point x="203" y="601" type="line" smooth="yes"/>
      <point x="320" y="601" type="line" smooth="yes"/>
      <point x="187" y="780" type="line" smooth="yes"/>
      <point x="63" y="780" type="line" smooth="yes"/>
      <point x="-70" y="601" type="line" smooth="yes"/>
    </contour>
    <contour>
      <point x="60" y="-13" type="line" smooth="yes"/>
      <point x="37" y="-83" type="line" smooth="yes"/>
      <point x="-26" y="-99" type="line" smooth="yes"/>
      <point x="-56" y="-97" type="line" smooth="yes"/>
      <point x="-77" y="-92" type="line" smooth="yes"/>
      <point x="-77" y="-200" type="line" smooth="yes"/>
      <point x="-50" y="-208" type="line" smooth="yes"/>
      <point x="5" y="-213" type="line" smooth="yes"/>
      <point x="139" y="-171" type="line" smooth="yes"/>
      <point x="190" y="-27" type="line" smooth="yes"/>
      <point x="190" y="530" type="line" smooth="yes"/>
      <point x="60" y="530" type="line" smooth="yes"/>
    </contour>
  </outline>
</glyph>
<glyph name="Kcommaaccent" format="1">
  <advance width="606"/>
  <unicode hex="0136"/>
  <outline>
    <contour>
      <point x="364" y="-47" type="line" smooth="yes"/>
      <point x="242" y="-47" type="line" smooth="yes"/>
      <point x="242" y="-133" type="line" smooth="yes"/>
      <point x="311" y="-133" type="line" smooth="yes"/>
      <point x="282" y="-165" type="line" smooth="yes"/>
      <point x="230" y="-174" type="line" smooth="yes"/>
      <point x="230" y="-223" type="line" smooth="yes"/>
      <point x="331" y="-194" type="line" smooth="yes"/>
      <point x="364" y="-103" type="line" smooth="yes"/>
    </contour>
    <contour>
      <point x="195" y="780" type="line" smooth="yes"/>
      <point x="61" y="780" type="line" smooth="yes"/>
      <point x="61" y="0" type="line" smooth="yes"/>
      <point x="195" y="0" type="line" smooth="yes"/>
      <point x="195" y="230" type="line" smooth="yes"/>
      <point x="274" y="342" type="line" smooth="yes"/>
      <point x="432" y="0" type="line" smooth="yes"/>
      <point x="581" y="0" type="line" smooth="yes"/>
      <point x="359" y="463" type="line" smooth="yes"/>
      <point x="581" y="780" type="line" smooth="yes"/>
      <point x="419" y="780" type="line" smooth="yes"/>
      <point x="195" y="435" type="line" smooth="yes"/>
    </contour>
  </outline>
</glyph>
<glyph name="lacute" format="1">
  <advance width="250"/>
  <unicode hex="013A"/>
  <outline>
    <contour>
      <point x="116" y="950" type="line" smooth="yes"/>
      <point x="60" y="840" type="line" smooth="yes"/>
      <point x="190" y="840" type="line" smooth="yes"/>
      <point x="253" y="950" type="line" smooth="yes"/>
    </contour>
    <contour>
      <point x="60" y="0" type="line" smooth="yes"/>
      <point x="190" y="0" type="line" smooth="yes"/>
      <point x="190" y="800" type="line" smooth="yes"/>
      <point x="60" y="800" type="line" smooth="yes"/>
    </contour>
  </outline>
</glyph>
<glyph name="lcommaaccent" format="1">
  <advance width="250"/>
  <unicode hex="013C"/>
  <outline>
    <contour>
      <point x="186" y="-47" type="line" smooth="yes"/>
      <point x="64" y="-47" type="line" smooth="yes"/>
      <point x="64" y="-133" type="line" smooth="yes"/>
      <point x="133" y="-133" type="line" smooth="yes"/>
      <point x="104" y="-165" type="line" smooth="yes"/>
      <point x="52" y="-174" type="line" smooth="yes"/>
      <point x="52" y="-223" type="line" smooth="yes"/>
      <point x="153" y="-194" type="line" smooth="yes"/>
      <point x="186" y="-103" type="line" smooth="yes"/>
    </contour>
    <contour>
      <point x="60" y="0" type="line" smooth="yes"/>
      <point x="190" y="0" type="line" smooth="yes"/>
      <point x="190" y="800" type="line" smooth="yes"/>
      <point x="60" y="800" type="line" smooth="yes"/>
    </contour>
  </outline>
</glyph>
<glyph name="ncommaaccent" format="1">
  <advance width="563"/>
  <unicode hex="0146"/>
  <outline>
    <contour>
      <point x="346" y="-47" type="line" smooth="yes"/>
      <point x="224" y="-47" type="line" smooth="yes"/>
      <point x="224" y="-133" type="line" smooth="yes"/>
      <point x="293" y="-133" type="line" smooth="yes"/>
      <point x="264" y="-165" type="line" smooth="yes"/>
      <point x="212" y="-174" type="line" smooth="yes"/>
      <point x="212" y="-223" type="line" smooth="yes"/>
      <point x="313" y="-194" type="line" smooth="yes"/>
      <point x="346" y="-103" type="line" smooth="yes"/>
    </contour>
    <contour>
      <point x="511" y="0" type="line" smooth="yes"/>
      <point x="511" y="363" type="line" smooth="yes"/>
      <point x="473" y="489" type="line" smooth="yes"/>
      <point x="348" y="543" type="line" smooth="yes"/>
      <point x="243" y="520" type="line" smooth="yes"/>
      <point x="176" y="460" type="line" smooth="yes"/>
      <point x="164" y="530" type="line" smooth="yes"/>
      <point x="49" y="530" type="line" smooth="yes"/>
      <point x="58" y="380" type="line" smooth="yes"/>
      <point x="58" y="0" type="line" smooth="yes"/>
      <point x="188" y="0" type="line" smooth="yes"/>
      <point x="188" y="369" type="line" smooth="yes"/>
      <point x="226" y="409" type="line" smooth="yes"/>
      <point x="298" y="430" type="line" smooth="yes"/>
      <point x="362" y="405" type="line" smooth="yes"/>
      <point x="382" y="342" type="line" smooth="yes"/>
      <point x="382" y="0" type="line" smooth="yes"/>
    </contour>
  </outline>
</glyph>
<glyph name="Eng" format="1">
  <advance width="675"/>
  <unicode hex="014A"/>
  <outline>
    <contour>
      <point x="614" y="780" type="line" smooth="yes"/>
      <point x="487" y="780" type="line" smooth="yes"/>
      <point x="487" y="407" type="line" smooth="yes"/>
      <point x="491" y="242" type="line" smooth="yes"/>
      <point x="203" y="780" type="line" smooth="yes"/>
      <point x="61" y="780" type="line" smooth="yes"/>
      <point x="61" y="0" type="line" smooth="yes"/>
      <point x="188" y="0" type="line" smooth="yes"/>
      <point x="188" y="373" type="line" smooth="yes"/>
      <point x="184" y="538" type="line" smooth="yes"/>
      <point x="484" y="-23" type="line" smooth="yes"/>
      <point x="459" y="-84" type="line" smooth="yes"/>
      <point x="398" y="-99" type="line" smooth="yes"/>
      <point x="368" y="-97" type="line" smooth="yes"/>
      <point x="347" y="-92" type="line" smooth="yes"/>
      <point x="347" y="-200" type="line" smooth="yes"/>
      <point x="373" y="-208" type="line" smooth="yes"/>
      <point x="429" y="-213" type="line" smooth="yes"/>
      <point x="562" y="-171" type="line" smooth="yes"/>
      <point x="614" y="-27" type="line" smooth="yes"/>
    </contour>
  </outline>
</glyph>
<glyph name="eng" format="1">
  <advance width="563"/>
  <unicode hex="014B"/>
  <outline>
    <contour>
      <point x="381" y="-13" type="line" smooth="yes"/>
      <point x="358" y="-83" type="line" smooth="yes"/>
      <point x="296" y="-100" type="line" smooth="yes"/>
      <point x="266" y="-97" type="line" smooth="yes"/>
      <point x="244" y="-92" type="line" smooth="yes"/>
      <point x="244" y="-200" type="line" smooth="yes"/>
      <point x="271" y="-208" type="line" smooth="yes"/>
      <point x="326" y="-213" type="line" smooth="yes"/>
      <point x="460" y="-172" type="line" smooth="yes"/>
      <point x="511" y="-28" type="line" smooth="yes"/>
      <point x="511" y="363" type="line" smooth="yes"/>
      <point x="473" y="489" type="line" smooth="yes"/>
      <point x="348" y="543" type="line" smooth="yes"/>
      <point x="243" y="520" type="line" smooth="yes"/>
      <point x="176" y="460" type="line" smooth="yes"/>
      <point x="164" y="530" type="line" smooth="yes"/>
      <point x="49" y="530" type="line" smooth="yes"/>
      <point x="58" y="380" type="line" smooth="yes"/>
      <point x="58" y="0" type="line" smooth="yes"/>
      <point x="188" y="0" type="line" smooth="yes"/>
      <point x="188" y="369" type="line" smooth="yes"/>
      <point x="226" y="409" type="line" smooth="yes"/>
      <point x="298" y="430" type="line" smooth="yes"/>
      <point x="362" y="405" type="line" smooth="yes"/>
      <point x="381" y="342" type="line" smooth="yes"/>
    </contour>
  </outline>
</glyph>
<glyph name="Omacron" format="1">
  <advance width="665"/>
  <unicode hex="014C"/>
  <outline>
    <contour>
      <point x="195" y="853" type="line" smooth="yes"/>
      <point x="471" y="853" type="line" smooth="yes"/>
      <point x="471" y="937" type="line" smooth="yes"/>
      <point x="195" y="937" type="line" smooth="yes"/>
    </contour>
    <contour>
      <point x="328" y="104" type="line" smooth="yes"/>
      <point x="214" y="171" type="line" smooth="yes"/>
      <point x="181" y="370" type="line" smooth="yes"/>
      <point x="181" y="410" type="line" smooth="yes"/>
      <point x="214" y="609" type="line" smooth="yes"/>
      <point x="328" y="676" type="line" smooth="yes"/>
      <point x="337" y="676" type="line" smooth="yes"/>
      <point x="451" y="609" type="line" smooth="yes"/>
      <point x="484" y="410" type="line" smooth="yes"/>
      <point x="484" y="370" type="line" smooth="yes"/>
      <point x="451" y="171" type="line" smooth="yes"/>
      <point x="337" y="104" type="line" smooth="yes"/>
    </contour>
    <contour>
      <point x="333" y="-13" type="line" smooth="yes"/>
      <point x="550" y="77" type="line" smooth="yes"/>
      <point x="621" y="370" type="line" smooth="yes"/>
      <point x="621" y="410" type="line" smooth="yes"/>
      <point x="550" y="703" type="line" smooth="yes"/>
      <point x="333" y="793" type="line" smooth="yes"/>
      <point x="115" y="703" type="line" smooth="yes"/>
      <point x="44" y="410" type="line" smooth="yes"/>
      <point x="44" y="370" type="line" smooth="yes"/>
      <point x="115" y="77" type="line" smooth="yes"/>
    </contour>
  </outline>
</glyph>
<glyph name="Obreve" format="1">
  <advance width="665"/>
  <unicode hex="014E"/>
  <outline>
    <contour>
      <point x="333" y="826" type="line" smooth="yes"/>
      <point x="469" y="863" type="line" smooth="yes"/>
      <point x="504" y="950" type="line" smooth="yes"/>
      <point x="412" y="950" type="line" smooth="yes"/>
      <point x="394" y="914" type="line" smooth="yes"/>
      <point x="333" y="901" type="line" smooth="yes"/>
      <point x="273" y="914" type="line" smooth="yes"/>
      <point x="254" y="950" type="line" smooth="yes"/>
      <point x="162" y="950" type="line" smooth="yes"/>
      <point x="197" y="863" type="line" smooth="yes"/>
    </contour>
    <contour>
      <point x="328" y="104" type="line" smooth="yes"/>
      <point x="214" y="171" type="line" smooth="yes"/>
      <point x="181" y="370" type="line" smooth="yes"/>
      <point x="181" y="410" type="line" smooth="yes"/>
      <point x="214" y="609" type="line" smooth="yes"/>
      <point x="328" y="676" type="line" smooth="yes"/>
      <point x="337" y="676" type="line" smooth="yes"/>
      <point x="451" y="609" type="line" smooth="yes"/>
      <point x="484" y="410" type="line" smooth="yes"/>
      <point x="484" y="370" type="line" smooth="yes"/>
      <point x="451" y="171" type="line" smooth="yes"/>
      <point x="337" y="104" type="line" smooth="yes"/>
    </contour>
    <contour>
      <point x="333" y="-13" type="line" smooth="yes"/>
      <point x="550" y="77" type="line" smooth="yes"/>
      <point x="621" y="370" type="line" smooth="yes"/>
      <point x="621" y="410" type="line" smooth="yes"/>
      <point x="550" y="703" type="line" smooth="yes"/>
      <point x="333" y="793" type="line" smooth="yes"/>
      <point x="115" y="703" type="line" smooth="yes"/>
      <point x="44" y="410" type="line" smooth="yes"/>
      <point x="44" y="370" type="line" smooth="yes"/>
      <point x="115" y="77" type="line" smooth="yes"/>
    </contour>
  </outline>
</glyph>
<glyph name="obreve" format="1">
  <advance width="553"/>
  <unicode hex="014F"/>
  <outline>
    <contour>
      <point x="276" y="589" type="line" smooth="yes"/>
      <point x="416" y="643" type="line" smooth="yes"/>
      <point x="455" y="780" type="line" smooth="yes"/>
      <point x="359" y="780" type="line" smooth="yes"/>
      <point x="337" y="711" type="line" smooth="yes"/>
      <point x="276" y="689" type="line" smooth="yes"/>
      <point x="215" y="711" type="line" smooth="yes"/>
      <point x="193" y="780" type="line" smooth="yes"/>
      <point x="97" y="780" type="line" smooth="yes"/>
      <point x="136" y="643" type="line" smooth="yes"/>
    </contour>
    <contour>
      <point x="276" y="101" type="line" smooth="yes"/>
      <point x="193" y="141" type="line" smooth="yes"/>
      <point x="166" y="249" type="line" smooth="yes"/>
      <point x="166" y="281" type="line" smooth="yes"/>
      <point x="193" y="390" type="line" smooth="yes"/>
      <point x="276" y="430" type="line" smooth="yes"/>
      <point x="360" y="390" type="line" smooth="yes"/>
      <point x="386" y="281" type="line" smooth="yes"/>
      <point x="386" y="249" type="line" smooth="yes"/>
      <point x="360" y="141" type="line" smooth="yes"/>
    </contour>
    <contour>
      <point x="276" y="-13" type="line" smooth="yes"/>
      <point x="458" y="61" type="line" smooth="yes"/>
      <point x="516" y="249" type="line" smooth="yes"/>
      <point x="516" y="281" type="line" smooth="yes"/>
      <point x="458" y="469" type="line" smooth="yes"/>
      <point x="276" y="543" type="line" smooth="yes"/>
      <point x="94" y="469" type="line" smooth="yes"/>
      <point x="36" y="281" type="line" smooth="yes"/>
      <point x="36" y="249" type="line" smooth="yes"/>
      <point x="94" y="61" type="line" smooth="yes"/>
    </contour>
  </outline>
</glyph>
<glyph name="Ohungarumlaut" format="1">
  <advance width="665"/>
  <unicode hex="0150"/>
  <outline>
    <contour>
      <point x="408" y="950" type="line" smooth="yes"/>
      <point x="351" y="840" type="line" smooth="yes"/>
      <point x="469" y="840" type="line" smooth="yes"/>
      <point x="532" y="950" type="line" smooth="yes"/>
    </contour>
    <contour>
      <point x="248" y="950" type="line" smooth="yes"/>
      <point x="197" y="840" type="line" smooth="yes"/>
      <point x="315" y="840" type="line" smooth="yes"/>
      <point x="372" y="950" type="line" smooth="yes"/>
    </contour>
    <contour>
      <point x="328" y="104" type="line" smooth="yes"/>
      <point x="214" y="171" type="line" smooth="yes"/>
      <point x="181" y="370" type="line" smooth="yes"/>
      <point x="181" y="410" type="line" smooth="yes"/>
      <point x="214" y="609" type="line" smooth="yes"/>
      <point x="328" y="676" type="line" smooth="yes"/>
      <point x="337" y="676" type="line" smooth="yes"/>
      <point x="451" y="609" type="line" smooth="yes"/>
      <point x="484" y="410" type="line" smooth="yes"/>
      <point x="484" y="370" type="line" smooth="yes"/>
      <point x="451" y="171" type="line" smooth="yes"/>
      <point x="337" y="104" type="line" smooth="yes"/>
    </contour>
    <contour>
      <point x="333" y="-13" type="line" smooth="yes"/>
      <point x="550" y="77" type="line" smooth="yes"/>
      <point x="621" y="370" type="line" smooth="yes"/>
      <point x="621" y="410" type="line" smooth="yes"/>
      <point x="550" y="703" type="line" smooth="yes"/>
      <point x="333" y="793" type="line" smooth="yes"/>
      <point x="115" y="703" type="line" smooth="yes"/>
      <point x="44" y="410" type="line" smooth="yes"/>
      <point x="44" y="370" type="line" smooth="yes"/>
      <point x="115" y="77" type="line" smooth="yes"/>
    </contour>
  </outline>
</glyph>
<glyph name="ohungarumlaut" format="1">
  <advance width="553"/>
  <unicode hex="0151"/>
  <outline>
    <contour>
      <point x="222" y="780" type="line" smooth="yes"/>
      <point x="149" y="601" type="line" smooth="yes"/>
      <point x="254" y="601" type="line" smooth="yes"/>
      <point x="339" y="780" type="line" smooth="yes"/>
    </contour>
    <contour>
      <point x="388" y="780" type="line" smooth="yes"/>
      <point x="297" y="601" type="line" smooth="yes"/>
      <point x="402" y="601" type="line" smooth="yes"/>
      <point x="505" y="780" type="line" smooth="yes"/>
    </contour>
    <contour>
      <point x="276" y="101" type="line" smooth="yes"/>
      <point x="193" y="141" type="line" smooth="yes"/>
      <point x="166" y="249" type="line" smooth="yes"/>
      <point x="166" y="281" type="line" smooth="yes"/>
      <point x="193" y="390" type="line" smooth="yes"/>
      <point x="276" y="430" type="line" smooth="yes"/>
      <point x="360" y="390" type="line" smooth="yes"/>
      <point x="386" y="281" type="line" smooth="yes"/>
      <point x="386" y="249" type="line" smooth="yes"/>
      <point x="360" y="141" type="line" smooth="yes"/>
    </contour>
    <contour>
      <point x="276" y="-13" type="line" smooth="yes"/>
      <point x="458" y="61" type="line" smooth="yes"/>
      <point x="516" y="249" type="line" smooth="yes"/>
      <point x="516" y="281" type="line" smooth="yes"/>
      <point x="458" y="469" type="line" smooth="yes"/>
      <point x="276" y="543" type="line" smooth="yes"/>
      <point x="94" y="469" type="line" smooth="yes"/>
      <point x="36" y="281" type="line" smooth="yes"/>
      <point x="36" y="249" type="line" smooth="yes"/>
      <point x="94" y="61" type="line" smooth="yes"/>
    </contour>
  </outline>
</glyph>
<glyph name="OE" format="1">
  <advance width="940"/>
  <unicode hex="0152"/>
  <outline>
    <contour>
      <point x="436" y="663" type="line" smooth="yes"/>
      <point x="436" y="117" type="line" smooth="yes"/>
      <point x="373" y="117" type="line" smooth="yes"/>
      <point x="225" y="178" type="line" smooth="yes"/>
      <point x="181" y="370" type="line" smooth="yes"/>
      <point x="181" y="410" type="line" smooth="yes"/>
      <point x="225" y="603" type="line" smooth="yes"/>
      <point x="373" y="663" type="line" smooth="yes"/>
    </contour>
    <contour>
      <point x="44" y="410" type="line" smooth="yes"/>
      <point x="44" y="370" type="line" smooth="yes"/>
      <point x="122" y="84" type="line" smooth="yes"/>
      <point x="364" y="0" type="line" smooth="yes"/>
      <point x="900" y="0" type="line" smooth="yes"/>
      <point x="900" y="117" type="line" smooth="yes"/>
      <point x="570" y="117" type="line" smooth="yes"/>
      <point x="570" y="340" type="line" smooth="yes"/>
      <point x="850" y="340" type="line" smooth="yes"/>
      <point x="850" y="456" type="line" smooth="yes"/>
      <point x="570" y="456" type="line" smooth="yes"/>
      <point x="570" y="663" type="line" smooth="yes"/>
      <point x="900" y="663" type="line" smooth="yes"/>
      <point x="900" y="780" type="line" smooth="yes"/>
      <point x="364" y="780" type="line" smooth="yes"/>
      <point x="122" y="696" type="line" smooth="yes"/>
    </contour>
  </outline>
</glyph>
<glyph name="oe" format="1">
  <advance width="902"/>
  <unicode hex="0153"/>
  <outline>
    <contour>
      <point x="626" y="442" type="line" smooth="yes"/>
      <point x="705" y="409" type="line" smooth="yes"/>
      <point x="735" y="313" type="line" smooth="yes"/>
      <point x="516" y="313" type="line" smooth="yes"/>
      <point x="547" y="409" type="line" smooth="yes"/>
    </contour>
    <contour>
      <point x="166" y="249" type="line" smooth="yes"/>
      <point x="166" y="281" type="line" smooth="yes"/>
      <point x="193" y="390" type="line" smooth="yes"/>
      <point x="276" y="430" type="line" smooth="yes"/>
      <point x="360" y="390" type="line" smooth="yes"/>
      <point x="386" y="281" type="line" smooth="yes"/>
      <point x="386" y="249" type="line" smooth="yes"/>
      <point x="360" y="141" type="line" smooth="yes"/>
      <point x="276" y="101" type="line" smooth="yes"/>
      <point x="193" y="141" type="line" smooth="yes"/>
    </contour>
    <contour>
      <point x="866" y="217" type="line" smooth="yes"/>
      <point x="866" y="278" type="line" smooth="yes"/>
      <point x="809" y="467" type="line" smooth="yes"/>
      <point x="629" y="543" type="line" smooth="yes"/>
      <point x="523" y="520" type="line" smooth="yes"/>
      <point x="453" y="460" type="line" smooth="yes"/>
      <point x="383" y="520" type="line" smooth="yes"/>
      <point x="276" y="543" type="line" smooth="yes"/>
      <point x="94" y="469" type="line" smooth="yes"/>
      <point x="36" y="281" type="line" smooth="yes"/>
      <point x="36" y="249" type="line" smooth="yes"/>
      <point x="94" y="61" type="line" smooth="yes"/>
      <point x="276" y="-13" type="line" smooth="yes"/>
      <point x="383" y="10" type="line" smooth="yes"/>
      <point x="453" y="70" type="line" smooth="yes"/>
      <point x="525" y="10" type="line" smooth="yes"/>
      <point x="634" y="-13" type="line" smooth="yes"/>
      <point x="807" y="41" type="line" smooth="yes"/>
      <point x="866" y="166" type="line" smooth="yes"/>
      <point x="866" y="170" type="line" smooth="yes"/>
      <point x="743" y="170" type="line" smooth="yes"/>
      <point x="716" y="114" type="line" smooth="yes"/>
      <point x="635" y="88" type="line" smooth="yes"/>
      <point x="550" y="120" type="line" smooth="yes"/>
      <point x="516" y="217" type="line" smooth="yes"/>
    </contour>
  </outline>
</glyph>
<glyph name="rcaron" format="1">
  <advance width="368"/>
  <unicode hex="0159"/>
  <outline>
    <contour>
      <point x="0" y="780" type="line" smooth="yes"/>
      <point x="133" y="601" type="line" smooth="yes"/>
      <point x="257" y="601" type="line" smooth="yes"/>
      <point x="390" y="780" type="line" smooth="yes"/>
      <point x="273" y="780" type="line" smooth="yes"/>
      <point x="195" y="688" type="line" smooth="yes"/>
      <point x="117" y="780" type="line" smooth="yes"/>
    </contour>
    <contour>
      <point x="318" y="543" type="line" smooth="yes"/>
      <point x="233" y="521" type="line" smooth="yes"/>
      <point x="175" y="466" type="line" smooth="yes"/>
      <point x="164" y="530" type="line" smooth="yes"/>
      <point x="49" y="530" type="line" smooth="yes"/>
      <point x="58" y="380" type="line" smooth="yes"/>
      <point x="58" y="0" type="line" smooth="yes"/>
      <point x="188" y="0" type="line" smooth="yes"/>
      <point x="188" y="360" type="line" smooth="yes"/>
      <point x="229" y="397" type="line" smooth="yes"/>
      <point x="311" y="416" type="line" smooth="yes"/>
      <point x="333" y="416" type="line" smooth="yes"/>
      <point x="333" y="542" type="line" smooth="yes"/>
      <point x="327" y="543" type="line" smooth="yes"/>
    </contour>
  </outline>
</glyph>
<glyph name="Scircumflex" format="1">
  <advance width="621"/>
  <unicode hex="015C"/>
  <outline>
    <contour>
      <point x="247" y="840" type="line" smooth="yes"/>
      <point x="311" y="890" type="line" smooth="yes"/>
      <point x="375" y="840" type="line" smooth="yes"/>
      <point x="495" y="840" type="line" smooth="yes"/>
      <point x="376" y="950" type="line" smooth="yes"/>
      <point x="246" y="950" type="line" smooth="yes"/>
      <point x="127" y="840" type="line" smooth="yes"/>
    </contour>
    <contour>
      <point x="290" y="340" type="line" smooth="yes"/>
      <point x="413" y="300" type="line" smooth="yes"/>
      <point x="447" y="220" type="line" smooth="yes"/>
      <point x="447" y="214" type="line" smooth="yes"/>
      <point x="413" y="135" type="line" smooth="yes"/>
      <point x="315" y="104" type="line" smooth="yes"/>
      <point x="306" y="104" type="line" smooth="yes"/>
      <point x="207" y="142" type="line" smooth="yes"/>
      <point x="171" y="263" type="line" smooth="yes"/>
      <point x="37" y="263" type="line" smooth="yes"/>
      <point x="37" y="253" type="line" smooth="yes"/>
      <point x="107" y="53" type="line" smooth="yes"/>
      <point x="311" y="-13" type="line" smooth="yes"/>
      <point x="513" y="48" type="line" smooth="yes"/>
      <point x="584" y="219" type="line" smooth="yes"/>
      <point x="584" y="230" type="line" smooth="yes"/>
      <point x="522" y="383" type="line" smooth="yes"/>
      <point x="333" y="451" type="line" smooth="yes"/>
      <point x="211" y="492" type="line" smooth="yes"/>
      <point x="181" y="568" type="line" smooth="yes"/>
      <point x="181" y="574" type="line" smooth="yes"/>
      <point x="214" y="648" type="line" smooth="yes"/>
      <point x="303" y="676" type="line" smooth="yes"/>
      <point x="312" y="676" type="line" smooth="yes"/>
      <point x="412" y="635" type="line" smooth="yes"/>
      <point x="443" y="507" type="line" smooth="yes"/>
      <point x="577" y="507" type="line" smooth="yes"/>
      <point x="577" y="530" type="line" smooth="yes"/>
      <point x="513" y="728" type="line" smooth="yes"/>
      <point x="311" y="793" type="line" smooth="yes"/>
      <point x="114" y="732" type="line" smooth="yes"/>
      <point x="44" y="567" type="line" smooth="yes"/>
      <point x="44" y="557" type="line" smooth="yes"/>
      <point x="103" y="409" type="line" smooth="yes"/>
    </contour>
  </outline>
</glyph>
<glyph name="scircumflex" format="1">
  <advance width="526"/>
  <unicode hex="015D"/>
  <outline>
    <contour>
      <point x="185" y="601" type="line" smooth="yes"/>
      <point x="263" y="693" type="line" smooth="yes"/>
      <point x="341" y="601" type="line" smooth="yes"/>
      <point x="458" y="601" type="line" smooth="yes"/>
      <point x="325" y="780" type="line" smooth="yes"/>
      <point x="201" y="780" type="line" smooth="yes"/>
      <point x="68" y="601" type="line" smooth="yes"/>
    </contour>
    <contour>
      <point x="263" y="88" type="line" smooth="yes"/>
      <point x="191" y="111" type="line" smooth="yes"/>
      <point x="171" y="166" type="line" smooth="yes"/>
      <point x="42" y="166" type="line" smooth="yes"/>
      <point x="42" y="162" type="line" smooth="yes"/>
      <point x="95" y="39" type="line" smooth="yes"/>
      <point x="263" y="-13" type="line" smooth="yes"/>
      <point x="428" y="34" type="line" smooth="yes"/>
      <point x="484" y="159" type="line" smooth="yes"/>
      <point x="484" y="166" type="line" smooth="yes"/>
      <point x="429" y="277" type="line" smooth="yes"/>
      <point x="274" y="315" type="line" smooth="yes"/>
      <point x="196" y="335" type="line" smooth="yes"/>
      <point x="177" y="379" type="line" smooth="yes"/>
      <point x="199" y="425" type="line" smooth="yes"/>
      <point x="263" y="442" type="line" smooth="yes"/>
      <point x="331" y="419" type="line" smooth="yes"/>
      <point x="351" y="357" type="line" smooth="yes"/>
      <point x="478" y="357" type="line" smooth="yes"/>
      <point x="478" y="362" type="line" smooth="yes"/>
      <point x="428" y="494" type="line" smooth="yes"/>
      <point x="263" y="543" type="line" smooth="yes"/>
      <point x="109" y="502" type="line" smooth="yes"/>
      <point x="49" y="376" type="line" smooth="yes"/>
      <point x="49" y="368" type="line" smooth="yes"/>
      <point x="96" y="265" type="line" smooth="yes"/>
      <point x="253" y="222" type="line" smooth="yes"/>
      <point x="332" y="203" type="line" smooth="yes"/>
      <point x="354" y="154" type="line" smooth="yes"/>
      <point x="332" y="106" type="line" smooth="yes"/>
    </contour>
  </outline>
</glyph>
<glyph name="Scedilla" format="1">
  <advance width="621"/>
  <unicode hex="015E"/>
  <outline>
    <contour>
      <point x="211" y="-190" type="line" smooth="yes"/>
      <point x="252" y="-207" type="line" smooth="yes"/>
      <point x="313" y="-214" type="line" smooth="yes"/>
      <point x="398" y="-193" type="line" smooth="yes"/>
      <point x="427" y="-129" type="line" smooth="yes"/>
      <point x="397" y="-67" type="line" smooth="yes"/>
      <point x="327" y="-45" type="line" smooth="yes"/>
      <point x="339" y="-12" type="line" smooth="yes"/>
      <point x="520" y="55" type="line" smooth="yes"/>
      <point x="584" y="219" type="line" smooth="yes"/>
      <point x="584" y="230" type="line" smooth="yes"/>
      <point x="522" y="383" type="line" smooth="yes"/>
      <point x="333" y="451" type="line" smooth="yes"/>
      <point x="211" y="492" type="line" smooth="yes"/>
      <point x="181" y="568" type="line" smooth="yes"/>
      <point x="181" y="574" type="line" smooth="yes"/>
      <point x="214" y="648" type="line" smooth="yes"/>
      <point x="303" y="676" type="line" smooth="yes"/>
      <point x="312" y="676" type="line" smooth="yes"/>
      <point x="412" y="635" type="line" smooth="yes"/>
      <point x="443" y="507" type="line" smooth="yes"/>
      <point x="577" y="507" type="line" smooth="yes"/>
      <point x="577" y="530" type="line" smooth="yes"/>
      <point x="513" y="728" type="line" smooth="yes"/>
      <point x="311" y="793" type="line" smooth="yes"/>
      <point x="114" y="732" type="line" smooth="yes"/>
      <point x="44" y="567" type="line" smooth="yes"/>
      <point x="44" y="557" type="line" smooth="yes"/>
      <point x="103" y="409" type="line" smooth="yes"/>
      <point x="290" y="340" type="line" smooth="yes"/>
      <point x="413" y="300" type="line" smooth="yes"/>
      <point x="447" y="220" type="line" smooth="yes"/>
      <point x="447" y="214" type="line" smooth="yes"/>
      <point x="413" y="135" type="line" smooth="yes"/>
      <point x="315" y="104" type="line" smooth="yes"/>
      <point x="306" y="104" type="line" smooth="yes"/>
      <point x="207" y="142" type="line" smooth="yes"/>
      <point x="171" y="263" type="line" smooth="yes"/>
      <point x="37" y="263" type="line" smooth="yes"/>
      <point x="37" y="253" type="line" smooth="yes"/>
      <point x="97" y="63" type="line" smooth="yes"/>
      <point x="273" y="-11" type="line" smooth="yes"/>
      <point x="249" y="-75" type="line" smooth="yes"/>
      <point x="266" y="-101" type="line" smooth="yes"/>
      <point x="277" y="-99" type="line" smooth="yes"/>
      <point x="300" y="-97" type="line" smooth="yes"/>
      <point x="340" y="-103" type="line" smooth="yes"/>
      <point x="353" y="-122" type="line" smooth="yes"/>
      <point x="341" y="-141" type="line" smooth="yes"/>
      <point x="302" y="-147" type="line" smooth="yes"/>
      <point x="263" y="-143" type="line" smooth="yes"/>
      <point x="231" y="-131" type="line" smooth="yes"/>
    </contour>
  </outline>
</glyph>
<glyph name="scedilla" format="1">
  <advance width="526"/>
  <unicode hex="015F"/>
  <outline>
    <contour>
      <point x="163" y="-190" type="line" smooth="yes"/>
      <point x="204" y="-207" type="line" smooth="yes"/>
      <point x="265" y="-214" type="line" smooth="yes"/>
      <point x="350" y="-193" type="line" smooth="yes"/>
      <point x="379" y="-129" type="line" smooth="yes"/>
      <point x="349" y="-67" type="line" smooth="yes"/>
      <point x="279" y="-45" type="line" smooth="yes"/>
      <point x="291" y="-12" type="line" smooth="yes"/>
      <point x="435" y="40" type="line" smooth="yes"/>
      <point x="484" y="159" type="line" smooth="yes"/>
      <point x="484" y="166" type="line" smooth="yes"/>
      <point x="429" y="277" type="line" smooth="yes"/>
      <point x="274" y="315" type="line" smooth="yes"/>
      <point x="196" y="335" type="line" smooth="yes"/>
      <point x="177" y="379" type="line" smooth="yes"/>
      <point x="199" y="425" type="line" smooth="yes"/>
      <point x="263" y="442" type="line" smooth="yes"/>
      <point x="331" y="419" type="line" smooth="yes"/>
      <point x="351" y="357" type="line" smooth="yes"/>
      <point x="478" y="357" type="line" smooth="yes"/>
      <point x="478" y="362" type="line" smooth="yes"/>
      <point x="428" y="494" type="line" smooth="yes"/>
      <point x="263" y="543" type="line" smooth="yes"/>
      <point x="109" y="502" type="line" smooth="yes"/>
      <point x="49" y="376" type="line" smooth="yes"/>
      <point x="49" y="368" type="line" smooth="yes"/>
      <point x="96" y="265" type="line" smooth="yes"/>
      <point x="253" y="222" type="line" smooth="yes"/>
      <point x="332" y="203" type="line" smooth="yes"/>
      <point x="354" y="154" type="line" smooth="yes"/>
      <point x="332" y="106" type="line" smooth="yes"/>
      <point x="263" y="88" type="line" smooth="yes"/>
      <point x="191" y="111" type="line" smooth="yes"/>
      <point x="171" y="166" type="line" smooth="yes"/>
      <point x="42" y="166" type="line" smooth="yes"/>
      <point x="42" y="162" type="line" smooth="yes"/>
      <point x="86" y="47" type="line" smooth="yes"/>
      <point x="225" y="-11" type="line" smooth="yes"/>
      <point x="201" y="-75" type="line" smooth="yes"/>
      <point x="218" y="-101" type="line" smooth="yes"/>
      <point x="229" y="-99" type="line" smooth="yes"/>
      <point x="252" y="-97" type="line" smooth="yes"/>
      <point x="292" y="-103" type="line" smooth="yes"/>
      <point x="305" y="-122" type="line" smooth="yes"/>
      <point x="293" y="-141" type="line" smooth="yes"/>
      <point x="254" y="-147" type="line" smooth="yes"/>
      <point x="215" y="-143" type="line" smooth="yes"/>
      <point x="183" y="-131" type="line" smooth="yes"/>
    </contour>
  </outline>
</glyph>
<glyph name="tcaron" format="1">
  <advance width="421"/>
  <unicode hex="0165"/>
  <outline>
    <contour>
      <point x="295" y="800" type="line" smooth="yes"/>
      <point x="295" y="601" type="line" smooth="yes"/>
      <point x="357" y="601" type="line" smooth="yes"/>
      <point x="380" y="800" type="line" smooth="yes"/>
    </contour>
    <contour>
      <point x="234" y="530" type="line" smooth="yes"/>
      <point x="234" y="680" type="line" smooth="yes"/>
      <point x="104" y="680" type="line" smooth="yes"/>
      <point x="104" y="530" type="line" smooth="yes"/>
      <point x="23" y="530" type="line" smooth="yes"/>
      <point x="23" y="416" type="line" smooth="yes"/>
      <point x="104" y="416" type="line" smooth="yes"/>
      <point x="104" y="173" type="line" smooth="yes"/>
      <point x="156" y="29" type="line" smooth="yes"/>
      <point x="289" y="-13" type="line" smooth="yes"/>
      <point x="345" y="-8" type="line" smooth="yes"/>
      <point x="371" y="0" type="line" smooth="yes"/>
      <point x="371" y="108" type="line" smooth="yes"/>
      <point x="350" y="103" type="line" smooth="yes"/>
      <point x="320" y="101" type="line" smooth="yes"/>
      <point x="257" y="117" type="line" smooth="yes"/>
      <point x="234" y="187" type="line" smooth="yes"/>
      <point x="234" y="416" type="line" smooth="yes"/>
      <point x="381" y="416" type="line" smooth="yes"/>
      <point x="381" y="530" type="line" smooth="yes"/>
    </contour>
  </outline>
</glyph>
<glyph name="Utilde" format="1">
  <advance width="655"/>
  <unicode hex="0168"/>
  <outline>
    <contour>
      <point x="328" y="-13" type="line" smooth="yes"/>
      <point x="537" y="50" type="line" smooth="yes"/>
      <point x="599" y="245" type="line" smooth="yes"/>
      <point x="599" y="780" type="line" smooth="yes"/>
      <point x="465" y="780" type="line" smooth="yes"/>
      <point x="465" y="250" type="line" smooth="yes"/>
      <point x="434" y="138" type="line" smooth="yes"/>
      <point x="328" y="104" type="line" smooth="yes"/>
      <point x="221" y="138" type="line" smooth="yes"/>
      <point x="190" y="250" type="line" smooth="yes"/>
      <point x="190" y="780" type="line" smooth="yes"/>
      <point x="56" y="780" type="line" smooth="yes"/>
      <point x="56" y="245" type="line" smooth="yes"/>
      <point x="118" y="50" type="line" smooth="yes"/>
    </contour>
    <contour>
      <point x="429" y="943" type="line" smooth="yes"/>
      <point x="419" y="915" type="line" smooth="yes"/>
      <point x="394" y="907" type="line" smooth="yes"/>
      <point x="331" y="932" type="line" smooth="yes"/>
      <point x="249" y="957" type="line" smooth="yes"/>
      <point x="182" y="932" type="line" smooth="yes"/>
      <point x="154" y="847" type="line" smooth="yes"/>
      <point x="227" y="847" type="line" smooth="yes"/>
      <point x="237" y="875" type="line" smooth="yes"/>
      <point x="262" y="883" type="line" smooth="yes"/>
      <point x="325" y="858" type="line" smooth="yes"/>
      <point x="407" y="833" type="line" smooth="yes"/>
      <point x="474" y="858" type="line" smooth="yes"/>
      <point x="502" y="943" type="line" smooth="yes"/>
    </contour>
  </outline>
</glyph>
<glyph name="utilde" format="1">
  <advance width="563"/>
  <unicode hex="0169"/>
  <outline>
    <contour>
      <point x="376" y="764" type="line" smooth="yes"/>
      <point x="367" y="734" type="line" smooth="yes"/>
      <point x="343" y="725" type="line" smooth="yes"/>
      <point x="277" y="752" type="line" smooth="yes"/>
      <point x="192" y="778" type="line" smooth="yes"/>
      <point x="120" y="745" type="line" smooth="yes"/>
      <point x="91" y="636" type="line" smooth="yes"/>
      <point x="180" y="636" type="line" smooth="yes"/>
      <point x="189" y="666" type="line" smooth="yes"/>
      <point x="213" y="675" type="line" smooth="yes"/>
      <point x="280" y="649" type="line" smooth="yes"/>
      <point x="364" y="622" type="line" smooth="yes"/>
      <point x="436" y="656" type="line" smooth="yes"/>
      <point x="465" y="764" type="line" smooth="yes"/>
    </contour>
    <contour>
      <point x="52" y="530" type="line" smooth="yes"/>
      <point x="52" y="168" type="line" smooth="yes"/>
      <point x="90" y="41" type="line" smooth="yes"/>
      <point x="215" y="-13" type="line" smooth="yes"/>
      <point x="320" y="11" type="line" smooth="yes"/>
      <point x="387" y="70" type="line" smooth="yes"/>
      <point x="399" y="0" type="line" smooth="yes"/>
      <point x="514" y="0" type="line" smooth="yes"/>
      <point x="506" y="150" type="line" smooth="yes"/>
      <point x="506" y="530" type="line" smooth="yes"/>
      <point x="376" y="530" type="line" smooth="yes"/>
      <point x="376" y="161" type="line" smooth="yes"/>
      <point x="338" y="122" type="line" smooth="yes"/>
      <point x="266" y="101" type="line" smooth="yes"/>
      <point x="201" y="125" type="line" smooth="yes"/>
      <point x="181" y="188" type="line" smooth="yes"/>
      <point x="181" y="530" type="line" smooth="yes"/>
    </contour>
  </outline>
</glyph>
<glyph name="Umacron" format="1">
  <advance width="655"/>
  <unicode hex="016A"/>
  <outline>
    <contour>
      <point x="190" y="853" type="line" smooth="yes"/>
      <point x="466" y="853" type="line" smooth="yes"/>
      <point x="466" y="937" type="line" smooth="yes"/>
      <point x="190" y="937" type="line" smooth="yes"/>
    </contour>
    <contour>
      <point x="328" y="-13" type="line" smooth="yes"/>
      <point x="537" y="50" type="line" smooth="yes"/>
      <point x="599" y="245" type="line" smooth="yes"/>
      <point x="599" y="780" type="line" smooth="yes"/>
      <point x="465" y="780" type="line" smooth="yes"/>
      <point x="465" y="250" type="line" smooth="yes"/>
      <point x="434" y="138" type="line" smooth="yes"/>
      <point x="328" y="104" type="line" smooth="yes"/>
      <point x="221" y="138" type="line" smooth="yes"/>
      <point x="190" y="250" type="line" smooth="yes"/>
      <point x="190" y="780" type="line" smooth="yes"/>
      <point x="56" y="780" type="line" smooth="yes"/>
      <point x="56" y="245" type="line" smooth="yes"/>
      <point x="118" y="50" type="line" smooth="yes"/>
    </contour>
  </outline>
</glyph>
<glyph name="Ubreve" format="1">
  <advance width="655"/>
  <unicode hex="016C"/>
  <outline>
    <contour>
      <point x="328" y="-13" type="line" smooth="yes"/>
      <point x="537" y="50" type="line" smooth="yes"/>
      <point x="599" y="245" type="line" smooth="yes"/>
      <point x="599" y="780" type="line" smooth="yes"/>
      <point x="465" y="780" type="line" smooth="yes"/>
      <point x="465" y="250" type="line" smooth="yes"/>
      <point x="434" y="138" type="line" smooth="yes"/>
      <point x="328" y="104" type="line" smooth="yes"/>
      <point x="221" y="138" type="line" smooth="yes"/>
      <point x="190" y="250" type="line" smooth="yes"/>
      <point x="190" y="780" type="line" smooth="yes"/>
      <point x="56" y="780" type="line" smooth="yes"/>
      <point x="56" y="245" type="line" smooth="yes"/>
      <point x="118" y="50" type="line" smooth="yes"/>
    </contour>
    <contour>
      <point x="328" y="826" type="line" smooth="yes"/>
      <point x="464" y="863" type="line" smooth="yes"/>
      <point x="499" y="950" type="line" smooth="yes"/>
      <point x="407" y="950" type="line" smooth="yes"/>
      <point x="389" y="914" type="line" smooth="yes"/>
      <point x="328" y="901" type="line" smooth="yes"/>
      <point x="268" y="914" type="line" smooth="yes"/>
      <point x="249" y="950" type="line" smooth="yes"/>
      <point x="157" y="950" type="line" smooth="yes"/>
      <point x="192" y="863" type="line" smooth="yes"/>
    </contour>
  </outline>
</glyph>
<glyph name="ubreve" format="1">
  <advance width="563"/>
  <unicode hex="016D"/>
  <outline>
    <contour>
      <point x="278" y="589" type="line" smooth="yes"/>
      <point x="418" y="643" type="line" smooth="yes"/>
      <point x="457" y="780" type="line" smooth="yes"/>
      <point x="361" y="780" type="line" smooth="yes"/>
      <point x="339" y="711" type="line" smooth="yes"/>
      <point x="278" y="689" type="line" smooth="yes"/>
      <point x="217" y="711" type="line" smooth="yes"/>
      <point x="195" y="780" type="line" smooth="yes"/>
      <point x="99" y="780" type="line" smooth="yes"/>
      <point x="138" y="643" type="line" smooth="yes"/>
    </contour>
    <contour>
      <point x="52" y="530" type="line" smooth="yes"/>
      <point x="52" y="168" type="line" smooth="yes"/>
      <point x="90" y="41" type="line" smooth="yes"/>
      <point x="215" y="-13" type="line" smooth="yes"/>
      <point x="320" y="11" type="line" smooth="yes"/>
      <point x="387" y="70" type="line" smooth="yes"/>
      <point x="399" y="0" type="line" smooth="yes"/>
      <point x="514" y="0" type="line" smooth="yes"/>
      <point x="506" y="150" type="line" smooth="yes"/>
      <point x="506" y="530" type="line" smooth="yes"/>
      <point x="376" y="530" type="line" smooth="yes"/>
      <point x="376" y="161" type="line" smooth="yes"/>
      <point x="338" y="122" type="line" smooth="yes"/>
      <point x="266" y="101" type="line" smooth="yes"/>
      <point x="201" y="125" type="line" smooth="yes"/>
      <point x="181" y="188" type="line" smooth="yes"/>
      <point x="181" y="530" type="line" smooth="yes"/>
    </contour>
  </outline>
</glyph>
<glyph name="Uring" format="1">
  <advance width="655"/>
  <unicode hex="016E"/>
  <outline>
    <contour>
      <point x="276" y="861" type="line" smooth="yes"/>
      <point x="291" y="898" type="line" smooth="yes"/>
      <point x="328" y="913" type="line" smooth="yes"/>
      <point x="365" y="898" type="line" smooth="yes"/>
      <point x="380" y="861" type="line" smooth="yes"/>
      <point x="365" y="824" type="line" smooth="yes"/>
      <point x="328" y="808" type="line" smooth="yes"/>
      <point x="291" y="824" type="line" smooth="yes"/>
    </contour>
    <contour>
      <point x="226" y="861" type="line" smooth="yes"/>
      <point x="256" y="789" type="line" smooth="yes"/>
      <point x="328" y="759" type="line" smooth="yes"/>
      <point x="400" y="789" type="line" smooth="yes"/>
      <point x="430" y="861" type="line" smooth="yes"/>
      <point x="400" y="933" type="line" smooth="yes"/>
      <point x="328" y="963" type="line" smooth="yes"/>
      <point x="256" y="933" type="line" smooth="yes"/>
    </contour>
    <contour>
      <point x="328" y="-13" type="line" smooth="yes"/>
      <point x="537" y="50" type="line" smooth="yes"/>
      <point x="599" y="245" type="line" smooth="yes"/>
      <point x="599" y="780" type="line" smooth="yes"/>
      <point x="465" y="780" type="line" smooth="yes"/>
      <point x="465" y="250" type="line" smooth="yes"/>
      <point x="434" y="138" type="line" smooth="yes"/>
      <point x="328" y="104" type="line" smooth="yes"/>
      <point x="221" y="138" type="line" smooth="yes"/>
      <point x="190" y="250" type="line" smooth="yes"/>
      <point x="190" y="780" type="line" smooth="yes"/>
      <point x="56" y="780" type="line" smooth="yes"/>
      <point x="56" y="245" type="line" smooth="yes"/>
      <point x="118" y="50" type="line" smooth="yes"/>
    </contour>
  </outline>
</glyph>
